<svg width="120" height="120" fill="none" xmlns="http://www.w3.org/2000/svg"><circle cx="60" cy="60" r="59" fill="#fff" stroke="#333" stroke-width="2"/><path d="M28.088 88h1.888v-4.992h4.96c2.016 0 3.36-1.504 3.36-3.328 0-1.824-1.344-3.328-3.36-3.328h-6.848V88zm1.888-6.656v-3.328h4.768c.992 0 1.664.672 1.664 1.664 0 .992-.672 1.664-1.664 1.664h-4.768zm11.726 6.816c.832 0 1.568-.288 1.984-.736V88h1.76v-3.328c0-2.08-1.504-3.488-3.584-3.488-1.92 0-3.584 1.568-3.584 3.488 0 2.08 1.408 3.488 3.424 3.488zm.16-1.664c-1.024 0-1.792-.8-1.792-1.824 0-1.056.768-1.824 1.792-1.824 1.056 0 1.792.768 1.792 1.824 0 1.024-.736 1.824-1.792 1.824zm9.25 4.992c1.92 0 3.584-1.408 3.584-3.488v-3.328c0-2.08-1.504-3.488-3.584-3.488-1.92 0-3.584 1.568-3.584 3.488 0 2.08 1.408 3.488 3.424 3.488.832 0 1.6-.288 1.984-.736V88c0 1.088-.736 1.92-1.824 1.92s-1.824-.768-1.824-1.856h-1.696c0 2.112 1.408 3.424 3.52 3.424zm0-4.992c-1.024 0-1.792-.8-1.792-1.824 0-1.056.768-1.824 1.792-1.824 1.056 0 1.792.768 1.792 1.824 0 1.024-.736 1.824-1.792 1.824zm9.07 1.664c.96 0 1.823-.384 2.463-1.024l-1.088-1.12c-.48.448-.8.608-1.376.608-.896 0-1.6-.544-1.824-1.344h5.408v-.608c-.128-2.176-1.504-3.488-3.584-3.488-1.92 0-3.584 1.568-3.584 3.488 0 2.08 1.504 3.488 3.584 3.488zm-1.793-4.256c.256-.736.896-1.28 1.792-1.28.928 0 1.568.512 1.824 1.28H58.39zM71.467 88h1.792v-4.992h.896v-1.664h-.896v-4.992h-1.792v4.992h-.896v1.664h.896V88zm7.967.16c1.92 0 3.584-1.568 3.584-3.488 0-2.08-1.504-3.488-3.584-3.488-1.92 0-3.584 1.568-3.584 3.488 0 2.08 1.504 3.488 3.584 3.488zm0-1.664c-1.024 0-1.792-.8-1.792-1.824 0-1.056.768-1.824 1.792-1.824 1.056 0 1.792.768 1.792 1.824 0 1.024-.736 1.824-1.792 1.824zm5.481 4.832h1.792v-3.744c.576.416 1.216.576 1.888.576 1.888 0 3.488-1.568 3.488-3.488 0-2.08-1.504-3.488-3.584-3.488-1.92 0-3.584 1.568-3.584 3.488v6.656zm3.584-4.832c-1.024 0-1.792-.8-1.792-1.824 0-1.056.768-1.824 1.792-1.824 1.056 0 1.792.768 1.792 1.824 0 1.024-.736 1.824-1.792 1.824zM56.902 29.5c1.155-2 4.041-2 5.196 0L78.12 57.25c1.154 2-.29 4.5-2.599 4.5H43.479c-2.309 0-3.752-2.5-2.598-4.5L56.902 29.5z" fill="#333"/></svg>