<svg width="70" height="70" fill="none" xmlns="http://www.w3.org/2000/svg"><circle cx="35" cy="35" r="34" fill="#fff" stroke="#333" stroke-width="2"/><path d="M11.816 50h1.416v-3.744h3.72c1.512 0 2.52-1.128 2.52-2.496s-1.008-2.496-2.52-2.496h-5.136V50zm1.416-4.992v-2.496h3.576c.744 0 1.248.504 1.248 1.248s-.504 1.248-1.248 1.248h-3.576zm8.794 5.112c.624 0 1.176-.216 1.488-.552V50h1.32v-2.496c0-1.56-1.128-2.616-2.688-2.616-1.44 0-2.688 1.176-2.688 2.616 0 1.56 1.056 2.616 2.568 2.616zm.12-1.248c-.768 0-1.344-.6-1.344-1.368 0-.792.576-1.368 1.344-1.368.792 0 1.344.576 1.344 1.368 0 .768-.552 1.368-1.344 1.368zm6.938 3.744c1.44 0 2.688-1.056 2.688-2.616v-2.496c0-1.56-1.128-2.616-2.688-2.616-1.44 0-2.688 1.176-2.688 2.616 0 1.56 1.056 2.616 2.568 2.616.624 0 1.2-.216 1.488-.552V50c0 .816-.552 1.44-1.368 1.44-.816 0-1.368-.576-1.368-1.392h-1.272c0 1.584 1.056 2.568 2.64 2.568zm0-3.744c-.768 0-1.344-.6-1.344-1.368 0-.792.576-1.368 1.344-1.368.792 0 1.344.576 1.344 1.368 0 .768-.552 1.368-1.344 1.368zm6.802 1.248c.72 0 1.368-.288 1.848-.768l-.816-.84c-.36.336-.6.456-1.032.456-.672 0-1.2-.408-1.368-1.008h4.056v-.456c-.096-1.632-1.128-2.616-2.688-2.616-1.44 0-2.688 1.176-2.688 2.616 0 1.56 1.128 2.616 2.688 2.616zm-1.344-3.192c.192-.552.672-.96 1.344-.96.696 0 1.176.384 1.368.96h-2.712zM44.35 50h1.344v-3.744h.672v-1.248h-.672v-3.744H44.35v3.744h-.672v1.248h.672V50zm5.975.12c1.44 0 2.688-1.176 2.688-2.616 0-1.56-1.128-2.616-2.688-2.616-1.44 0-2.688 1.176-2.688 2.616 0 1.56 1.128 2.616 2.688 2.616zm0-1.248c-.768 0-1.344-.6-1.344-1.368 0-.792.576-1.368 1.344-1.368.792 0 1.344.576 1.344 1.368 0 .768-.552 1.368-1.344 1.368zm4.111 3.624h1.344v-2.808c.432.312.912.432 1.416.432 1.416 0 2.616-1.176 2.616-2.616 0-1.56-1.128-2.616-2.688-2.616-1.44 0-2.688 1.176-2.688 2.616v4.992zm2.688-3.624c-.768 0-1.344-.6-1.344-1.368 0-.792.576-1.368 1.344-1.368.792 0 1.344.576 1.344 1.368 0 .768-.552 1.368-1.344 1.368zM32.402 16.5c1.155-2 4.041-2 5.196 0l8.66 15c1.155 2-.288 4.5-2.598 4.5H26.34c-2.31 0-3.753-2.5-2.598-4.5l8.66-15z" fill="#333"/></svg>