<svg width="309" height="99" fill="none" xmlns="http://www.w3.org/2000/svg"><path transform="matrix(.99174 -.12828 -.00453 .99999 2.269 79.755)" stroke="#159741" d="M0-.5h284.537"/><path transform="matrix(.99174 -.12828 -.00453 .99999 1.999 85.448)" stroke="#159741" d="M0-.5h284.537"/><path d="M5.176 72.961c-.56.06-.905.027-1.037-.1-.152-.101-.202-.344-.149-.726.01-.12.07-.656.18-1.611.11-.931.246-2.078.405-3.439.185-1.34.37-2.797.553-4.373l.58-4.448c-.485.1-.85.104-1.096.013-.248-.115-.383-.277-.406-.487-.002-.235.101-.482.31-.74.23-.261.57-.498 1.018-.712.088-.056.223-.118.405-.185.073-.409.134-.828.182-1.257.055-.36.108-.743.158-1.149s.102-.8.155-1.184L7.75 41.848c.082-.55.249-.97.5-1.256.274-.312.796-.605 1.568-.877.635-.233 1.083-.34 1.344-.322.26-.004.383.053.372.172-.042.264-.15.9-.323 1.91a590.77 590.77 0 00-.625 3.709 812.693 812.693 0 00-.72 4.78 534.322 534.322 0 00-.752 5.139c1.375-.361 3.057-.72 5.046-1.076a25.573 25.573 0 012.218-.416 32.116 32.116 0 012.132-.23c.19-1.294.369-2.587.535-3.878.19-1.293.367-2.491.531-3.593.164-1.102.306-2.072.428-2.91.142-.865.25-1.501.324-1.91.092-.458.18-.833.267-1.125a2.55 2.55 0 01.383-.713c.168-.183.365-.322.59-.418.226-.095.488-.182.786-.261.163-.018.36-.05.59-.1l.664-.071c.254-.051.547-.07.878-.06a147.51 147.51 0 00-1.699 7.504 325.61 325.61 0 00-1.33 7.322c.425.001.79-.003 1.095-.013.33-.011.59-.004.78.022.57.033.936.147 1.098.341.186.192.172.5-.041.924l-.363.57c-.12.201-.27.441-.452.72-.185.256-.424.553-.717.891-.194-.05-.4-.098-.617-.145l-.582-.15c-.24-.044-.47-.09-.687-.137a59.86 59.86 0 00-.276 1.691 31.243 31.243 0 00-.215 1.615 114.799 114.799 0 00-.422 3.617 249.45 249.45 0 00-.29 3.532 56.183 56.183 0 00-.08 3.828 1.733 1.733 0 01-.54.235c-.182.067-.341.12-.479.158l-.482.122-.034.004-.07.008-.07.007-.28.03a.625.625 0 01-.287-.04c-.12-.01-.24-.032-.36-.066l-.366-.102a1.197 1.197 0 01-.33-.106c.104-.79.166-1.527.186-2.213.043-.688.06-1.29.052-1.808a25.325 25.325 0 00-.035-1.623c-.042-.609-.184-1.265-.425-1.97a9.184 9.184 0 00-.93-2.057 9.248 9.248 0 00-1.365-1.832 6.92 6.92 0 00-1.704-1.372c-.626-.333-1.213-.53-1.761-.588a5.1 5.1 0 00-1.584.066c-.088.716-.166 1.408-.235 2.076a32.73 32.73 0 00-.146 1.925 521.9 521.9 0 00-.306 4.029 364.762 364.762 0 01-.228 3.454 70.358 70.358 0 00-.09 3.087 6.167 6.167 0 01-1.003.532 5.671 5.671 0 01-.848.34 3.33 3.33 0 01-.792.191zm12.162-17.014a20.779 20.779 0 00-2.357.113c-.725.055-1.367.112-1.926.173.494.206.938.5 1.333.881.418.38.854.815 1.308 1.309.426.449.787.952 1.083 1.51.296.556.555 1.094.776 1.613.08-1 .175-1.976.284-2.93.109-.955.212-1.85.31-2.686a2.562 2.562 0 00-.423.01 1.977 1.977 0 00-.388.007zm28.53-1.103a96.78 96.78 0 01-1.069 1.883c-.44.732-.9 1.477-1.384 2.236a33.875 33.875 0 01-1.404 2.061c-.452.615-.84 1.058-1.165 1.329-.218.165-.473.31-.766.436a4.244 4.244 0 01-.925.277c-.3.056-.594.064-.881.024a1.864 1.864 0 01-.764-.2c-.228-.14-.428-.355-.6-.642a7.171 7.171 0 01-.46-.976c-.138-.41-.23-.93-.274-1.562-.459.993-.998 1.782-1.619 2.367-.622.563-1.224.993-1.805 1.292a7.565 7.565 0 01-2.048.68c-.326.036-.688-.043-1.086-.236-.396-.169-.747-.473-1.053-.911-.31-.462-.54-1.062-.69-1.8-.153-.761-.158-1.68-.015-2.756a13.316 13.316 0 011.118-4.046c.596-1.243 1.27-2.318 2.02-3.224.748-.93 1.507-1.648 2.277-2.156.77-.507 1.426-.767 1.967-.778.642.048 1.175.18 1.599.393.351.198.599.525.742.98.165.43.043 1.045-.366 1.844a8.23 8.23 0 01.789-.227c.23-.049.404-.08.52-.092.14-.015.234-.013.284.005.028.044.05.148.069.31.015.14.009.412-.018.816a59.46 59.46 0 01-.14 1.642c-.068.69-.16 1.585-.277 2.682-.024.214-.049.418-.075.609a5.26 5.26 0 01-.048.536c-.006.165-.02.367-.04.605l-.081.893c0 .212.013.446.04.703.05.23.12.447.212.649.093.202.217.365.372.49.175.099.403.133.683.103.233-.025.52-.198.863-.518.34-.343.696-.759 1.067-1.247a45.58 45.58 0 001.131-1.642 56.13 56.13 0 001.12-1.748c.34-.555.64-1.047.9-1.476.284-.432.485-.748.605-.95.164-.23.338-.366.521-.41.182-.066.327-.035.435.095.108.13.143.338.103.625-.016.285-.144.629-.384 1.032zm-10.074 2.644c.066-.478.146-1.041.241-1.688.096-.646.17-1.267.223-1.863a20.35 20.35 0 00.09-1.46c.027-.403-.005-.588-.096-.554a3.248 3.248 0 00-.373.146c-.111.06-.259.11-.443.154a4.744 4.744 0 00-.548.165c.146-.393.218-.707.217-.943.019-.261.009-.46-.03-.598a.835.835 0 00-.181-.369c-.28-.182-.715.042-1.307.672-.57.604-1.196 1.685-1.876 3.244a9.231 9.231 0 00-.627 2.047 13.438 13.438 0 00-.247 1.972 7.63 7.63 0 00.14 1.612c.094.437.218.718.373.843.284.229.59.325.916.29.323-.058.64-.187.948-.385.33-.224.642-.494.938-.809.32-.317.59-.641.814-.972.247-.333.438-.636.574-.91.158-.277.243-.475.254-.594zm19.843-2.957c-.51.95-1.046 1.88-1.608 2.79a33.854 33.854 0 01-1.607 2.472c-.511.716-1.002 1.3-1.472 1.75-.444.473-.818.725-1.12.758-.723.078-1.354-.195-1.893-.82-.518-.652-.96-1.465-1.324-2.439-.344-1-.613-2.067-.806-3.202a27.108 27.108 0 01-.302-3.114c-.005-.919.022-1.652.08-2.201.056-.572.15-1.018.28-1.339.153-.323.34-.567.557-.732a4.03 4.03 0 01.906-.451c.158-.064.34-.12.548-.166a1.46 1.46 0 01.563-.025c.189.003.336.058.442.164.106.107.136.28.092.52-.024.216-.072.54-.143.971-.05.406-.106.872-.167 1.397a92.58 92.58 0 00-.176 1.646c-.032.57-.044 1.113-.035 1.63.026.893.11 1.674.253 2.342.14.645.306 1.193.496 1.644.188.427.376.749.564.964.188.216.33.318.422.308.117-.012.31-.186.58-.522.291-.362.607-.82.948-1.375a21.1 21.1 0 001.1-1.923c.393-.726.748-1.472 1.067-2.237-.18-.357-.287-.794-.319-1.309-.016-.8.082-1.53.294-2.189.209-.682.464-1.264.766-1.745.325-.483.66-.86 1.009-1.134.368-.3.704-.465 1.007-.498.605-.065.996.058 1.17.369.197.285.29.593.278.925.006.494-.142 1.194-.445 2.099a25.263 25.263 0 01-1.17 2.92c.122.033.255.066.4.098.145.031.31.037.497.017.792-.086 1.493-.256 2.102-.51a8.161 8.161 0 001.606-.846c.462-.309.84-.621 1.136-.936.317-.34.57-.615.76-.824.124-.155.257-.24.397-.255a.57.57 0 01.36.067c.101.06.16.16.174.299.015.14-.038.299-.16.477a9.754 9.754 0 01-2.808 2.814c-1.12.758-2.484 1.223-4.092 1.397-.14.015-.316.022-.528.022a3.81 3.81 0 01-.68-.068zm22.578-3.501a28.124 28.124 0 01-2.052 3.263 22.839 22.839 0 01-2.551 2.892 15.294 15.294 0 01-2.844 2.146c-.975.577-1.952.918-2.93 1.024-.513.056-1.087-.012-1.72-.203-.608-.17-1.184-.485-1.729-.945-.545-.46-1.013-1.08-1.404-1.864-.368-.785-.556-1.766-.566-2.944-.01-.965.173-1.999.549-3.1a14.643 14.643 0 011.534-3.137 11.084 11.084 0 012.244-2.47c.869-.683 1.77-1.075 2.702-1.176.885-.095 1.55.057 1.994.457.444.4.678.928.702 1.586a4.91 4.91 0 01-.414 2.06 7.62 7.62 0 01-1.01 1.771c-.413.54-.867 1.037-1.36 1.49-.47.452-.92.866-1.35 1.243-.475.405-.928.796-1.359 1.172-.433.353-.81.677-1.132.971.086.58.244 1.058.473 1.434.23.376.498.677.805.903.305.203.638.344 1 .423.383.053.761.059 1.134.019.792-.086 1.593-.42 2.402-1.003a18.145 18.145 0 002.32-2.089 26.475 26.475 0 002.065-2.486 46.446 46.446 0 001.567-2.185c.143-.204.295-.327.455-.368.182-.066.324-.058.427.025.124.057.198.19.22.4.02.187-.037.417-.172.691zm-9.53-4.416c-.28.03-.603.207-.969.53-.342.32-.671.767-.986 1.343-.317.553-.598 1.232-.84 2.036-.246.781-.397 1.67-.455 2.666.257-.24.537-.482.841-.727.301-.269.6-.549.9-.84.918-.877 1.544-1.629 1.877-2.254.333-.625.5-1.15.502-1.575-.002-.447-.082-.757-.242-.928a.677.677 0 00-.629-.25zm38.588 1.594c-.275.501-.632 1.13-1.069 1.884-.439.73-.901 1.476-1.384 2.236-.463.733-.931 1.42-1.404 2.06-.452.615-.84 1.058-1.165 1.329-.218.165-.473.31-.766.436a4.244 4.244 0 01-.925.277c-.3.056-.594.064-.881.025a1.866 1.866 0 01-.764-.2 1.846 1.846 0 01-.6-.643 7.17 7.17 0 01-.46-.976c-.138-.41-.23-.93-.274-1.562-.459.993-.998 1.782-1.618 2.368-.623.562-1.225.992-1.806 1.291a7.572 7.572 0 01-2.048.681c-.326.035-.688-.044-1.086-.236-.396-.17-.747-.473-1.053-.912-.31-.462-.54-1.061-.69-1.8-.153-.76-.158-1.68-.016-2.756a13.318 13.318 0 011.119-4.046c.596-1.243 1.27-2.318 2.02-3.224.748-.93 1.507-1.648 2.277-2.155.77-.508 1.426-.767 1.967-.779.642.049 1.175.18 1.599.393.351.198.599.525.742.98.165.431.043 1.045-.366 1.844.319-.105.582-.18.789-.227a5.84 5.84 0 01.52-.092c.14-.015.234-.013.284.005.028.044.051.148.069.311.015.14.009.412-.018.815-.027.404-.074.951-.141 1.642-.067.69-.159 1.585-.276 2.682-.023.215-.049.418-.075.61a5.262 5.262 0 01-.048.535c-.006.166-.02.367-.04.605l-.081.893c0 .212.013.447.04.703.05.23.12.447.212.649.093.202.217.365.372.49.175.1.403.133.683.103.233-.025.52-.198.863-.518.34-.343.696-.758 1.067-1.246.369-.512.746-1.06 1.131-1.643a54.2 54.2 0 001.119-1.748c.341-.555.641-1.047.901-1.476.284-.431.485-.748.605-.95.164-.23.337-.366.521-.41.182-.066.327-.035.435.095.108.13.143.338.103.625-.016.285-.144.629-.384 1.032zm-10.074 2.645c.066-.479.146-1.042.241-1.689.096-.646.17-1.267.223-1.862.054-.595.084-1.082.09-1.46.027-.404-.005-.589-.096-.555a3.248 3.248 0 00-.373.146c-.111.06-.259.11-.443.154a4.765 4.765 0 00-.548.165c.146-.393.218-.707.217-.942.018-.262.009-.461-.03-.598a.835.835 0 00-.181-.37c-.28-.182-.715.042-1.307.672-.57.604-1.196 1.685-1.876 3.244a9.23 9.23 0 00-.627 2.048 13.44 13.44 0 00-.247 1.971 7.63 7.63 0 00.14 1.612c.094.438.218.719.373.843.284.229.59.326.916.29.323-.058.64-.187.948-.385.33-.224.642-.494.938-.809.32-.317.59-.64.814-.972.247-.333.438-.636.574-.91.158-.277.243-.474.254-.593zm32.571 2.845c-.536.058-1.013.003-1.432-.164a2.448 2.448 0 01-.992-.67 2.659 2.659 0 01-.575-1.07 3.611 3.611 0 01-.082-1.405c.035-.334.105-.778.21-1.332.103-.576.201-1.188.297-1.835a34.4 34.4 0 00.281-1.975c.092-.67.134-1.264.125-1.782-.011-.54-.081-.97-.209-1.286-.131-.339-.348-.492-.651-.46-.373.04-.744.21-1.112.51a6.28 6.28 0 00-1.118 1.11c-.35.463-.705.996-1.064 1.6a53.3 53.3 0 00-1.007 1.807 68.14 68.14 0 00-.297 2.154l-.211 1.649a28.9 28.9 0 01-.143 1.288c-.056.36-.101.707-.136 1.04-.044.241-.229.497-.553.767a6.179 6.179 0 01-1.062.646c-.381.182-.711.289-.991.319-.303.033-.442-.058-.418-.273.008-.142.055-.466.142-.97.064-.502.154-1.09.269-1.762.09-.693.188-1.423.294-2.189a264.6 264.6 0 00.294-2.188l.191-1.825c.056-.572.126-1.239.208-2.002.106-.766.227-1.604.364-2.515.148-.157.3-.28.456-.367.176-.114.355-.204.536-.27.179-.09.372-.159.579-.205.187-.02.374-.028.563-.025.166.006.334.035.505.087.191.026.363.09.516.192-.053.17-.109.412-.169.725-.063.29-.124.603-.182.94-.053.382-.127.78-.224 1.19.257-.452.55-.908.877-1.367a10.06 10.06 0 011.13-1.325c.428-.4.887-.732 1.377-.997a3.783 3.783 0 011.535-.52 1.97 1.97 0 011.23.256c.377.219.684.55.921.997.258.42.432.943.524 1.57.114.624.107 1.32-.022 2.089l-.218 1.579c-.064.502-.152 1.1-.265 1.797-.093.67-.224 1.415-.395 2.235-.084.527-.095.977-.031 1.347.087.367.34.529.76.483.419-.045.916-.358 1.489-.938a15.957 15.957 0 001.757-2.064 40.235 40.235 0 001.614-2.403c.5-.832.876-1.497 1.128-1.996.177-.325.354-.545.53-.658.176-.113.315-.14.416-.08.124.057.2.214.227.47.026.233-.035.546-.181.94-.128.343-.337.802-.629 1.375a19.438 19.438 0 01-1.003 1.841 47.02 47.02 0 01-1.303 2.015 19.09 19.09 0 01-1.496 1.86 9.696 9.696 0 01-1.619 1.377c-.524.386-1.042.607-1.555.663zm13.309-23.15a2.109 2.109 0 01-.336.814 2.706 2.706 0 01-.6.666 2.186 2.186 0 01-.703.359c-.252.074-.467.05-.645-.072-.529-.32-.829-.688-.897-1.105a2.06 2.06 0 01.182-1.257c.19-.422.446-.78.768-1.073.319-.318.604-.514.856-.588.251-.074.467-.039.648.107.201.12.363.302.483.549.119.223.194.485.227.788.056.3.062.571.017.812zm-4.018 7.966c.102-.152.31-.293.627-.421.316-.129.646-.235.991-.32a4.86 4.86 0 01.932-.206c.3-.056.475-.075.524-.057.026.02-.006.272-.095.753-.09.48-.205 1.047-.347 1.7-.141.651-.292 1.327-.452 2.028a24.72 24.72 0 00-.35 1.665c-.072.432-.16.925-.265 1.478a41.08 41.08 0 00-.288 1.587c-.063.502-.095.977-.093 1.425.001.447.073.782.214 1.002.147.267.297.451.449.553.15.078.306.108.47.09.466-.05 1.02-.37 1.664-.957a18.704 18.704 0 001.97-2.052 35.39 35.39 0 001.828-2.39c.549-.814.95-1.458 1.205-1.934.162-.253.332-.425.511-.515.202-.092.366-.098.493-.017.15.078.236.221.259.431.046.207.002.46-.131.757-.302.693-.765 1.532-1.389 2.52a40.137 40.137 0 01-2.027 2.835 21.405 21.405 0 01-2.185 2.358c-.706.665-1.302 1.036-1.789 1.113a2.693 2.693 0 01-1.211-.082 3.94 3.94 0 01-1.113-.48 4.28 4.28 0 01-.871-.861 2.677 2.677 0 01-.475-1.116c-.132-.575-.218-1.367-.257-2.377a29.225 29.225 0 01.048-3.152c.071-1.092.194-2.13.37-3.116.2-.989.461-1.736.783-2.242zm15.981 10.366c.722-.078 1.484-.443 2.286-1.095.822-.678 1.6-1.446 2.332-2.303a26.887 26.887 0 002.019-2.587c.61-.892 1.064-1.6 1.361-2.128.177-.325.356-.522.537-.588.179-.09.321-.082.427.024.106.107.161.29.165.548.002.236-.073.515-.227.838a15.01 15.01 0 01-.707 1.314c-.317.553-.71 1.173-1.177 1.86a26.332 26.332 0 01-1.579 2.08c-.584.7-1.209 1.357-1.873 1.97a11.908 11.908 0 01-2.101 1.5c-.731.433-1.469.69-2.215.77-1.025.111-1.909.006-2.651-.314a4.787 4.787 0 01-1.801-1.29 6.066 6.066 0 01-1.055-1.902 10.321 10.321 0 01-.483-2.176c-.078-.722-.012-1.637.198-2.744a12.354 12.354 0 011.101-3.23 9.492 9.492 0 012.17-2.817c.901-.828 2.015-1.314 3.343-1.457.746-.08 1.403.108 1.971.565.591.454.923 1.126.996 2.014.045.42.021.846-.074 1.28a4.351 4.351 0 01-.442 1.145c-.2.328-.453.603-.759.824a1.91 1.91 0 01-.984.39c-.302.032-.547-.047-.733-.24a2.171 2.171 0 01-.362-.738 5.402 5.402 0 01-.095-.874c.016-.285.043-.476.079-.574.099-.176.215-.306.347-.392l.463-.297a.686.686 0 00.28-.349.798.798 0 00.091-.47.655.655 0 00-.185-.403c-.106-.107-.264-.149-.473-.126-.21.023-.576.239-1.097.649-.501.384-1.006.945-1.515 1.684-.489.713-.9 1.594-1.235 2.644-.334 1.05-.441 2.24-.321 3.571.06.771.233 1.39.519 1.853.286.465.619.818.999 1.06.38.241.785.398 1.217.469.432.071.847.085 1.243.042zm24.025-8.749a28.195 28.195 0 01-2.051 3.263 22.82 22.82 0 01-2.552 2.892 15.3 15.3 0 01-2.844 2.147c-.975.577-1.951.918-2.93 1.023-.513.056-1.086-.012-1.719-.203-.608-.17-1.184-.485-1.729-.944-.545-.46-1.013-1.081-1.404-1.864-.368-.786-.557-1.767-.566-2.945-.01-.965.172-1.999.548-3.1a14.687 14.687 0 011.535-3.136c.65-.966 1.398-1.79 2.244-2.47.869-.684 1.769-1.076 2.701-1.176.886-.096 1.55.056 1.995.456.444.4.678.929.702 1.586a4.91 4.91 0 01-.414 2.06 7.64 7.64 0 01-1.011 1.772c-.413.54-.866 1.036-1.359 1.49-.47.452-.92.866-1.351 1.242-.475.405-.927.796-1.358 1.173-.433.353-.811.677-1.133.97.087.58.244 1.059.474 1.435a3.1 3.1 0 00.805.903c.304.203.638.343 1 .422.383.053.761.06 1.134.019.792-.086 1.593-.42 2.402-1.002a18.118 18.118 0 002.32-2.09 26.474 26.474 0 002.065-2.486 46.93 46.93 0 001.567-2.185c.143-.204.294-.326.455-.367.181-.067.324-.059.427.024.124.058.198.191.22.4.02.187-.037.417-.173.691zm-9.53-4.415c-.279.03-.602.206-.968.529-.343.32-.671.768-.986 1.344-.318.553-.598 1.231-.841 2.035-.245.781-.397 1.67-.454 2.666.257-.24.537-.482.841-.727.301-.268.6-.548.899-.84.919-.877 1.545-1.628 1.878-2.254.333-.625.5-1.15.501-1.574-.001-.448-.082-.758-.242-.929a.677.677 0 00-.628-.25zm31.804 2.61c-.039.734-.081 1.434-.127 2.1a20.122 20.122 0 00-.004 1.591c.039.585.19.993.45 1.224.261.232.531.332.811.302.326-.035.705-.241 1.135-.618.454-.379.923-.842 1.406-1.39.483-.547.961-1.14 1.434-1.781.473-.64.903-1.24 1.29-1.801a29.88 29.88 0 001.002-1.523c.284-.431.477-.712.581-.84.125-.156.256-.252.393-.29.161-.042.291-.032.392.028.101.06.161.182.182.369.02.186-.048.43-.204.73a29.401 29.401 0 01-.914 1.69 41.62 41.62 0 01-1.271 1.975 31.954 31.954 0 01-1.512 2.038 16.233 16.233 0 01-1.609 1.8 9.785 9.785 0 01-1.592 1.304c-.503.36-.976.565-1.419.613a1.788 1.788 0 01-.974-.178 3.286 3.286 0 01-.848-.65 3.907 3.907 0 01-.669-.954 3.092 3.092 0 01-.261-1.103c.006-.166.011-.45.014-.85-.86 1.2-1.756 2.181-2.687 2.942-.911.735-1.82 1.151-2.729 1.25-.326.035-.685-.009-1.075-.132-.391-.122-.757-.354-1.101-.694-.32-.343-.606-.807-.858-1.392-.252-.586-.401-1.313-.448-2.18a12.53 12.53 0 01.388-3.931c.335-1.262.804-2.374 1.408-3.335.624-.987 1.351-1.784 2.181-2.393.851-.634 1.73-1 2.639-1.098.396-.043.769.023 1.118.197.346.151.653.378.922.679.266.277.489.595.669.953.203.355.357.692.463 1.01.09-.693.169-1.373.239-2.04.069-.668.142-1.301.219-1.899.139-.887.283-1.846.431-2.875l.483-3.058c.181-1.151.392-2.364.631-3.64a3.09 3.09 0 01.619-.49c.2-.117.39-.208.571-.275.203-.092.397-.149.583-.169.233-.025.447-.013.641.037.191.026.359.162.503.405.165.218.298.57.397 1.054.1.484.172 1.148.216 1.992.064 1.03-.001 2.169-.196 3.416a31.033 31.033 0 01-.815 3.907 44.32 44.32 0 01-1.363 4.072 37.971 37.971 0 01-1.735 3.9zm-2.013.677c.045-.453.079-.905.101-1.355.045-.453.101-.918.167-1.397l-.133.085a.392.392 0 01-.097.081c-.244.144-.418.163-.524.057-.109-.13-.178-.334-.208-.614a12.85 12.85 0 00-.114-.73 4.768 4.768 0 00-.331-1.096 2.711 2.711 0 00-.564-.965 1.01 1.01 0 00-.923-.36c-.536.058-1.053.397-1.552 1.017-.501.596-.954 1.317-1.358 2.162a12.989 12.989 0 00-.954 2.614c-.231.92-.332 1.733-.302 2.437.074 1.123.301 1.912.68 2.366.379.455.848.651 1.407.59.42-.045.857-.257 1.311-.636a8.62 8.62 0 001.339-1.347c.439-.519.83-1.044 1.173-1.576.367-.535.661-.98.882-1.333zm27.889-3.757a97.21 97.21 0 01-1.069 1.884 98.728 98.728 0 01-1.385 2.236 34.04 34.04 0 01-1.403 2.061c-.452.615-.841 1.057-1.165 1.328-.218.165-.473.31-.766.436a4.244 4.244 0 01-.925.277c-.3.056-.594.064-.881.025a1.862 1.862 0 01-.764-.2 1.846 1.846 0 01-.6-.643 7.09 7.09 0 01-.46-.976c-.138-.41-.23-.93-.275-1.561-.458.992-.997 1.781-1.618 2.367-.622.562-1.224.993-1.805 1.291a7.562 7.562 0 01-2.048.681c-.326.035-.688-.043-1.086-.236-.396-.17-.747-.473-1.054-.912-.309-.461-.539-1.061-.689-1.8-.153-.76-.159-1.68-.016-2.756.173-1.456.545-2.805 1.118-4.046.597-1.243 1.27-2.317 2.021-3.224.748-.93 1.507-1.648 2.277-2.155.771-.508 1.426-.767 1.967-.779.642.049 1.175.18 1.599.393.351.198.598.525.742.981.165.43.042 1.044-.366 1.843a8.37 8.37 0 01.789-.227 5.8 5.8 0 01.52-.091c.14-.015.234-.014.283.005.029.044.052.147.069.31.016.14.01.412-.017.816a62.24 62.24 0 01-.141 1.641 292.53 292.53 0 01-.276 2.682c-.024.215-.049.418-.075.61a5.467 5.467 0 01-.048.535c-.006.166-.02.368-.041.606l-.08.892c-.001.213.013.447.04.703.049.23.12.447.212.65.093.201.217.365.371.49.176.098.404.133.683.102.233-.025.521-.197.864-.517.34-.343.696-.76 1.067-1.247a46.98 46.98 0 001.131-1.643 56.1 56.1 0 001.119-1.747c.341-.556.641-1.048.901-1.477.284-.431.485-.748.605-.95.164-.229.337-.366.521-.41.182-.066.326-.034.435.095.108.13.142.339.103.626-.017.284-.144.628-.384 1.031zm-10.074 2.645c.066-.479.146-1.041.241-1.688s.17-1.268.223-1.863a20.99 20.99 0 00.09-1.46c.027-.403-.005-.588-.096-.555a3.268 3.268 0 00-.373.146c-.111.06-.259.11-.443.154a4.776 4.776 0 00-.548.166c.146-.393.218-.708.216-.943.019-.261.01-.46-.029-.598a.835.835 0 00-.181-.37c-.279-.181-.715.042-1.307.672-.571.604-1.197 1.685-1.877 3.244a9.226 9.226 0 00-.627 2.048 13.572 13.572 0 00-.246 1.971 7.657 7.657 0 00.139 1.612c.094.438.219.719.374.844.284.228.589.325.916.29.323-.059.639-.187.948-.386a5.68 5.68 0 00.938-.808c.319-.318.591-.642.814-.972.247-.333.438-.637.574-.91.158-.277.243-.475.254-.594zm18.076-9.485a3.94 3.94 0 01.817-.62c.288-.172.545-.294.773-.366.249-.097.503-.148.762-.153.634-.021 1.04.136 1.217.47.201.332.285.889.252 1.67-.027.404-.113.92-.257 1.548a90.53 90.53 0 00-.492 2.317c-.186.892-.382 1.915-.587 3.069a58.89 58.89 0 00-.466 3.87 167.555 167.555 0 00-.481 4.047l-.503 4.828a407.309 407.309 0 00-.539 6.459c-.054.595-.273.96-.659 1.096-.363.134-.764.13-1.204-.011a3.152 3.152 0 01-.488-.266 7.112 7.112 0 01-.43-.377 1.614 1.614 0 01-.414-.557c.324-2.015.597-3.848.819-5.499.246-1.653.468-3.091.665-4.315.201-1.412.394-2.683.578-3.81.064-.502.117-.991.16-1.468.063-.502.128-.992.194-1.47a15.18 15.18 0 01-.827 1.503 6.81 6.81 0 01-1.029 1.279 4.57 4.57 0 01-1.284.88 2.866 2.866 0 01-1.449.334c-1.276-.027-2.223-.396-2.843-1.107-.595-.714-.925-1.692-.989-2.934a10.976 10.976 0 01.036-1.63 29.34 29.34 0 01.203-1.72c.082-.55.158-1.042.229-1.474a21.2 21.2 0 01.213-.978c.184-.916.3-1.695.348-2.336.072-.644-.078-1.159-.45-1.543.304-.245.592-.417.864-.517.293-.127.553-.225.781-.297.254-.051.51-.079.769-.083.639.025 1.026.219 1.159.582.157.36.183.923.077 1.689a19.13 19.13 0 01-.288 1.587 221.42 221.42 0 01-.46 1.959 95.026 95.026 0 00-.433 1.886c-.128.556-.191.951-.189 1.187-.097 1.071-.02 1.888.229 2.45.247.54.685.775 1.314.707.303-.033.627-.197.973-.494a6.97 6.97 0 001.001-1.204c.348-.486.678-1.029.991-1.628a22.93 22.93 0 00.824-1.857c.263-.618.481-1.22.654-1.803a9.414 9.414 0 00.396-1.564c.07-.88.102-1.567.096-2.061-.007-.495-.218-.92-.633-1.275zm25.025-16.248a3.502 3.502 0 011.398-.151c.261.019.504.087.729.204l-3.184 20.252c-.042.264-.224.543-.546.837a5.34 5.34 0 01-1.05.75 3.77 3.77 0 01-.987.354c-.28.03-.409-.073-.388-.311.053-.383.164-1.315.334-2.795.072-.644.164-1.432.275-2.363.109-.955.233-2.1.371-3.435.162-1.337.348-2.89.557-4.657.207-1.79.446-3.832.717-6.124l.017-.497a1.096 1.096 0 00-.042-.384.576.576 0 00-.104-.307c.164-.23.355-.428.572-.593.216-.188.423-.34.623-.456.246-.12.482-.229.708-.324zm-2.831 24.175c.596-.16 1.092-.154 1.487.016.393.146.595.49.607 1.03.009.306-.087.61-.29.916-.205.281-.46.544-.763.79-.281.242-.589.44-.926.594a2.656 2.656 0 01-.855.27c-.489.053-.92-.007-1.292-.179-.373-.172-.561-.493-.564-.965a1.44 1.44 0 01.227-.837c.136-.274.321-.518.557-.733.26-.216.546-.4.86-.552.314-.152.631-.269.952-.35zm13.533-25.331a3.76 3.76 0 01.727-.15 3.41 3.41 0 01.671-.002c.262.02.505.087.729.205l-3.183 20.252c-.043.264-.225.543-.546.837a5.317 5.317 0 01-1.051.75 3.76 3.76 0 01-.987.354c-.28.03-.409-.074-.387-.312.053-.383.164-1.314.334-2.794.072-.644.163-1.432.275-2.364.109-.954.232-2.1.371-3.434.161-1.338.347-2.89.557-4.658.207-1.79.446-3.831.716-6.124l.017-.496a1.072 1.072 0 00-.041-.385c-.016-.14-.05-.242-.104-.307.163-.23.354-.427.572-.592.215-.189.423-.34.623-.457.246-.12.482-.228.707-.323zm-2.83 24.174c.596-.159 1.091-.153 1.487.016.393.146.595.49.606 1.03.01.306-.087.611-.29.916a4.177 4.177 0 01-.763.79c-.28.242-.589.44-.926.595a2.643 2.643 0 01-.855.269c-.489.053-.92-.007-1.292-.178-.372-.172-.56-.494-.564-.965a1.447 1.447 0 01.228-.838 2.44 2.44 0 01.557-.732c.259-.217.546-.4.86-.553a5.03 5.03 0 01.952-.35z" fill="#159741"/></svg>