<svg width="194" height="45" fill="none" xmlns="http://www.w3.org/2000/svg"><path d="M.942 42.153c-.281-.188-.422-.391-.422-.61a1.01 1.01 0 01.14-.656c.126-.25.313-.5.563-.75.25-.219.547-.781.89-1.688.344-.874.704-1.937 1.079-3.187a70.08 70.08 0 001.172-4.172c.406-1.5.78-2.969 1.125-4.406.343-1.438.64-2.766.89-3.985.25-1.218.438-2.187.563-2.906.156-.875.328-1.828.515-2.86.157-.905.329-1.952.516-3.14.188-1.218.36-2.562.516-4.031l3.75-1.688c.53-.25.906-.187 1.125.188.218.344.218 1.078 0 2.203-.094.563-.266 1.485-.516 2.766-.25 1.25-.547 2.64-.89 4.172-.313 1.5-.657 3.047-1.032 4.64a74.406 74.406 0 01-1.031 4.172L8.817 30.2c-.719 2.562-1.719 6.062-3 10.5.437.75 1.25 1.124 2.437 1.124 1.313 0 2.828-.5 4.547-1.5 1.75-1 3.438-2.5 5.063-4.5 1.625-2 3.046-4.5 4.265-7.5 1.25-3.03 2.031-6.562 2.344-10.593.156-2.188.047-4.11-.328-5.766-.375-1.656-.953-3.047-1.735-4.172-.75-1.125-1.687-1.969-2.812-2.531-1.094-.563-2.313-.844-3.656-.844-3.156 0-6.422 1.313-9.797 3.938l-.234-3.89c.812-.907 1.734-1.595 2.765-2.063 1.063-.5 2.047-.875 2.953-1.125a14.18 14.18 0 013.235-.47c2 0 3.921.391 5.765 1.173a12.33 12.33 0 014.828 3.468c1.375 1.563 2.422 3.532 3.141 5.907.719 2.344.969 5.094.75 8.25-.125 1.812-.5 3.703-1.125 5.672a32.168 32.168 0 01-2.39 5.718 32.551 32.551 0 01-3.47 5.344 26.709 26.709 0 01-4.406 4.406 19.747 19.747 0 01-5.109 3 14.576 14.576 0 01-5.625 1.125 9.17 9.17 0 01-1.922-.328c-.594-.156-1.265-.422-2.015-.797-.75-.375-1.532-.906-2.344-1.593zm53.822-15.797a37.52 37.52 0 01-3.188 4.031 30.46 30.46 0 01-3.797 3.469 20.399 20.399 0 01-4.078 2.437c-1.375.625-2.719.938-4.031.938-.688 0-1.438-.172-2.25-.516-.781-.312-1.5-.812-2.156-1.5-.657-.687-1.188-1.578-1.594-2.672-.375-1.093-.485-2.422-.328-3.984.125-1.281.515-2.625 1.172-4.031a19.531 19.531 0 012.484-3.938c1-1.187 2.11-2.172 3.328-2.953 1.25-.781 2.5-1.172 3.75-1.172 1.188 0 2.047.297 2.578.89.531.595.766 1.329.703 2.204a6.542 6.542 0 01-.843 2.672 10.165 10.165 0 01-1.594 2.203 15.518 15.518 0 01-2.016 1.781 52.098 52.098 0 01-1.969 1.453c-.687.469-1.343.922-1.968 1.36a35.65 35.65 0 00-1.64 1.125c.03.78.171 1.437.421 1.968.25.532.563.97.938 1.313a3.86 3.86 0 001.265.703c.5.125 1 .188 1.5.188 1.063 0 2.172-.329 3.328-.985a24.19 24.19 0 003.375-2.437 35.332 35.332 0 003.094-3 61.901 61.901 0 002.39-2.672c.22-.25.438-.39.657-.422.25-.063.437-.031.562.094.157.093.235.28.235.562 0 .25-.11.547-.328.89zm-12-7.219c-.375 0-.829.188-1.36.563-.5.375-1 .921-1.5 1.64-.5.688-.969 1.547-1.406 2.578-.438 1-.766 2.157-.984 3.469.375-.281.78-.563 1.218-.844.438-.312.875-.64 1.313-.984 1.344-1.031 2.281-1.938 2.812-2.719.532-.781.828-1.453.891-2.015.063-.594 0-1.016-.188-1.266a.903.903 0 00-.796-.422zm35.071 7.64c-.437.626-1 1.407-1.687 2.344a134.59 134.59 0 01-2.156 2.766 45.46 45.46 0 01-2.157 2.531c-.687.75-1.265 1.282-1.734 1.594a4.874 4.874 0 01-1.078.469 5.663 5.663 0 01-1.266.234 3.65 3.65 0 01-1.172-.094 2.49 2.49 0 01-.984-.375c-.281-.218-.516-.53-.703-.937a9.563 9.563 0 01-.469-1.36c-.125-.562-.172-1.265-.14-2.109-.75 1.25-1.578 2.219-2.485 2.906-.906.657-1.765 1.141-2.578 1.453-.937.344-1.875.547-2.812.61-.438 0-.907-.156-1.407-.469-.5-.281-.921-.734-1.265-1.36-.344-.655-.563-1.484-.656-2.484-.094-1.03.03-2.25.375-3.656.437-1.906 1.125-3.64 2.062-5.203.969-1.563 2.016-2.89 3.14-3.984 1.126-1.125 2.235-1.97 3.329-2.532 1.094-.562 2-.812 2.718-.75.844.157 1.532.407 2.063.75.438.313.719.782.844 1.407.156.593-.094 1.39-.75 2.39a11.45 11.45 0 011.078-.187c.312-.032.547-.047.703-.047.188 0 .313.015.375.047.031.062.047.203.047.422 0 .187-.047.547-.14 1.078-.095.531-.235 1.25-.423 2.156-.187.906-.437 2.078-.75 3.516a31.24 31.24 0 01-.187.797 7.001 7.001 0 01-.14.703 15.02 15.02 0 01-.141.797l-.235 1.171a8.53 8.53 0 00-.047.938c.032.312.094.61.188.89.094.282.234.516.422.704.218.156.515.234.89.234.313 0 .72-.188 1.22-.563a17.01 17.01 0 001.593-1.5 62.898 62.898 0 001.734-2.015 75.19 75.19 0 001.735-2.156c.53-.688 1-1.297 1.406-1.828.437-.532.75-.922.937-1.172.25-.282.5-.438.75-.47.25-.062.438 0 .563.188.125.188.14.47.047.844-.063.375-.282.813-.657 1.313zM64.102 28.84c.156-.625.344-1.36.563-2.203a44.87 44.87 0 00.562-2.438c.156-.78.266-1.421.328-1.921.094-.532.078-.782-.047-.75a4.321 4.321 0 00-.515.14 2.45 2.45 0 01-.61.14c-.25.032-.5.079-.75.142.25-.5.391-.907.422-1.22.063-.343.078-.609.047-.796a1.112 1.112 0 00-.187-.516c-.344-.281-.953-.047-1.828.703-.844.72-1.829 2.063-2.954 4.032a12.305 12.305 0 00-1.125 2.625 17.92 17.92 0 00-.609 2.578c-.094.812-.11 1.531-.047 2.156.063.594.188.984.375 1.172.344.344.735.516 1.172.516a3.478 3.478 0 001.313-.376c.468-.25.921-.562 1.359-.937a8.744 8.744 0 001.219-1.172 8.07 8.07 0 00.89-1.125c.25-.344.39-.594.422-.75zm11.213 7.031c-.22.344-.453.563-.703.657-.282.125-.516.14-.704.047-.218-.063-.359-.22-.421-.47-.063-.25 0-.562.187-.937.094-.187.313-.61.656-1.265a80.69 80.69 0 011.172-2.344c.438-.938.922-1.938 1.453-3a1287.37 1287.37 0 001.5-3.094c.5-.969.953-1.828 1.36-2.578.406-.781.703-1.344.89-1.688a23.98 23.98 0 01-.703-.656c-.125-.156-.219-.468-.281-.937-.063-.407.031-.938.281-1.594.25-.656.578-1.281.984-1.875a7.61 7.61 0 011.36-1.594c.5-.437.984-.656 1.453-.656.875 0 1.484.281 1.828.844.375.562.594 1.14.656 1.734.063.406.032.922-.093 1.547a4.501 4.501 0 01-.703 1.688c.093.062.218.14.374.234.157.062.407.094.75.094.5 0 .844-.032 1.032-.094.219-.063.547-.094.984-.094.531 0 .969.14 1.313.422.343.25.625.578.843.984.22.375.375.797.47 1.266.124.438.202.844.234 1.219.093.781-.11 1.593-.61 2.437a38.12 38.12 0 01-1.828 2.766 24.908 24.908 0 00-1.313 2.11c-.437.78-.624 1.484-.562 2.109.063.406.172.734.328.984.156.25.594.375 1.313.375.53 0 1.109-.188 1.734-.563a13.71 13.71 0 001.969-1.5 30.657 30.657 0 002.015-2.015 85.718 85.718 0 001.829-2.156 31.864 31.864 0 001.406-1.922 93.8 93.8 0 01.89-1.219c.157-.25.36-.422.61-.516.25-.093.469-.093.656 0 .188.094.297.282.328.563.063.281-.047.656-.328 1.125a37.01 37.01 0 01-.984 1.5 30.313 30.313 0 01-1.641 2.297 45.648 45.648 0 01-2.11 2.625 26.092 26.092 0 01-2.484 2.437 14.682 14.682 0 01-2.578 1.782c-.844.468-1.656.703-2.437.703-.813 0-1.485-.157-2.016-.47a4.63 4.63 0 01-1.313-1.124 5.474 5.474 0 01-.703-1.5 5.477 5.477 0 01-.14-1.547 4.25 4.25 0 01.281-1.172c.188-.437.39-.875.61-1.312.25-.47.5-.922.75-1.36a20.3 20.3 0 00.75-1.36 40.65 40.65 0 001.265-2.296c.344-.656.516-1.203.516-1.64 0-.282-.063-.532-.188-.75-.125-.22-.328-.329-.61-.329a1.42 1.42 0 00-.421.047h-.234a1.97 1.97 0 00-.329.047h-.609c-.406 0-.75-.063-1.031-.188a4.906 4.906 0 00-.797-.28 76.6 76.6 0 01-.844 1.405 997.61 997.61 0 01-1.547 2.532 130.52 130.52 0 01-1.828 3.047 402.387 402.387 0 01-1.781 3 76.903 76.903 0 00-1.406 2.343c-.407.625-.657 1-.75 1.125zm46.893-3.375c-2.093 0-3.625-.672-4.593-2.015-.938-1.344-1.328-3.157-1.172-5.438.125-1.406.39-3.203.797-5.39.343-1.875.859-4.235 1.547-7.078.718-2.844 1.687-6.282 2.906-10.313.375-.25.75-.438 1.125-.563a6.732 6.732 0 011.078-.328 5.978 5.978 0 011.078-.187 8.07 8.07 0 01.891-.047c.25 0 .5.031.75.094.25.031.453.11.609.234-1.594 4.094-2.844 7.594-3.75 10.5-.875 2.906-1.531 5.297-1.969 7.172-.531 2.188-.859 3.984-.984 5.39-.094 1.72.156 2.938.75 3.657.625.719 1.547 1.078 2.766 1.078.968 0 1.953-.36 2.953-1.078 1-.75 1.968-1.797 2.906-3.14.937-1.376 1.797-3.016 2.578-4.923.813-1.937 1.5-4.109 2.063-6.515.25-1.344.531-2.688.843-4.032.25-1.156.532-2.39.844-3.703.313-1.343.609-2.593.891-3.75.281-.25.578-.437.89-.562.344-.156.657-.281.938-.375a4.092 4.092 0 011.031-.235 4.9 4.9 0 01.938 0c.25.032.5.079.75.141.281.063.5.172.656.328-.531 1.656-1 3.156-1.406 4.5-.375 1.344-.704 2.5-.985 3.469-.344 1.125-.64 2.125-.89 3-.25.938-.547 2.156-.891 3.656a466.812 466.812 0 00-1.266 4.969c-.5 2-1.109 4.469-1.828 7.406l-.703 2.813a30.18 30.18 0 01-1.125 3.515 22.09 22.09 0 01-1.687 3.61 13.387 13.387 0 01-2.485 3.281c-.969.969-2.125 1.75-3.469 2.344-1.343.593-2.906.89-4.687.89-1.031-.03-1.953-.187-2.766-.468a6.783 6.783 0 01-2.015-1.125c-.594-.47-.938-1.157-1.032-2.063.157-.344.329-.656.516-.937.188-.282.375-.547.563-.797.218-.282.437-.547.656-.797.219-.219.453-.422.703-.61a5.27 5.27 0 01.703-.421c.25-.125.5-.188.75-.188.125.281.313.61.563.984.25.376.562.72.937 1.032a4.97 4.97 0 001.266.843 3.61 3.61 0 001.547.329c.75 0 1.546-.25 2.39-.75.844-.47 1.672-1.297 2.485-2.485.843-1.156 1.656-2.734 2.437-4.734.781-2 1.516-4.516 2.203-7.547-.406.719-.922 1.5-1.547 2.344a14.622 14.622 0 01-2.25 2.39c-.843.75-1.843 1.375-3 1.875-1.125.5-2.39.75-3.797.75zm34.463-3.843a16.284 16.284 0 01-1.266 3.328 10.616 10.616 0 01-1.922 2.672 7.58 7.58 0 01-2.484 1.734c-.906.438-1.906.656-3 .656-1.281 0-2.297-.281-3.047-.843a5.15 5.15 0 01-1.64-2.016 8.163 8.163 0 01-.61-2.672 28.232 28.232 0 01-.14-2.719c0-.593.078-1.25.234-1.968a15.21 15.21 0 01.562-2.204c.25-.75.563-1.5.938-2.25.406-.75.875-1.437 1.406-2.062.188-.531.469-1 .844-1.406a5.199 5.199 0 011.359-.985 6.423 6.423 0 011.688-.61 6.805 6.805 0 011.734-.233.53.53 0 01.235.046l.281.094c.406.031.906.188 1.5.469.625.281 1.219.703 1.781 1.265.594.563 1.094 1.282 1.5 2.157.406.843.609 1.875.609 3.093 0 .25-.015.563-.046.938-.032.344-.063.64-.094.89a23.25 23.25 0 002.25-1.03 38.521 38.521 0 002.25-1.266c.75-.469 1.437-.938 2.062-1.407.625-.468 1.125-.89 1.5-1.265.313-.281.578-.438.797-.469.219-.031.375.031.469.188.094.156.109.375.047.656-.063.281-.235.594-.516.937-.156.188-.562.563-1.219 1.125a32.891 32.891 0 01-2.25 1.829 35.031 35.031 0 01-2.859 1.921c-1.031.625-2.016 1.094-2.953 1.407zm-7.922-7.125a2.79 2.79 0 00-.141.89c0 .5.032 1.032.094 1.594.063.531.219 1.016.469 1.453.25.438.641.813 1.172 1.125.562.281 1.328.422 2.297.422h.468l.469-.094c.094-.406.172-.765.235-1.078.093-.344.14-.64.14-.89a8.864 8.864 0 000-1.829 6.653 6.653 0 00-.375-1.687c-.156-.531-.375-.953-.656-1.266-.25-.343-.563-.515-.938-.515-.593 0-1.171.172-1.734.515-.531.313-1.031.766-1.5 1.36zm-3 8.25c0 .562.031 1.125.094 1.687.062.531.187 1.016.375 1.453.187.407.437.75.75 1.032.312.25.719.374 1.219.374a3.23 3.23 0 001.546-.374 5.716 5.716 0 001.266-1.032c.375-.437.703-.922.984-1.453.313-.562.579-1.14.797-1.734l-.656.093h-.656c-1.188 0-2.219-.343-3.094-1.03-.844-.72-1.5-1.626-1.969-2.72a24.675 24.675 0 00-.468 1.922 9.096 9.096 0 00-.188 1.782zm24.15 7.078c-1.187 0-2.156-.188-2.906-.563-.75-.375-1.344-.828-1.781-1.36a5.924 5.924 0 01-.891-1.78 7.773 7.773 0 01-.234-1.782c0-.937.078-1.921.234-2.953a30.26 30.26 0 01.562-2.906c.219-.906.407-1.672.563-2.297.187-.625.312-1.015.375-1.172.281-.906.641-1.687 1.078-2.343a3.503 3.503 0 011.922-1.407c.312-.062.641-.125.984-.187.282-.032.563-.047.844-.047.313 0 .594.047.844.14a155.053 155.053 0 00-2.016 5.391 82.921 82.921 0 00-1.078 3.516c-.281 1.031-.453 1.86-.516 2.484-.156 1.406-.031 2.469.375 3.188.407.718 1.235 1.078 2.485 1.078.812 0 1.594-.297 2.344-.89.75-.626 1.437-1.423 2.062-2.392a8.356 8.356 0 01-.141-1.546c0-1 .079-1.97.235-2.907.187-.968.39-1.859.609-2.671.25-.844.5-1.594.75-2.25.281-.657.516-1.172.703-1.547.344-.75.657-1.203.938-1.36.281-.187.734-.297 1.359-.328.25-.031.453-.031.61 0 .187 0 .343.016.468.047.375.094.563.281.563.563 0 .5-.031 1.25-.094 2.25-.062 1-.25 2.03-.562 3.093a25.994 25.994 0 01-.657 2.25c-.187.594-.375 1.11-.562 1.547-.188.406-.375.75-.563 1.031-.187.25-.359.485-.515.704.062.937.14 1.687.234 2.25.094.562.203 1 .328 1.312.156.281.328.484.516.61.219.093.453.14.703.14.437 0 .953-.203 1.547-.61a16.199 16.199 0 001.828-1.593 31.54 31.54 0 001.922-2.11 69.852 69.852 0 001.781-2.203c.531-.687.984-1.28 1.359-1.78.375-.532.61-.86.704-.985.218-.282.421-.453.609-.516.219-.062.391-.031.516.094.125.094.187.265.187.515.031.22-.031.47-.187.75-.625 1.188-1.407 2.454-2.344 3.797a30.828 30.828 0 01-2.953 3.657c-1.032 1.125-2.078 2.062-3.141 2.812-1.062.75-2.062 1.125-3 1.125-.844 0-1.516-.281-2.016-.844-.468-.593-.875-1.437-1.218-2.53-.719 1.124-1.563 2-2.532 2.624-.968.594-2.046.89-3.234.89zm21.478-4.313c.813-.125 1.453-.047 1.922.235.5.25.719.734.656 1.453-.031.406-.203.797-.515 1.172a4.593 4.593 0 01-1.078.937c-.407.281-.844.5-1.313.656-.469.157-.875.235-1.219.235-.625 0-1.172-.14-1.64-.422-.5-.281-.719-.734-.657-1.36a1.93 1.93 0 01.422-1.078c.219-.343.516-.64.891-.89a4.62 4.62 0 011.172-.61 7.805 7.805 0 011.359-.328z" fill="#333"/></svg>