<svg width="68" height="68" fill="none" xmlns="http://www.w3.org/2000/svg"><circle cx="33.9" cy="33.9" r="32.9" stroke="#2F2F2F" stroke-width="2"/><g clip-path="url(#clip0)"><path d="M34.983 16.375c1.95-.03 3.884-.015 5.82-.03.118 2.277.937 4.598 2.603 6.206 1.667 1.651 4.018 2.41 6.31 2.663v5.998c-2.143-.075-4.3-.521-6.25-1.444-.848-.387-1.637-.878-2.41-1.384-.016 4.346.014 8.691-.03 13.022-.12 2.083-.804 4.152-2.01 5.863-1.95 2.857-5.327 4.718-8.795 4.777-2.128.12-4.256-.461-6.072-1.533-3.006-1.77-5.119-5.015-5.431-8.497a27.65 27.65 0 01-.015-2.218c.268-2.827 1.666-5.536 3.84-7.38 2.47-2.144 5.922-3.17 9.152-2.56.03 2.202-.06 4.404-.06 6.607-1.473-.476-3.2-.342-4.494.55a5.168 5.168 0 00-2.024 2.605c-.313.759-.224 1.592-.209 2.396.358 2.44 2.709 4.494 5.209 4.27 1.667-.014 3.26-.981 4.122-2.395.283-.491.596-.997.61-1.578.15-2.663.09-5.312.105-7.976.014-5.998-.015-11.98.03-17.962z" fill="#2F2F2F"/></g><defs><clipPath id="clip0"><path fill="#fff" transform="translate(16.344 16.345)" d="M0 0h35.716v35.716H0z"/></clipPath></defs></svg>