<svg width="68" height="68" fill="none" xmlns="http://www.w3.org/2000/svg"><circle cx="33.9" cy="33.9" r="33.9" fill="#2F2F2F"/><path d="M56.146 21.1c-1.592.686-3.324 1.18-5.108 1.373a8.85 8.85 0 003.902-4.89 17.515 17.515 0 01-5.63 2.143 8.85 8.85 0 00-6.482-2.804c-4.916 0-8.87 3.985-8.87 8.875 0 .687.084 1.373.22 2.034a25.21 25.21 0 01-18.292-9.286 8.808 8.808 0 00-1.207 4.48 8.876 8.876 0 003.954 7.392 8.948 8.948 0 01-4.011-1.13v.11a8.873 8.873 0 007.111 8.709 9.39 9.39 0 01-2.336.301c-.577 0-1.123-.057-1.675-.135a8.887 8.887 0 008.293 6.154A17.78 17.78 0 0115 48.22c-.743 0-1.43-.026-2.143-.11a25.12 25.12 0 0013.625 3.98c16.314 0 25.241-13.515 25.241-25.246 0-.385 0-.77-.026-1.155a19.104 19.104 0 004.448-4.589z" fill="#fff"/></svg>