<svg width="70" height="70" viewBox="0 0 70 70" fill="none" xmlns="http://www.w3.org/2000/svg">
<circle cx="35" cy="35" r="34" fill="white" stroke="#333333" stroke-width="2"/>
<path d="M11.816 50H13.232V46.256H16.952C18.464 46.256 19.472 45.128 19.472 43.76C19.472 42.392 18.464 41.264 16.952 41.264H11.816V50ZM13.232 45.008V42.512H16.808C17.552 42.512 18.056 43.016 18.056 43.76C18.056 44.504 17.552 45.008 16.808 45.008H13.232ZM22.0263 50.12C22.6503 50.12 23.2023 49.904 23.5143 49.568V50H24.8343V47.504C24.8343 45.944 23.7063 44.888 22.1463 44.888C20.7063 44.888 19.4583 46.064 19.4583 47.504C19.4583 49.064 20.5143 50.12 22.0263 50.12ZM22.1463 48.872C21.3783 48.872 20.8023 48.272 20.8023 47.504C20.8023 46.712 21.3783 46.136 22.1463 46.136C22.9383 46.136 23.4903 46.712 23.4903 47.504C23.4903 48.272 22.9383 48.872 22.1463 48.872ZM29.0839 52.616C30.5239 52.616 31.7719 51.56 31.7719 50V47.504C31.7719 45.944 30.6439 44.888 29.0839 44.888C27.6439 44.888 26.3959 46.064 26.3959 47.504C26.3959 49.064 27.4519 50.12 28.9639 50.12C29.5879 50.12 30.1639 49.904 30.4519 49.568V50C30.4519 50.816 29.8999 51.44 29.0839 51.44C28.2679 51.44 27.7159 50.864 27.7159 50.048H26.4439C26.4439 51.632 27.4999 52.616 29.0839 52.616ZM29.0839 48.872C28.3159 48.872 27.7399 48.272 27.7399 47.504C27.7399 46.712 28.3159 46.136 29.0839 46.136C29.8759 46.136 30.4279 46.712 30.4279 47.504C30.4279 48.272 29.8759 48.872 29.0839 48.872ZM35.8858 50.12C36.6058 50.12 37.2538 49.832 37.7338 49.352L36.9178 48.512C36.5578 48.848 36.3178 48.968 35.8858 48.968C35.2138 48.968 34.6858 48.56 34.5178 47.96H38.5738V47.504C38.4778 45.872 37.4458 44.888 35.8858 44.888C34.4458 44.888 33.1978 46.064 33.1978 47.504C33.1978 49.064 34.3258 50.12 35.8858 50.12ZM34.5418 46.928C34.7338 46.376 35.2138 45.968 35.8858 45.968C36.5818 45.968 37.0618 46.352 37.2538 46.928H34.5418ZM44.3504 50H45.6944V46.256H46.3664V45.008H45.6944V41.264H44.3504V45.008H43.6784V46.256H44.3504V50ZM50.3252 50.12C51.7652 50.12 53.0132 48.944 53.0132 47.504C53.0132 45.944 51.8852 44.888 50.3252 44.888C48.8852 44.888 47.6372 46.064 47.6372 47.504C47.6372 49.064 48.7652 50.12 50.3252 50.12ZM50.3252 48.872C49.5572 48.872 48.9812 48.272 48.9812 47.504C48.9812 46.712 49.5572 46.136 50.3252 46.136C51.1172 46.136 51.6692 46.712 51.6692 47.504C51.6692 48.272 51.1172 48.872 50.3252 48.872ZM54.4364 52.496H55.7804V49.688C56.2124 50 56.6924 50.12 57.1964 50.12C58.6124 50.12 59.8124 48.944 59.8124 47.504C59.8124 45.944 58.6844 44.888 57.1244 44.888C55.6844 44.888 54.4364 46.064 54.4364 47.504V52.496ZM57.1244 48.872C56.3564 48.872 55.7804 48.272 55.7804 47.504C55.7804 46.712 56.3564 46.136 57.1244 46.136C57.9164 46.136 58.4684 46.712 58.4684 47.504C58.4684 48.272 57.9164 48.872 57.1244 48.872Z" fill="#333333"/>
<path d="M32.4019 16.5C33.5566 14.5 36.4434 14.5 37.5981 16.5L46.2583 31.5C47.413 33.5 45.9697 36 43.6603 36H26.3397C24.0303 36 22.587 33.5 23.7417 31.5L32.4019 16.5Z" fill="#333333"/>
</svg>
