<svg width="194" height="45" viewBox="0 0 194 45" fill="none" xmlns="http://www.w3.org/2000/svg">
<path d="M0.941772 42.1526C0.660522 41.9651 0.519897 41.762 0.519897 41.5432C0.488647 41.3245 0.535522 41.1057 0.660522 40.887C0.785522 40.637 0.973022 40.387 1.22302 40.137C1.47302 39.9182 1.7699 39.3557 2.11365 38.4495C2.4574 37.5745 2.81677 36.512 3.19177 35.262C3.59802 33.9807 3.98865 32.5901 4.36365 31.0901C4.7699 29.5901 5.1449 28.1213 5.48865 26.6838C5.8324 25.2463 6.12927 23.9182 6.37927 22.6995C6.62927 21.4807 6.81677 20.512 6.94177 19.7932C7.09802 18.9182 7.2699 17.9651 7.4574 16.9338C7.61365 16.0276 7.78552 14.9807 7.97302 13.7932C8.16052 12.5745 8.3324 11.2307 8.48865 9.76196L12.2386 8.07446C12.7699 7.82446 13.1449 7.88696 13.3636 8.26196C13.5824 8.60571 13.5824 9.34009 13.3636 10.4651C13.2699 11.0276 13.098 11.9495 12.848 13.2307C12.598 14.4807 12.3011 15.8713 11.9574 17.4026C11.6449 18.9026 11.3011 20.4495 10.9261 22.0432C10.5824 23.6057 10.2386 24.9963 9.8949 26.2151C9.5824 27.3713 9.22302 28.6995 8.81677 30.1995C8.09802 32.762 7.09802 36.262 5.81677 40.6995C6.25427 41.4495 7.06677 41.8245 8.25427 41.8245C9.56677 41.8245 11.0824 41.3245 12.8011 40.3245C14.5511 39.3245 16.2386 37.8245 17.8636 35.8245C19.4886 33.8245 20.9105 31.3245 22.1293 28.3245C23.3793 25.2932 24.1605 21.762 24.473 17.7307C24.6293 15.5432 24.5199 13.6213 24.1449 11.9651C23.7699 10.3088 23.1918 8.91821 22.4105 7.79321C21.6605 6.66821 20.723 5.82446 19.598 5.26196C18.5043 4.69946 17.2855 4.41821 15.9418 4.41821C12.7855 4.41821 9.5199 5.73071 6.1449 8.35571L5.91052 4.46509C6.72302 3.55884 7.6449 2.87134 8.67615 2.40259C9.73865 1.90259 10.723 1.52759 11.6293 1.27759C12.6918 0.996338 13.7699 0.840088 14.8636 0.808838C16.8636 0.808838 18.7855 1.19946 20.6293 1.98071C22.5043 2.73071 24.1136 3.88696 25.4574 5.44946C26.8324 7.01196 27.8793 8.98071 28.598 11.3557C29.3168 13.6995 29.5668 16.4495 29.348 19.6057C29.223 21.4182 28.848 23.3088 28.223 25.2776C27.6293 27.2151 26.8324 29.1213 25.8324 30.9963C24.8636 32.8713 23.7074 34.6526 22.3636 36.3401C21.0199 38.0276 19.5511 39.4963 17.9574 40.7463C16.3636 42.0276 14.6605 43.0276 12.848 43.7463C11.0355 44.4963 9.16052 44.8713 7.22302 44.8713C6.62927 44.8401 5.98865 44.7307 5.30115 44.5432C4.7074 44.387 4.03552 44.1213 3.28552 43.7463C2.53552 43.3713 1.75427 42.8401 0.941772 42.1526ZM54.7636 26.3557C53.8261 27.7307 52.7636 29.0745 51.5761 30.387C50.3886 31.6682 49.123 32.8245 47.7793 33.8557C46.4668 34.8557 45.1074 35.6682 43.7011 36.2932C42.3261 36.9182 40.9824 37.2307 39.6699 37.2307C38.9824 37.2307 38.2324 37.0588 37.4199 36.7151C36.6386 36.4026 35.9199 35.9026 35.2636 35.2151C34.6074 34.5276 34.0761 33.637 33.6699 32.5432C33.2949 31.4495 33.1855 30.1213 33.3418 28.5588C33.4668 27.2776 33.8574 25.9338 34.5136 24.5276C35.2011 23.0901 36.0293 21.7776 36.998 20.5901C37.998 19.4026 39.1074 18.4182 40.3261 17.637C41.5761 16.8557 42.8261 16.4651 44.0761 16.4651C45.2636 16.4651 46.123 16.762 46.6543 17.3557C47.1855 17.9495 47.4199 18.6838 47.3574 19.5588C47.2636 20.5276 46.9824 21.4182 46.5136 22.2307C46.0761 23.0432 45.5449 23.7776 44.9199 24.4338C44.2949 25.0901 43.623 25.6838 42.9043 26.2151C42.2168 26.7463 41.5605 27.2307 40.9355 27.6682C40.248 28.137 39.5918 28.5901 38.9668 29.0276C38.3418 29.4338 37.7949 29.8088 37.3261 30.1526C37.3574 30.9338 37.498 31.5901 37.748 32.1213C37.998 32.6526 38.3105 33.0901 38.6855 33.4338C39.0605 33.7463 39.4824 33.9807 39.9511 34.137C40.4511 34.262 40.9511 34.3245 41.4511 34.3245C42.5136 34.3245 43.623 33.9963 44.7793 33.3401C45.9355 32.6526 47.0605 31.8401 48.1543 30.9026C49.2793 29.9338 50.3105 28.9338 51.248 27.9026C52.2168 26.8713 53.0136 25.9807 53.6386 25.2307C53.8574 24.9807 54.0761 24.8401 54.2949 24.8088C54.5449 24.7463 54.7324 24.7776 54.8574 24.9026C55.0136 24.9963 55.0918 25.1838 55.0918 25.4651C55.0918 25.7151 54.9824 26.012 54.7636 26.3557ZM42.7636 19.137C42.3886 19.137 41.9355 19.3245 41.4043 19.6995C40.9043 20.0745 40.4043 20.6213 39.9043 21.3401C39.4043 22.0276 38.9355 22.887 38.498 23.9182C38.0605 24.9182 37.7324 26.0745 37.5136 27.387C37.8886 27.1057 38.2949 26.8245 38.7324 26.5432C39.1699 26.2307 39.6074 25.9026 40.0449 25.5588C41.3886 24.5276 42.3261 23.6213 42.8574 22.8401C43.3886 22.0588 43.6855 21.387 43.748 20.8245C43.8105 20.2307 43.748 19.8088 43.5605 19.5588C43.373 19.2776 43.1074 19.137 42.7636 19.137ZM77.8355 26.7776C77.398 27.4026 76.8355 28.1838 76.148 29.1213C75.4605 30.0276 74.7418 30.9495 73.9918 31.887C73.273 32.7932 72.5543 33.637 71.8355 34.4182C71.148 35.1682 70.5699 35.6995 70.1011 36.012C69.7886 36.1995 69.4293 36.3557 69.023 36.4807C68.6168 36.6057 68.1949 36.6838 67.7574 36.7151C67.3511 36.7463 66.9605 36.7151 66.5855 36.6213C66.2105 36.5588 65.8824 36.4338 65.6011 36.2463C65.3199 36.0276 65.0855 35.7151 64.898 35.3088C64.7418 34.9651 64.5855 34.512 64.4293 33.9495C64.3043 33.387 64.2574 32.6838 64.2886 31.8401C63.5386 33.0901 62.7105 34.0588 61.8043 34.7463C60.898 35.4026 60.0386 35.887 59.2261 36.1995C58.2886 36.5432 57.3511 36.7463 56.4136 36.8088C55.9761 36.8088 55.5074 36.6526 55.0074 36.3401C54.5074 36.0588 54.0855 35.6057 53.7418 34.9807C53.398 34.3245 53.1793 33.4963 53.0855 32.4963C52.9918 31.4651 53.1168 30.2463 53.4605 28.8401C53.898 26.9338 54.5855 25.1995 55.523 23.637C56.4918 22.0745 57.5386 20.7463 58.6636 19.6526C59.7886 18.5276 60.898 17.6838 61.9918 17.1213C63.0855 16.5588 63.9918 16.3088 64.7105 16.3713C65.5543 16.5276 66.2418 16.7776 66.773 17.1213C67.2105 17.4338 67.4918 17.9026 67.6168 18.5276C67.773 19.1213 67.523 19.9182 66.8668 20.9182C67.3043 20.8245 67.6636 20.762 67.9449 20.7307C68.2574 20.6995 68.4918 20.6838 68.648 20.6838C68.8355 20.6838 68.9605 20.6995 69.023 20.7307C69.0543 20.7932 69.0699 20.9338 69.0699 21.1526C69.0699 21.3401 69.023 21.6995 68.9293 22.2307C68.8355 22.762 68.6949 23.4807 68.5074 24.387C68.3199 25.2932 68.0699 26.4651 67.7574 27.9026C67.6949 28.1838 67.6324 28.4495 67.5699 28.6995C67.5386 28.9182 67.4918 29.1526 67.4293 29.4026C67.398 29.6213 67.3511 29.887 67.2886 30.1995C67.2261 30.512 67.148 30.9026 67.0543 31.3713C67.023 31.6526 67.0074 31.9651 67.0074 32.3088C67.0386 32.6213 67.1011 32.9182 67.1949 33.1995C67.2886 33.4807 67.4293 33.7151 67.6168 33.9026C67.8355 34.0588 68.1324 34.137 68.5074 34.137C68.8199 34.137 69.2261 33.9495 69.7261 33.5745C70.2261 33.1682 70.7574 32.6682 71.3199 32.0745C71.8824 31.4495 72.4605 30.7776 73.0543 30.0588C73.6793 29.3088 74.2574 28.5901 74.7886 27.9026C75.3199 27.2151 75.7886 26.6057 76.1949 26.0745C76.6324 25.5432 76.9449 25.1526 77.1324 24.9026C77.3824 24.6213 77.6324 24.4651 77.8824 24.4338C78.1324 24.3713 78.3199 24.4338 78.4449 24.6213C78.5699 24.8088 78.5855 25.0901 78.4918 25.4651C78.4293 25.8401 78.2105 26.2776 77.8355 26.7776ZM64.1011 28.8401C64.2574 28.2151 64.4449 27.4807 64.6636 26.637C64.8824 25.7932 65.0699 24.9807 65.2261 24.1995C65.3824 23.4182 65.4918 22.7776 65.5543 22.2776C65.648 21.7463 65.6324 21.4963 65.5074 21.5276C65.3511 21.5588 65.1793 21.6057 64.9918 21.6682C64.8355 21.7307 64.6324 21.7776 64.3824 21.8088C64.1324 21.8401 63.8824 21.887 63.6324 21.9495C63.8824 21.4495 64.023 21.0432 64.0543 20.7307C64.1168 20.387 64.1324 20.1213 64.1011 19.9338C64.0699 19.7151 64.0074 19.5432 63.9136 19.4182C63.5699 19.137 62.9605 19.3713 62.0855 20.1213C61.2418 20.8401 60.2574 22.1838 59.1324 24.1526C58.6636 24.9651 58.2886 25.8401 58.0074 26.7776C57.7261 27.6838 57.523 28.5432 57.398 29.3557C57.3043 30.1682 57.2886 30.887 57.3511 31.512C57.4136 32.1057 57.5386 32.4963 57.7261 32.6838C58.0699 33.0276 58.4605 33.1995 58.898 33.1995C59.3355 33.1682 59.773 33.0432 60.2105 32.8245C60.6793 32.5745 61.1324 32.262 61.5699 31.887C62.0386 31.512 62.4449 31.1213 62.7886 30.7151C63.1636 30.3088 63.4605 29.9338 63.6793 29.5901C63.9293 29.2463 64.0699 28.9963 64.1011 28.8401ZM75.3136 35.8713C75.0949 36.2151 74.8605 36.4338 74.6105 36.5276C74.3293 36.6526 74.0949 36.6682 73.9074 36.5745C73.6886 36.512 73.548 36.3557 73.4855 36.1057C73.423 35.8557 73.4855 35.5432 73.673 35.1682C73.7668 34.9807 73.9855 34.5588 74.3293 33.9026C74.6418 33.2463 75.0324 32.4651 75.5011 31.5588C75.9386 30.6213 76.423 29.6213 76.9543 28.5588C77.4855 27.4651 77.9855 26.4338 78.4543 25.4651C78.9543 24.4963 79.4074 23.637 79.8136 22.887C80.2199 22.1057 80.5168 21.5432 80.7043 21.1995C80.3605 20.887 80.1261 20.6682 80.0011 20.5432C79.8761 20.387 79.7824 20.0745 79.7199 19.6057C79.6574 19.1995 79.7511 18.6682 80.0011 18.012C80.2511 17.3557 80.5793 16.7307 80.9855 16.137C81.3918 15.512 81.8449 14.9807 82.3449 14.5432C82.8449 14.1057 83.3293 13.887 83.798 13.887C84.673 13.887 85.2824 14.1682 85.6261 14.7307C86.0011 15.2932 86.2199 15.8713 86.2824 16.4651C86.3449 16.8713 86.3136 17.387 86.1886 18.012C86.0636 18.637 85.8293 19.1995 85.4855 19.6995C85.5793 19.762 85.7043 19.8401 85.8605 19.9338C86.0168 19.9963 86.2668 20.0276 86.6105 20.0276C87.1105 20.0276 87.4543 19.9963 87.6418 19.9338C87.8605 19.8713 88.1886 19.8401 88.6261 19.8401C89.1574 19.8401 89.5949 19.9807 89.9386 20.262C90.2824 20.512 90.5636 20.8401 90.7824 21.2463C91.0011 21.6213 91.1574 22.0432 91.2511 22.512C91.3761 22.9495 91.4543 23.3557 91.4855 23.7307C91.5793 24.512 91.3761 25.3245 90.8761 26.1682C90.3761 27.012 89.7668 27.9338 89.048 28.9338C88.6105 29.5588 88.173 30.262 87.7355 31.0432C87.298 31.8245 87.1105 32.5276 87.173 33.1526C87.2355 33.5588 87.3449 33.887 87.5011 34.137C87.6574 34.387 88.0949 34.512 88.8136 34.512C89.3449 34.512 89.923 34.3245 90.548 33.9495C91.2043 33.5432 91.8605 33.0432 92.5168 32.4495C93.2043 31.8245 93.8761 31.1526 94.5324 30.4338C95.1886 29.6838 95.798 28.9651 96.3605 28.2776C96.923 27.5588 97.3918 26.9182 97.7668 26.3557C98.173 25.7932 98.4699 25.387 98.6574 25.137C98.8136 24.887 99.0168 24.7151 99.2668 24.6213C99.5168 24.5276 99.7355 24.5276 99.923 24.6213C100.111 24.7151 100.22 24.9026 100.251 25.1838C100.314 25.4651 100.204 25.8401 99.923 26.3088C99.7355 26.6213 99.4074 27.1213 98.9386 27.8088C98.5011 28.4963 97.9543 29.262 97.298 30.1057C96.673 30.9495 95.9699 31.8245 95.1886 32.7307C94.4074 33.6057 93.5793 34.4182 92.7043 35.1682C91.8605 35.887 91.0011 36.4807 90.1261 36.9495C89.2824 37.4182 88.4699 37.6526 87.6886 37.6526C86.8761 37.6526 86.2043 37.4963 85.673 37.1838C85.1418 36.8713 84.7043 36.4963 84.3605 36.0588C84.048 35.5901 83.8136 35.0901 83.6574 34.5588C83.5324 33.9963 83.4855 33.4807 83.5168 33.012C83.548 32.637 83.6418 32.2463 83.798 31.8401C83.9855 31.4026 84.1886 30.9651 84.4074 30.5276C84.6574 30.0588 84.9074 29.6057 85.1574 29.1682C85.4386 28.6995 85.6886 28.2463 85.9074 27.8088C86.4386 26.9026 86.8605 26.137 87.173 25.512C87.5168 24.8557 87.6886 24.3088 87.6886 23.8713C87.6886 23.5901 87.6261 23.3401 87.5011 23.1213C87.3761 22.9026 87.173 22.7932 86.8918 22.7932C86.7043 22.7932 86.5636 22.8088 86.4699 22.8401C86.4074 22.8401 86.3293 22.8401 86.2355 22.8401C86.173 22.8401 86.0636 22.8557 85.9074 22.887C85.7824 22.887 85.5793 22.887 85.298 22.887C84.8918 22.887 84.548 22.8245 84.2668 22.6995C83.9855 22.5745 83.7199 22.4807 83.4699 22.4182C83.3449 22.637 83.0636 23.1057 82.6261 23.8245C82.1886 24.5432 81.673 25.387 81.0793 26.3557C80.5168 27.3245 79.9074 28.3401 79.2511 29.4026C78.6261 30.4651 78.0324 31.4651 77.4699 32.4026C76.9074 33.3088 76.4386 34.0901 76.0636 34.7463C75.6574 35.3713 75.4074 35.7463 75.3136 35.8713ZM122.207 32.4963C120.114 32.4963 118.582 31.8245 117.614 30.4807C116.676 29.137 116.286 27.3245 116.442 25.0432C116.567 23.637 116.832 21.8401 117.239 19.6526C117.582 17.7776 118.098 15.4182 118.786 12.5745C119.504 9.73071 120.473 6.29321 121.692 2.26196C122.067 2.01196 122.442 1.82446 122.817 1.69946C123.223 1.54321 123.582 1.43384 123.895 1.37134C124.239 1.27759 124.598 1.21509 124.973 1.18384C125.254 1.15259 125.551 1.13696 125.864 1.13696C126.114 1.13696 126.364 1.16821 126.614 1.23071C126.864 1.26196 127.067 1.34009 127.223 1.46509C125.629 5.55884 124.379 9.05884 123.473 11.9651C122.598 14.8713 121.942 17.262 121.504 19.137C120.973 21.3245 120.645 23.1213 120.52 24.5276C120.426 26.2463 120.676 27.4651 121.27 28.1838C121.895 28.9026 122.817 29.262 124.036 29.262C125.004 29.262 125.989 28.9026 126.989 28.1838C127.989 27.4338 128.957 26.387 129.895 25.0432C130.832 23.6682 131.692 22.0276 132.473 20.1213C133.286 18.1838 133.973 16.012 134.536 13.6057C134.786 12.262 135.067 10.9182 135.379 9.57446C135.629 8.41821 135.911 7.18384 136.223 5.87134C136.536 4.52759 136.832 3.27759 137.114 2.12134C137.395 1.87134 137.692 1.68384 138.004 1.55884C138.348 1.40259 138.661 1.27759 138.942 1.18384C139.286 1.05884 139.629 0.980713 139.973 0.949463C140.286 0.918213 140.598 0.918213 140.911 0.949463C141.161 0.980713 141.411 1.02759 141.661 1.09009C141.942 1.15259 142.161 1.26196 142.317 1.41821C141.786 3.07446 141.317 4.57446 140.911 5.91821C140.536 7.26196 140.207 8.41821 139.926 9.38696C139.582 10.512 139.286 11.512 139.036 12.387C138.786 13.3245 138.489 14.5432 138.145 16.0432C137.801 17.3557 137.379 19.012 136.879 21.012C136.379 23.012 135.77 25.4807 135.051 28.4182C134.864 29.1682 134.629 30.1057 134.348 31.2307C134.067 32.3557 133.692 33.5276 133.223 34.7463C132.786 35.9651 132.223 37.1682 131.536 38.3557C130.879 39.5745 130.051 40.6682 129.051 41.637C128.082 42.6057 126.926 43.387 125.582 43.9807C124.239 44.5745 122.676 44.8713 120.895 44.8713C119.864 44.8401 118.942 44.6838 118.129 44.4026C117.411 44.1526 116.739 43.7776 116.114 43.2776C115.52 42.8088 115.176 42.1213 115.082 41.2151C115.239 40.8713 115.411 40.5588 115.598 40.2776C115.786 39.9963 115.973 39.7307 116.161 39.4807C116.379 39.1995 116.598 38.9338 116.817 38.6838C117.036 38.4651 117.27 38.262 117.52 38.0745C117.739 37.9182 117.973 37.7776 118.223 37.6526C118.473 37.5276 118.723 37.4651 118.973 37.4651C119.098 37.7463 119.286 38.0745 119.536 38.4495C119.786 38.8245 120.098 39.1682 120.473 39.4807C120.848 39.8245 121.27 40.1057 121.739 40.3245C122.207 40.5432 122.723 40.6526 123.286 40.6526C124.036 40.6526 124.832 40.4026 125.676 39.9026C126.52 39.4338 127.348 38.6057 128.161 37.4182C129.004 36.262 129.817 34.6838 130.598 32.6838C131.379 30.6838 132.114 28.1682 132.801 25.137C132.395 25.8557 131.879 26.637 131.254 27.4807C130.629 28.3245 129.879 29.1213 129.004 29.8713C128.161 30.6213 127.161 31.2463 126.004 31.7463C124.879 32.2463 123.614 32.4963 122.207 32.4963ZM156.67 28.6526C156.357 29.8401 155.936 30.9495 155.404 31.9807C154.873 33.012 154.232 33.9026 153.482 34.6526C152.764 35.4026 151.936 35.9807 150.998 36.387C150.092 36.8245 149.092 37.0432 147.998 37.0432C146.717 37.0432 145.701 36.762 144.951 36.1995C144.232 35.6682 143.686 34.9963 143.311 34.1838C142.967 33.3713 142.764 32.4807 142.701 31.512C142.607 30.5432 142.561 29.637 142.561 28.7932C142.561 28.1995 142.639 27.5432 142.795 26.8245C142.92 26.1057 143.107 25.3713 143.357 24.6213C143.607 23.8713 143.92 23.1213 144.295 22.3713C144.701 21.6213 145.17 20.9338 145.701 20.3088C145.889 19.7776 146.17 19.3088 146.545 18.9026C146.951 18.4963 147.404 18.1682 147.904 17.9182C148.436 17.637 148.998 17.4338 149.592 17.3088C150.186 17.1526 150.764 17.0745 151.326 17.0745C151.42 17.0745 151.498 17.0901 151.561 17.1213C151.654 17.1526 151.748 17.1838 151.842 17.2151C152.248 17.2463 152.748 17.4026 153.342 17.6838C153.967 17.9651 154.561 18.387 155.123 18.9495C155.717 19.512 156.217 20.2307 156.623 21.1057C157.029 21.9495 157.232 22.9807 157.232 24.1995C157.232 24.4495 157.217 24.762 157.186 25.137C157.154 25.4807 157.123 25.7776 157.092 26.0276C157.811 25.7463 158.561 25.4026 159.342 24.9963C160.123 24.5901 160.873 24.1682 161.592 23.7307C162.342 23.262 163.029 22.7932 163.654 22.3245C164.279 21.8557 164.779 21.4338 165.154 21.0588C165.467 20.7776 165.732 20.6213 165.951 20.5901C166.17 20.5588 166.326 20.6213 166.42 20.7776C166.514 20.9338 166.529 21.1526 166.467 21.4338C166.404 21.7151 166.232 22.0276 165.951 22.3713C165.795 22.5588 165.389 22.9338 164.732 23.4963C164.107 24.0588 163.357 24.6682 162.482 25.3245C161.607 25.9807 160.654 26.6213 159.623 27.2463C158.592 27.8713 157.607 28.3401 156.67 28.6526ZM148.748 21.5276C148.654 21.8088 148.607 22.1057 148.607 22.4182C148.607 22.9182 148.639 23.4495 148.701 24.012C148.764 24.5432 148.92 25.0276 149.17 25.4651C149.42 25.9026 149.811 26.2776 150.342 26.5901C150.904 26.8713 151.67 27.012 152.639 27.012C152.795 27.012 152.951 27.012 153.107 27.012C153.264 26.9807 153.42 26.9495 153.576 26.9182C153.67 26.512 153.748 26.1526 153.811 25.8401C153.904 25.4963 153.951 25.1995 153.951 24.9495C154.014 24.3557 154.014 23.7463 153.951 23.1213C153.889 22.4963 153.764 21.9338 153.576 21.4338C153.42 20.9026 153.201 20.4807 152.92 20.1682C152.67 19.8245 152.357 19.6526 151.982 19.6526C151.389 19.6526 150.811 19.8245 150.248 20.1682C149.717 20.4807 149.217 20.9338 148.748 21.5276ZM145.748 29.7776C145.748 30.3401 145.779 30.9026 145.842 31.4651C145.904 31.9963 146.029 32.4807 146.217 32.9182C146.404 33.3245 146.654 33.6682 146.967 33.9495C147.279 34.1995 147.686 34.3245 148.186 34.3245C148.748 34.3245 149.264 34.1995 149.732 33.9495C150.201 33.6682 150.623 33.3245 150.998 32.9182C151.373 32.4807 151.701 31.9963 151.982 31.4651C152.295 30.9026 152.561 30.3245 152.779 29.7307C152.561 29.762 152.342 29.7932 152.123 29.8245C151.936 29.8245 151.717 29.8245 151.467 29.8245C150.279 29.8245 149.248 29.4807 148.373 28.7932C147.529 28.0745 146.873 27.1682 146.404 26.0745C146.217 26.7307 146.061 27.3713 145.936 27.9963C145.811 28.6213 145.748 29.2151 145.748 29.7776ZM169.898 36.8557C168.711 36.8557 167.742 36.6682 166.992 36.2932C166.242 35.9182 165.648 35.4651 165.211 34.9338C164.804 34.3713 164.507 33.7776 164.32 33.1526C164.164 32.4963 164.086 31.9026 164.086 31.3713C164.086 30.4338 164.164 29.4495 164.32 28.4182C164.476 27.3557 164.664 26.387 164.882 25.512C165.101 24.6057 165.289 23.8401 165.445 23.2151C165.632 22.5901 165.757 22.1995 165.82 22.0432C166.101 21.137 166.461 20.3557 166.898 19.6995C167.367 19.012 168.007 18.5432 168.82 18.2932C169.132 18.2307 169.461 18.1682 169.804 18.1057C170.086 18.0745 170.367 18.0588 170.648 18.0588C170.961 18.0588 171.242 18.1057 171.492 18.1995C170.648 20.3557 169.976 22.1526 169.476 23.5901C169.007 25.0276 168.648 26.1995 168.398 27.1057C168.117 28.137 167.945 28.9651 167.882 29.5901C167.726 30.9963 167.851 32.0588 168.257 32.7776C168.664 33.4963 169.492 33.8557 170.742 33.8557C171.554 33.8557 172.336 33.5588 173.086 32.9651C173.836 32.3401 174.523 31.5432 175.148 30.5745C175.054 30.0745 175.007 29.5588 175.007 29.0276C175.007 28.0276 175.086 27.0588 175.242 26.1213C175.429 25.1526 175.632 24.262 175.851 23.4495C176.101 22.6057 176.351 21.8557 176.601 21.1995C176.882 20.5432 177.117 20.0276 177.304 19.6526C177.648 18.9026 177.961 18.4495 178.242 18.2932C178.523 18.1057 178.976 17.9963 179.601 17.9651C179.851 17.9338 180.054 17.9338 180.211 17.9651C180.398 17.9651 180.554 17.9807 180.679 18.012C181.054 18.1057 181.242 18.2932 181.242 18.5745C181.242 19.0745 181.211 19.8245 181.148 20.8245C181.086 21.8245 180.898 22.8557 180.586 23.9182C180.367 24.7932 180.148 25.5432 179.929 26.1682C179.742 26.762 179.554 27.2776 179.367 27.7151C179.179 28.1213 178.992 28.4651 178.804 28.7463C178.617 28.9963 178.445 29.2307 178.289 29.4495C178.351 30.387 178.429 31.137 178.523 31.6995C178.617 32.262 178.726 32.6995 178.851 33.012C179.007 33.2932 179.179 33.4963 179.367 33.6213C179.586 33.7151 179.82 33.762 180.07 33.762C180.507 33.762 181.023 33.5588 181.617 33.1526C182.211 32.7151 182.82 32.1838 183.445 31.5588C184.101 30.9026 184.742 30.1995 185.367 29.4495C186.023 28.6682 186.617 27.9338 187.148 27.2463C187.679 26.5588 188.132 25.9651 188.507 25.4651C188.882 24.9338 189.117 24.6057 189.211 24.4807C189.429 24.1995 189.632 24.0276 189.82 23.9651C190.039 23.9026 190.211 23.9338 190.336 24.0588C190.461 24.1526 190.523 24.3245 190.523 24.5745C190.554 24.7932 190.492 25.0432 190.336 25.3245C189.711 26.512 188.929 27.7776 187.992 29.1213C187.086 30.4338 186.101 31.6526 185.039 32.7776C184.007 33.9026 182.961 34.8401 181.898 35.5901C180.836 36.3401 179.836 36.7151 178.898 36.7151C178.054 36.7151 177.382 36.4338 176.882 35.8713C176.414 35.2776 176.007 34.4338 175.664 33.3401C174.945 34.4651 174.101 35.3401 173.132 35.9651C172.164 36.5588 171.086 36.8557 169.898 36.8557ZM191.376 32.5432C192.189 32.4182 192.829 32.4963 193.298 32.7776C193.798 33.0276 194.017 33.512 193.954 34.2307C193.923 34.637 193.751 35.0276 193.439 35.4026C193.157 35.7463 192.798 36.0588 192.361 36.3401C191.954 36.6213 191.517 36.8401 191.048 36.9963C190.579 37.1526 190.173 37.2307 189.829 37.2307C189.204 37.2307 188.657 37.0901 188.189 36.8088C187.689 36.5276 187.47 36.0745 187.532 35.4495C187.564 35.0432 187.704 34.6838 187.954 34.3713C188.173 34.0276 188.47 33.7307 188.845 33.4807C189.189 33.2307 189.579 33.0276 190.017 32.8713C190.486 32.7151 190.939 32.6057 191.376 32.5432Z" fill="#333333"/>
</svg>
