<svg width="309" height="99" viewBox="0 0 309 99" fill="none" xmlns="http://www.w3.org/2000/svg">
<line y1="-0.5" x2="284.537" y2="-0.5" transform="matrix(0.991737 -0.128275 -0.0045253 0.99999 2.26904 79.7546)" stroke="#159741"/>
<line y1="-0.5" x2="284.537" y2="-0.5" transform="matrix(0.991737 -0.128275 -0.0045253 0.99999 1.99878 85.4485)" stroke="#159741"/>
<path d="M5.1757 72.9613C4.61646 73.0217 4.27102 72.9883 4.13938 72.8611C3.98697 72.7597 3.9372 72.5175 3.99007 72.1346C4.00076 72.0156 4.06055 71.4787 4.16943 70.524C4.28083 69.5926 4.41614 68.4464 4.57537 67.0855C4.76042 65.7454 4.94452 64.2875 5.12766 62.7118C5.33411 61.1336 5.52733 59.6511 5.70734 58.2644C5.22305 58.3639 4.85809 58.3679 4.61246 58.2766C4.36432 58.162 4.2289 57.9998 4.20621 57.7901C4.20431 57.5546 4.30726 57.3077 4.51506 57.0495C4.74617 56.7888 5.08592 56.5517 5.53431 56.3382C5.62248 56.2816 5.75725 56.2198 5.93862 56.1531C6.01227 55.7444 6.07302 55.3253 6.12085 54.8958C6.17624 54.5362 6.22911 54.1533 6.27946 53.7471C6.32981 53.3409 6.38142 52.9463 6.43429 52.5634L7.75033 41.8483C7.83216 41.2973 7.99902 40.8785 8.25091 40.5919C8.52358 40.2796 9.04597 39.9874 9.81806 39.7154C10.4529 39.4817 10.9009 39.3744 11.1623 39.3933C11.4212 39.3889 11.5452 39.4462 11.5345 39.5652C11.4924 39.8291 11.3844 40.4655 11.2107 41.4744C11.0369 42.4832 10.8289 43.7198 10.5865 45.184C10.3649 46.6224 10.1248 48.216 9.8661 49.9648C9.60488 51.6904 9.35404 53.403 9.1136 55.1028C10.489 54.742 12.1711 54.3834 14.16 54.027C14.9189 53.8507 15.6582 53.7119 16.378 53.6105C17.1212 53.5066 17.8319 53.4298 18.5102 53.3801C18.7003 52.0866 18.8787 50.7943 19.0455 49.5033C19.2356 48.2097 19.4125 47.0119 19.5761 45.9098C19.7398 44.8078 19.8823 43.8376 20.0038 42.9994C20.1461 42.1354 20.254 41.499 20.3277 41.0903C20.4196 40.6324 20.5087 40.2574 20.595 39.9652C20.7045 39.6705 20.832 39.4327 20.9775 39.252C21.1463 39.0687 21.3434 38.9296 21.5688 38.8345C21.7943 38.7394 22.056 38.6522 22.3538 38.5728C22.5169 38.5552 22.7138 38.5222 22.9442 38.4737C23.1307 38.4535 23.352 38.4296 23.6084 38.4019C23.8622 38.3509 24.1547 38.3311 24.486 38.3424C23.8576 40.8149 23.2913 43.316 22.7871 45.8457C22.3036 48.3497 21.8604 50.7903 21.4575 53.1677C21.882 53.169 22.247 53.1649 22.5524 53.1554C22.8812 53.1435 23.1413 53.1508 23.3327 53.1772C23.9021 53.21 24.268 53.3237 24.4305 53.5183C24.6163 53.7104 24.6024 54.0183 24.389 54.4421L24.0263 55.0118C23.9066 55.2133 23.7558 55.4535 23.5738 55.7325C23.3893 55.9882 23.1503 56.2851 22.8569 56.6233C22.6629 56.5735 22.4573 56.525 22.24 56.4778C22.046 56.428 21.852 56.3783 21.6581 56.3285C21.4175 56.2838 21.1885 56.2378 20.9713 56.1906C20.8687 56.7674 20.7764 57.3314 20.6946 57.8824C20.6103 58.4102 20.5388 58.9483 20.4803 59.4968C20.3242 60.6688 20.1835 61.8745 20.0583 63.1139C19.962 64.1851 19.8655 65.3625 19.7686 66.6459C19.6975 67.9502 19.6705 69.2261 19.6876 70.4736C19.5113 70.587 19.3312 70.6654 19.1473 70.7088C18.9659 70.7756 18.8066 70.8282 18.6693 70.8666C18.5087 70.9075 18.3481 70.9484 18.1875 70.9894L18.1526 70.9931L18.0827 71.0007L18.0128 71.0082C17.9196 71.0183 17.8263 71.0284 17.7331 71.0385C17.6399 71.0485 17.5442 71.0353 17.446 70.9988C17.3269 70.9881 17.2066 70.9657 17.0851 70.9317C16.9635 70.8977 16.842 70.8637 16.7204 70.8297C16.6247 70.8164 16.5148 70.7812 16.3907 70.7238C16.494 69.9347 16.5556 69.1973 16.5757 68.5115C16.6191 67.8231 16.6364 67.2201 16.6275 66.7025C16.6319 66.0891 16.6205 65.5481 16.5934 65.0796C16.5511 64.4712 16.4094 63.8147 16.1681 63.1099C15.9502 62.4027 15.6403 61.7172 15.2384 61.0534C14.8599 60.3871 14.4048 59.7762 13.8732 59.2207C13.3649 58.6627 12.7968 58.2055 12.1689 57.849C11.5435 57.5158 10.9565 57.3199 10.408 57.2614C9.88273 57.2002 9.35466 57.222 8.82376 57.3265C8.73627 58.0431 8.65792 58.7353 8.5887 59.4028C8.51947 60.0704 8.47103 60.7121 8.44337 61.328C8.33326 62.7072 8.23103 64.0502 8.13667 65.3569C8.06874 66.4722 7.99294 67.6238 7.90927 68.8115C7.85143 70.02 7.82128 71.0488 7.81882 71.8977C7.46616 72.1244 7.13176 72.302 6.81562 72.4304C6.502 72.5822 6.21955 72.6952 5.96827 72.7695C5.69621 72.8697 5.43202 72.9336 5.1757 72.9613ZM17.338 55.9467C16.5124 55.9416 15.7267 55.9794 14.9811 56.0599C14.2562 56.1147 13.6141 56.1723 13.0549 56.2327C13.5486 56.4387 13.993 56.7325 14.3879 57.1142C14.8061 57.4933 15.2423 57.9294 15.6964 58.4225C16.1221 58.8716 16.483 59.3748 16.7791 59.9321C17.0751 60.4895 17.3337 61.0273 17.5548 61.5456C17.6353 60.5468 17.73 59.5701 17.8389 58.6153C17.9478 57.6606 18.0513 56.7654 18.1495 55.9297C18.0072 55.9215 17.8661 55.925 17.7263 55.9401C17.6073 55.9294 17.4778 55.9316 17.338 55.9467ZM45.8685 54.8437C45.5927 55.345 45.2363 55.9729 44.7993 56.7273C44.3597 57.4585 43.8982 58.2038 43.4146 58.9633C42.9517 59.6969 42.4838 60.384 42.0109 61.0244C41.5588 61.6391 41.1706 62.0818 40.8462 62.3526C40.6284 62.5176 40.373 62.663 40.0801 62.789C39.7873 62.9149 39.479 63.0072 39.1553 63.0657C38.8549 63.1218 38.5611 63.1299 38.2739 63.0902C37.9893 63.0739 37.7345 63.0071 37.5097 62.8899C37.2823 62.7495 37.0824 62.5354 36.9098 62.2476C36.7655 62.0038 36.6125 61.6786 36.4506 61.2717C36.312 60.8624 36.2203 60.3419 36.1756 59.7102C35.7172 60.7027 35.1778 61.4918 34.5575 62.0774C33.9347 62.6398 33.333 63.0702 32.7523 63.3687C32.081 63.7006 31.3983 63.9276 30.7043 64.0497C30.3781 64.085 30.016 64.0062 29.6179 63.8135C29.2224 63.6441 28.8713 63.3402 28.5645 62.9019C28.2553 62.4402 28.0254 61.8404 27.8748 61.1023C27.7217 60.3409 27.7166 59.422 27.8595 58.3458C28.0319 56.8891 28.4046 55.5405 28.9776 54.2999C29.5739 53.0567 30.2474 51.9821 30.998 51.0759C31.7462 50.1464 32.5053 49.4278 33.2755 48.9203C34.0457 48.4127 34.7013 48.1533 35.2422 48.1419C35.884 48.1905 36.4168 48.3215 36.8407 48.535C37.1921 48.7327 37.4396 49.0596 37.5833 49.5156C37.7477 49.9457 37.6255 50.56 37.2169 51.3586C37.5355 51.2534 37.7985 51.1778 38.0057 51.1319C38.2362 51.0834 38.4097 51.0529 38.5262 51.0403C38.666 51.0252 38.7605 51.0267 38.8096 51.045C38.8379 51.0891 38.8609 51.1927 38.8786 51.3558C38.8937 51.4956 38.8877 51.7674 38.8607 52.171C38.8336 52.5747 38.7868 53.122 38.7201 53.8128C38.6533 54.5037 38.5615 55.3976 38.4444 56.4947C38.4205 56.7094 38.3953 56.9125 38.3689 57.104C38.3632 57.2696 38.3472 57.4482 38.3208 57.6396C38.3151 57.8052 38.3016 58.0071 38.2802 58.2451C38.2588 58.4832 38.232 58.7807 38.2 59.1378C38.1993 59.3501 38.2129 59.5843 38.2406 59.8406C38.2891 60.0711 38.3597 60.2875 38.4523 60.4896C38.5449 60.6918 38.6686 60.8552 38.8236 60.9799C38.9993 61.0788 39.227 61.1131 39.5066 61.0829C39.7396 61.0577 40.0274 60.8852 40.37 60.5653C40.71 60.2221 41.0658 59.8064 41.4374 59.3184C41.8064 58.807 42.1833 58.2595 42.568 57.6757C42.9736 57.0661 43.3467 56.4836 43.6873 55.9281C44.028 55.3727 44.3284 54.8805 44.5884 54.4517C44.8718 54.0203 45.0733 53.7038 45.193 53.5023C45.3567 53.2725 45.5305 53.1358 45.7144 53.0924C45.8958 53.0256 46.0406 53.0571 46.1489 53.1868C46.2573 53.3166 46.2916 53.525 46.252 53.8122C46.2356 54.0969 46.1078 54.4407 45.8685 54.8437ZM35.7937 57.4884C35.8598 57.0097 35.9404 56.447 36.0354 55.8003C36.1305 55.1535 36.2047 54.5326 36.2582 53.9374C36.3117 53.3423 36.3416 52.8558 36.3479 52.4779C36.3749 52.0743 36.3431 51.8891 36.2524 51.9225C36.1384 51.9584 36.014 52.0072 35.8793 52.0689C35.7678 52.1281 35.6201 52.1794 35.4362 52.2229C35.2523 52.2663 35.0697 52.3214 34.8883 52.3881C35.0344 51.9952 35.1065 51.6809 35.1046 51.4454C35.1235 51.184 35.1137 50.9847 35.0753 50.8474C35.0343 50.6868 34.9738 50.5637 34.8938 50.4781C34.6148 50.296 34.1794 50.5199 33.5874 51.1496C33.0162 51.7536 32.3906 52.8349 31.7106 54.3935C31.4266 55.0371 31.2176 55.7198 31.0835 56.4415C30.9469 57.1399 30.8647 57.7971 30.8371 58.413C30.8327 59.0264 30.8791 59.5636 30.9761 60.0246C31.0706 60.4622 31.1953 60.7434 31.3502 60.8681C31.6343 61.0968 31.9394 61.1934 32.2657 61.1582C32.5894 61.0996 32.9055 60.9712 33.2141 60.7728C33.5434 60.5486 33.8561 60.2791 34.1521 59.9642C34.4714 59.6468 34.7428 59.3228 34.9663 58.9922C35.2132 58.6591 35.4043 58.3555 35.5397 58.0816C35.6983 57.8051 35.783 57.6074 35.7937 57.4884ZM55.6368 54.5307C55.1268 55.4816 54.5909 56.4118 54.0292 57.3211C53.4908 58.228 52.9552 59.052 52.4225 59.7932C51.9105 60.5086 51.4197 61.0921 50.9499 61.5436C50.5059 62.0159 50.1325 62.2684 49.8296 62.3012C49.1072 62.3792 48.4764 62.1056 47.9373 61.4802C47.4189 60.829 46.9774 60.0163 46.6127 59.042C46.2687 58.0419 46 56.9748 45.8066 55.8405C45.634 54.6805 45.5334 53.6423 45.505 52.726C45.4999 51.8072 45.5266 51.0735 45.5851 50.525C45.6411 49.9531 45.7343 49.507 45.8647 49.1864C46.0183 48.8633 46.2041 48.6193 46.422 48.4543C46.6632 48.2868 46.9651 48.1363 47.3279 48.0028C47.4859 47.9386 47.6686 47.8835 47.8758 47.8375C48.083 47.7916 48.2706 47.7831 48.4388 47.812C48.6277 47.8152 48.7751 47.87 48.8809 47.9764C48.9867 48.0829 49.0173 48.2564 48.9726 48.4969C48.9487 48.7117 48.9012 49.0351 48.83 49.4671C48.7797 49.8733 48.724 50.339 48.6629 50.8642C48.6019 51.3895 48.5433 51.938 48.4873 52.5098C48.4546 53.0791 48.4427 53.6226 48.4516 54.1403C48.4775 55.0333 48.5619 55.8139 48.7049 56.4821C48.8454 57.127 49.0108 57.6749 49.201 58.1258C49.3887 58.5534 49.5767 58.8749 49.7651 59.0903C49.9534 59.3057 50.0942 59.4084 50.1874 59.3983C50.3039 59.3857 50.4972 59.2116 50.7673 58.8759C51.0583 58.5144 51.3741 58.056 51.7148 57.5005C52.0787 56.9426 52.4455 56.3018 52.8151 55.5782C53.2081 54.8521 53.5635 54.1065 53.8815 53.3413C53.7014 52.9836 53.5952 52.5472 53.5631 52.032C53.5472 51.2322 53.6451 50.5026 53.8567 49.8433C54.0657 49.1606 54.321 48.579 54.6227 48.0985C54.9476 47.6155 55.2839 47.2373 55.6315 46.964C55.9999 46.6649 56.3356 46.499 56.6385 46.4663C57.2443 46.4008 57.6348 46.5236 57.8099 46.8347C58.0058 47.12 58.0981 47.4283 58.0868 47.7595C58.0931 48.2539 57.9449 48.9536 57.642 49.8585C57.3599 50.7377 56.9702 51.711 56.4727 52.7784C56.5943 52.8124 56.7275 52.8452 56.8723 52.8767C57.0172 52.9082 57.1828 52.9138 57.3692 52.8937C58.1615 52.8081 58.8621 52.6381 59.4711 52.3837C60.1034 52.1268 60.6387 51.845 61.077 51.5383C61.5386 51.2291 61.9174 50.917 62.2133 50.6022C62.5301 50.2615 62.7833 49.9866 62.9728 49.7775C63.0975 49.6226 63.2297 49.5376 63.3695 49.5225C63.5094 49.5074 63.6296 49.5297 63.7304 49.5896C63.8312 49.6494 63.8891 49.7492 63.9043 49.889C63.9194 50.0288 63.8659 50.1879 63.7437 50.3661C63.0158 51.482 62.08 52.42 60.9363 53.1801C59.816 53.9376 58.4519 54.4033 56.8441 54.577C56.7043 54.5922 56.5283 54.5994 56.316 54.5988C56.1038 54.5981 55.8774 54.5754 55.6368 54.5307ZM78.2147 51.03C77.6266 52.1308 76.9427 53.2184 76.1631 54.2927C75.381 55.3438 74.5306 56.3079 73.6118 57.1852C72.7138 58.0366 71.7657 58.752 70.7675 59.3313C69.7927 59.9081 68.8159 60.2494 67.8372 60.3552C67.3246 60.4106 66.7515 60.3429 66.1179 60.152C65.5101 59.9819 64.9339 59.667 64.3891 59.2073C63.8443 58.7475 63.3763 58.1262 62.9851 57.3434C62.6173 56.5581 62.4286 55.5766 62.419 54.3989C62.4089 53.4335 62.5917 52.4 62.9676 51.2986C63.3643 50.1713 63.8759 49.1259 64.5025 48.1624C65.1524 47.1964 65.9002 46.373 66.7459 45.6922C67.615 45.009 68.5155 44.617 69.4476 44.5163C70.3331 44.4206 70.9978 44.5727 71.4418 44.9726C71.8859 45.3725 72.1199 45.9012 72.1439 46.5587C72.1521 47.2886 72.0142 47.9754 71.7302 48.619C71.4696 49.2601 71.1327 49.8505 70.7196 50.3902C70.3065 50.9299 69.8534 51.4267 69.3603 51.8808C68.8905 52.3323 68.4403 52.7463 68.0095 53.1229C67.5347 53.5279 67.0819 53.9186 66.6512 54.2952C66.2179 54.6485 65.8404 54.9722 65.5186 55.2662C65.6049 55.8463 65.7627 56.3243 65.992 56.7002C66.2212 57.0762 66.4896 57.3773 66.7969 57.6034C67.1017 57.8062 67.4352 57.9469 67.7974 58.0257C68.1803 58.0786 68.5581 58.0849 68.931 58.0446C69.7232 57.959 70.524 57.6249 71.3332 57.0424C72.1399 56.4366 72.9132 55.7401 73.6532 54.953C74.4139 54.14 75.1022 53.3112 75.718 52.4667C76.3572 51.6197 76.8795 50.8914 77.2851 50.2818C77.428 50.0778 77.5798 49.9553 77.7404 49.9143C77.9218 49.8476 78.0641 49.8558 78.1674 49.9389C78.2915 49.9962 78.3648 50.1298 78.3875 50.3395C78.4077 50.5259 78.3501 50.7561 78.2147 51.03ZM68.6845 46.6143C68.4048 46.6445 68.0821 46.8208 67.7162 47.1433C67.3736 47.4632 67.0449 47.9112 66.7301 48.4875C66.4127 49.0404 66.1325 49.719 65.8895 50.5232C65.6439 51.3041 65.4925 52.1927 65.4353 53.1889C65.6922 52.949 65.9725 52.7066 66.276 52.4616C66.577 52.1933 66.8768 51.9134 67.1753 51.6218C68.094 50.7446 68.72 49.9933 69.0531 49.368C69.3862 48.7426 69.5534 48.2177 69.5546 47.7933C69.5533 47.3455 69.4727 47.036 69.3127 46.8647C69.1502 46.6701 68.9408 46.5866 68.6845 46.6143ZM107.273 48.208C106.998 48.7093 106.641 49.3372 106.204 50.0916C105.765 50.8227 105.303 51.5681 104.82 52.3275C104.357 53.0612 103.889 53.7483 103.416 54.3887C102.964 55.0033 102.576 55.4461 102.251 55.7168C102.033 55.8818 101.778 56.0273 101.485 56.1532C101.192 56.2792 100.884 56.3714 100.56 56.43C100.26 56.486 99.9661 56.4942 99.6789 56.4545C99.3943 56.4381 99.1395 56.3714 98.9147 56.2542C98.6873 56.1138 98.4873 55.8996 98.3148 55.6118C98.1705 55.3681 98.0175 55.0428 97.8556 54.636C97.717 54.2266 97.6253 53.7061 97.5806 53.0745C97.1221 54.067 96.5828 54.856 95.9625 55.4417C95.3397 56.004 94.738 56.4345 94.1573 56.733C93.486 57.0648 92.8033 57.2918 92.1093 57.414C91.7831 57.4492 91.421 57.3705 91.0229 57.1778C90.6274 57.0083 90.2763 56.7045 89.9695 56.2661C89.6603 55.8045 89.4304 55.2046 89.2798 54.4665C89.1267 53.7051 89.1216 52.7863 89.2645 51.71C89.4369 50.2534 89.8096 48.9048 90.3826 47.6641C90.9789 46.421 91.6524 45.3463 92.403 44.4401C93.1512 43.5106 93.9103 42.7921 94.6805 42.2845C95.4507 41.777 96.1063 41.5175 96.6472 41.5062C97.289 41.5547 97.8218 41.6857 98.2457 41.8992C98.5971 42.097 98.8446 42.4239 98.9883 42.8798C99.1527 43.31 99.0305 43.9243 98.6219 44.7228C98.9405 44.6177 99.2035 44.5421 99.4107 44.4961C99.6412 44.4477 99.8147 44.4171 99.9312 44.4045C100.071 44.3894 100.165 44.391 100.215 44.4093C100.243 44.4534 100.266 44.5569 100.284 44.7201C100.299 44.8599 100.293 45.1316 100.266 45.5353C100.239 45.939 100.192 46.4862 100.125 47.1771C100.058 47.8679 99.9665 48.7619 99.8494 49.859C99.8255 50.0737 99.8003 50.2768 99.7739 50.4682C99.7682 50.6339 99.7522 50.8124 99.7258 51.0039C99.7201 51.1695 99.7066 51.3713 99.6852 51.6094C99.6638 51.8474 99.637 52.145 99.6049 52.5021C99.6043 52.7143 99.6179 52.9486 99.6456 53.2049C99.6941 53.4354 99.7647 53.6517 99.8573 53.8539C99.9499 54.056 100.074 54.2195 100.229 54.3442C100.404 54.4431 100.632 54.4774 100.912 54.4472C101.145 54.422 101.432 54.2494 101.775 53.9295C102.115 53.5863 102.471 53.1707 102.842 52.6826C103.211 52.1713 103.588 51.6237 103.973 51.0399C104.379 50.4303 104.752 49.8478 105.092 49.2924C105.433 48.7369 105.733 48.2448 105.993 47.8159C106.277 47.3845 106.478 47.0681 106.598 46.8666C106.762 46.6367 106.935 46.5001 107.119 46.4566C107.301 46.3899 107.446 46.4214 107.554 46.5511C107.662 46.6808 107.697 46.8893 107.657 47.1765C107.641 47.4611 107.513 47.805 107.273 48.208ZM97.1987 50.8526C97.2648 50.374 97.3454 49.8113 97.4404 49.1645C97.5355 48.5178 97.6097 47.8968 97.6632 47.3017C97.7167 46.7066 97.7466 46.2201 97.7529 45.8422C97.7799 45.4385 97.7481 45.2534 97.6574 45.2867C97.5434 45.3226 97.419 45.3714 97.2843 45.4331C97.1728 45.4923 97.0251 45.5437 96.8412 45.5871C96.6573 45.6306 96.4747 45.6857 96.2933 45.7524C96.4394 45.3594 96.5115 45.0452 96.5096 44.8096C96.5285 44.5483 96.5187 44.349 96.4802 44.2117C96.4393 44.0511 96.3788 43.928 96.2988 43.8423C96.0198 43.6603 95.5844 43.8842 94.9924 44.5139C94.4212 45.1178 93.7956 46.1991 93.1156 47.7578C92.8316 48.4014 92.6226 49.084 92.4885 49.8057C92.3519 50.5042 92.2697 51.1613 92.2421 51.7772C92.2377 52.3906 92.2841 52.9278 92.3811 53.3888C92.4756 53.8265 92.6003 54.1077 92.7552 54.2324C93.0393 54.461 93.3444 54.5577 93.6706 54.5224C93.9944 54.4639 94.3105 54.3354 94.6191 54.1371C94.9484 53.9129 95.2611 53.6434 95.5571 53.3285C95.8763 53.0111 96.1478 52.6871 96.3713 52.3565C96.6182 52.0233 96.8093 51.7198 96.9447 51.4458C97.1033 51.1694 97.188 50.9716 97.1987 50.8526ZM129.77 53.6977C129.234 53.7557 128.757 53.7012 128.338 53.5343C127.945 53.3881 127.614 53.1645 127.346 52.8635C127.078 52.5625 126.886 52.206 126.771 51.7941C126.653 51.359 126.626 50.8904 126.689 50.3885C126.724 50.0547 126.794 49.611 126.899 49.0575C127.002 48.4806 127.1 47.8688 127.196 47.222C127.311 46.5494 127.405 45.891 127.477 45.2468C127.569 44.5767 127.611 43.9828 127.602 43.4652C127.591 42.9242 127.521 42.4956 127.393 42.1795C127.262 41.84 127.045 41.6867 126.742 41.7194C126.369 41.7597 125.998 41.9294 125.63 42.2285C125.259 42.5044 124.886 42.8747 124.512 43.3394C124.162 43.8016 123.807 44.335 123.448 44.9396C123.11 45.5183 122.774 46.1204 122.441 46.7457C122.317 47.5607 122.218 48.2786 122.144 48.8995C122.067 49.4972 121.997 50.047 121.933 50.5489C121.89 51.025 121.842 51.4545 121.79 51.8374C121.734 52.197 121.689 52.5437 121.654 52.8774C121.61 53.118 121.425 53.3737 121.101 53.6445C120.774 53.892 120.42 54.107 120.039 54.2896C119.658 54.4722 119.328 54.5787 119.048 54.6089C118.745 54.6416 118.606 54.5506 118.63 54.3359C118.638 54.1935 118.685 53.8702 118.772 53.3657C118.836 52.8638 118.926 52.2765 119.041 51.6039C119.131 50.9106 119.229 50.181 119.335 49.4152C119.441 48.6494 119.539 47.9198 119.629 47.2265C119.687 46.6779 119.751 46.0699 119.82 45.4023C119.876 44.8305 119.946 44.163 120.028 43.3997C120.134 42.6339 120.255 41.7957 120.392 40.885C120.54 40.7276 120.692 40.6051 120.848 40.5176C121.024 40.4042 121.203 40.3142 121.384 40.2474C121.563 40.1574 121.756 40.0894 121.963 40.0434C122.15 40.0233 122.337 40.0148 122.526 40.0179C122.692 40.0236 122.86 40.0526 123.031 40.1049C123.222 40.1313 123.394 40.1952 123.547 40.2966C123.494 40.4673 123.438 40.7091 123.378 41.0221C123.315 41.3118 123.254 41.6248 123.196 41.9611C123.143 42.344 123.069 42.7411 122.972 43.1523C123.229 42.7001 123.522 42.2442 123.849 41.7845C124.197 41.2989 124.574 40.8575 124.979 40.4601C125.407 40.0602 125.866 39.7277 126.356 39.4626C126.843 39.1742 127.355 39.001 127.891 38.9431C128.334 38.8953 128.744 38.9806 129.121 39.1992C129.498 39.4177 129.805 39.7499 130.042 40.1958C130.3 40.6159 130.474 41.1392 130.566 41.7659C130.68 42.39 130.673 43.0862 130.544 43.8545L130.326 45.4339C130.262 45.9359 130.174 46.5348 130.061 47.2307C129.968 47.9007 129.837 48.6457 129.666 49.4657C129.582 49.9934 129.571 50.4425 129.635 50.8128C129.722 51.1805 129.975 51.3418 130.395 51.2965C130.814 51.2511 131.311 50.9382 131.884 50.3575C132.481 49.7744 133.067 49.0864 133.641 48.2935C134.215 47.5007 134.754 46.7 135.255 45.8914C135.755 45.0594 136.131 44.3941 136.383 43.8953C136.56 43.5698 136.737 43.3503 136.913 43.2369C137.089 43.1236 137.228 43.0968 137.329 43.1567C137.453 43.214 137.529 43.3708 137.556 43.6271C137.582 43.8601 137.521 44.1731 137.375 44.5661C137.247 44.9099 137.038 45.3687 136.746 45.9424C136.478 46.5136 136.143 47.1273 135.743 47.7835C135.343 48.4397 134.908 49.1113 134.44 49.7984C133.97 50.4622 133.471 51.0818 132.944 51.6574C132.415 52.2097 131.875 52.6688 131.325 53.0347C130.801 53.4213 130.283 53.6423 129.77 53.6977ZM143.079 30.5479C143.037 30.8117 142.925 31.0832 142.743 31.3622C142.582 31.6153 142.382 31.8373 142.143 32.0281C141.925 32.1931 141.691 32.3127 141.44 32.387C141.188 32.4613 140.973 32.4374 140.795 32.3152C140.266 31.9953 139.966 31.6269 139.898 31.2099C139.827 30.7697 139.887 30.3506 140.08 29.9526C140.27 29.5313 140.526 29.1736 140.848 28.8795C141.167 28.5621 141.452 28.3663 141.704 28.292C141.955 28.2177 142.171 28.2533 142.352 28.3988C142.553 28.5184 142.715 28.7014 142.835 28.9476C142.954 29.1706 143.029 29.4335 143.062 29.7364C143.118 30.0368 143.124 30.3073 143.079 30.5479ZM139.061 38.514C139.163 38.3616 139.371 38.2211 139.688 38.0927C140.004 37.9642 140.334 37.8578 140.679 37.7734C141.02 37.6657 141.331 37.5968 141.611 37.5666C141.911 37.5105 142.086 37.4917 142.135 37.5099C142.161 37.5307 142.129 37.7817 142.04 38.2628C141.95 38.7439 141.835 39.3104 141.693 39.9622C141.552 40.614 141.401 41.2904 141.241 41.9913C141.079 42.6689 140.962 43.2238 140.891 43.6558C140.819 44.0878 140.731 44.5806 140.626 45.1342C140.519 45.6644 140.423 46.1934 140.338 46.7212C140.275 47.2231 140.243 47.6979 140.245 48.1457C140.246 48.5935 140.318 48.9275 140.459 49.148C140.606 49.415 140.756 49.5992 140.908 49.7006C141.058 49.7787 141.214 49.8089 141.378 49.7913C141.844 49.741 142.398 49.4217 143.042 48.8335C143.709 48.2428 144.366 47.5589 145.012 46.7818C145.68 45.9789 146.289 45.1822 146.84 44.3919C147.389 43.5783 147.79 42.9337 148.045 42.4583C148.207 42.2051 148.377 42.0335 148.556 41.9434C148.758 41.8509 148.922 41.8449 149.049 41.9255C149.199 42.0036 149.285 42.1475 149.308 42.3572C149.354 42.5644 149.31 42.8166 149.177 43.1139C148.875 43.8066 148.412 44.6464 147.788 45.6332C147.161 46.5967 146.486 47.542 145.761 48.469C145.033 49.3727 144.305 50.1586 143.576 50.8267C142.87 51.4924 142.274 51.8633 141.787 51.9395C141.393 52.0056 140.99 51.9785 140.576 51.8582C140.188 51.7587 139.817 51.5984 139.463 51.3773C139.13 51.1304 138.839 50.8436 138.592 50.5167C138.342 50.1665 138.184 49.7947 138.117 49.401C137.985 48.8261 137.899 48.0338 137.86 47.0243C137.819 45.9915 137.835 44.9407 137.908 43.872C137.979 42.78 138.102 41.7412 138.278 40.7556C138.478 39.7675 138.739 39.0203 139.061 38.514ZM155.042 48.8805C155.764 48.8024 156.526 48.4372 157.328 47.7848C158.15 47.1065 158.928 46.3389 159.66 45.4818C160.416 44.6222 161.088 43.7598 161.679 42.8945C162.289 42.0034 162.743 41.2943 163.04 40.7672C163.217 40.4416 163.396 40.2454 163.577 40.1787C163.756 40.0886 163.898 40.0968 164.004 40.2033C164.11 40.3097 164.165 40.4923 164.169 40.7512C164.171 40.9867 164.096 41.266 163.942 41.5891C163.809 41.8863 163.574 42.3243 163.235 42.9031C162.918 43.456 162.525 44.076 162.058 44.763C161.61 45.4243 161.084 46.1176 160.479 46.8431C159.895 47.5427 159.27 48.1996 158.606 48.8136C157.939 49.4042 157.239 49.9043 156.505 50.3136C155.774 50.7462 155.036 51.0028 154.29 51.0834C153.265 51.1942 152.381 51.0893 151.639 50.7687C150.923 50.4689 150.323 50.0387 149.838 49.4782C149.376 48.9152 149.024 48.2813 148.783 47.5766C148.539 46.8486 148.378 46.1234 148.3 45.401C148.222 44.6787 148.288 43.764 148.498 42.6568C148.709 41.5497 149.075 40.4728 149.599 39.4262C150.143 38.3537 150.866 37.4151 151.769 36.6103C152.67 35.7821 153.784 35.2963 155.112 35.1528C155.858 35.0722 156.515 35.2605 157.083 35.7178C157.674 36.1725 158.006 36.8438 158.079 37.7318C158.124 38.1512 158.1 38.5782 158.005 39.0128C157.908 39.424 157.761 39.8053 157.563 40.1567C157.363 40.4848 157.11 40.7597 156.804 40.9814C156.521 41.2005 156.193 41.3302 155.82 41.3705C155.518 41.4033 155.273 41.3236 155.087 41.1315C154.922 40.9136 154.801 40.6673 154.725 40.3928C154.668 40.0924 154.637 39.8011 154.63 39.519C154.646 39.2343 154.673 39.0429 154.709 38.9446C154.808 38.7689 154.924 38.6386 155.056 38.5535C155.188 38.4685 155.343 38.3693 155.519 38.256C155.651 38.171 155.745 38.0548 155.799 37.9074C155.878 37.7575 155.908 37.6011 155.89 37.4379C155.872 37.2748 155.811 37.1401 155.705 37.0336C155.599 36.9272 155.441 36.8853 155.232 36.908C155.022 36.9306 154.656 37.1469 154.135 37.5569C153.634 37.941 153.129 38.5024 152.62 39.2411C152.131 39.954 151.72 40.8354 151.385 41.8852C151.051 42.935 150.944 44.1252 151.064 45.456C151.124 46.2274 151.297 46.8452 151.583 47.3094C151.869 47.7735 152.202 48.1265 152.582 48.3684C152.962 48.6102 153.367 48.7667 153.799 48.8379C154.231 48.9091 154.646 48.9233 155.042 48.8805ZM179.067 40.1313C178.479 41.2321 177.795 42.3197 177.016 43.3941C176.234 44.4451 175.383 45.4093 174.464 46.2865C173.566 47.1379 172.618 47.8533 171.62 48.4326C170.645 49.0095 169.669 49.3508 168.69 49.4565C168.177 49.5119 167.604 49.4442 166.971 49.2533C166.363 49.0833 165.787 48.7684 165.242 48.3086C164.697 47.8489 164.229 47.2276 163.838 46.4448C163.47 45.6594 163.281 44.6779 163.272 43.5003C163.262 42.5348 163.444 41.5014 163.82 40.3999C164.217 39.2727 164.729 38.2273 165.355 37.2638C166.005 36.2977 166.753 35.4743 167.599 34.7936C168.468 34.1103 169.368 33.7183 170.3 33.6176C171.186 33.5219 171.85 33.674 172.295 34.074C172.739 34.4739 172.973 35.0026 172.997 35.6601C173.005 36.39 172.867 37.0767 172.583 37.7203C172.322 38.3614 171.985 38.9518 171.572 39.4915C171.159 40.0312 170.706 40.5281 170.213 40.9821C169.743 41.4336 169.293 41.8477 168.862 42.2243C168.387 42.6292 167.935 43.0199 167.504 43.3965C167.071 43.7498 166.693 44.0735 166.371 44.3676C166.458 44.9476 166.615 45.4256 166.845 45.8016C167.074 46.1776 167.342 46.4786 167.65 46.7047C167.954 46.9075 168.288 47.0483 168.65 47.127C169.033 47.1799 169.411 47.1862 169.784 47.1459C170.576 47.0603 171.377 46.7263 172.186 46.1438C172.993 45.538 173.766 44.8415 174.506 44.0543C175.267 43.2413 175.955 42.4125 176.571 41.5681C177.21 40.721 177.732 39.9927 178.138 39.3831C178.281 39.1791 178.432 39.0566 178.593 39.0157C178.774 38.9489 178.917 38.9571 179.02 39.0403C179.144 39.0976 179.218 39.2311 179.24 39.4408C179.26 39.6272 179.203 39.8574 179.067 40.1313ZM169.537 35.7156C169.258 35.7459 168.935 35.9222 168.569 36.2446C168.226 36.5645 167.898 37.0126 167.583 37.5888C167.265 38.1417 166.985 38.8203 166.742 39.6245C166.497 40.4054 166.345 41.294 166.288 42.2903C166.545 42.0504 166.825 41.8079 167.129 41.5629C167.43 41.2947 167.729 41.0148 168.028 40.7232C168.947 39.846 169.573 39.0947 169.906 38.4693C170.239 37.844 170.406 37.3191 170.407 36.8946C170.406 36.4468 170.325 36.1373 170.165 35.966C170.003 35.7714 169.793 35.6879 169.537 35.7156ZM201.341 38.3255C201.302 39.0604 201.26 39.7604 201.214 40.4255C201.192 41.088 201.19 41.6186 201.21 42.0172C201.249 42.6023 201.4 43.0104 201.66 43.2415C201.921 43.4726 202.191 43.5731 202.471 43.5429C202.797 43.5076 203.176 43.3017 203.606 42.9251C204.06 42.546 204.529 42.0828 205.012 41.5356C205.495 40.9883 205.973 40.3945 206.446 39.754C206.919 39.1136 207.349 38.5131 207.736 37.9526C208.144 37.3663 208.478 36.8588 208.738 36.4299C209.022 35.9985 209.215 35.7183 209.319 35.5892C209.444 35.4343 209.575 35.3376 209.712 35.2992C209.873 35.2583 210.003 35.2677 210.104 35.3275C210.205 35.3874 210.265 35.5105 210.286 35.6969C210.306 35.8833 210.238 36.1264 210.082 36.4262C209.85 36.8991 209.545 37.4624 209.168 38.1161C208.789 38.7465 208.365 39.4052 207.897 40.0923C207.429 40.7793 206.925 41.4585 206.385 42.1298C205.868 42.7986 205.331 43.3988 204.776 43.9303C204.244 44.4593 203.713 44.8938 203.184 45.2338C202.681 45.5947 202.208 45.799 201.765 45.8468C201.439 45.8821 201.115 45.8229 200.791 45.6692C200.492 45.513 200.209 45.2961 199.943 45.0183C199.677 44.7406 199.454 44.4228 199.274 44.0651C199.117 43.7049 199.03 43.3371 199.013 42.9618C199.019 42.7961 199.024 42.5127 199.027 42.1116C198.167 43.3125 197.271 44.2933 196.34 45.0541C195.429 45.789 194.52 46.2055 193.611 46.3037C193.285 46.339 192.926 46.2952 192.536 46.1724C192.145 46.0496 191.779 45.8181 191.435 45.478C191.115 45.1354 190.829 44.6713 190.577 44.0856C190.325 43.4999 190.176 42.7734 190.129 41.9062C190.053 40.5472 190.183 39.2366 190.517 37.9746C190.852 36.7126 191.321 35.601 191.925 34.64C192.549 33.6532 193.276 32.8556 194.106 32.2473C194.957 31.6132 195.836 31.247 196.745 31.1488C197.141 31.106 197.514 31.1718 197.863 31.3463C198.209 31.4974 198.516 31.7235 198.785 32.0246C199.051 32.3023 199.274 32.62 199.454 32.9778C199.657 33.333 199.811 33.6699 199.917 33.9886C200.007 33.2952 200.086 32.6147 200.156 31.9472C200.225 31.2796 200.298 30.647 200.375 30.0494C200.514 29.162 200.658 28.2035 200.806 27.1739C200.946 26.2865 201.107 25.2673 201.289 24.116C201.47 22.9648 201.681 21.7516 201.92 20.4763C202.133 20.2647 202.339 20.101 202.539 19.9851C202.739 19.8693 202.929 19.778 203.11 19.7112C203.313 19.6186 203.507 19.5623 203.693 19.5421C203.926 19.517 204.14 19.5292 204.334 19.579C204.525 19.6055 204.693 19.7406 204.837 19.9843C205.002 20.2022 205.135 20.5533 205.234 21.0376C205.334 21.5219 205.406 22.186 205.45 23.0299C205.514 24.0602 205.449 25.1988 205.254 26.4457C205.082 27.6901 204.81 28.9925 204.439 30.3528C204.065 31.6898 203.61 33.0472 203.076 34.4251C202.562 35.7772 201.984 37.0773 201.341 38.3255ZM199.328 39.0027C199.373 38.5499 199.407 38.0984 199.429 37.6481C199.474 37.1953 199.53 36.7296 199.596 36.251C199.552 36.2793 199.507 36.3077 199.463 36.336C199.443 36.3618 199.41 36.3889 199.366 36.4172C199.122 36.5614 198.948 36.5803 198.842 36.4739C198.733 36.3442 198.664 36.1395 198.634 35.8599C198.619 35.72 198.581 35.4766 198.52 35.1296C198.456 34.7593 198.346 34.3941 198.189 34.0338C198.053 33.6478 197.865 33.3263 197.625 33.0693C197.382 32.7891 197.075 32.6691 196.702 32.7094C196.166 32.7673 195.649 33.1061 195.15 33.7257C194.649 34.3221 194.196 35.0429 193.792 35.888C193.386 36.7098 193.068 37.5811 192.838 38.5018C192.607 39.4225 192.506 40.2349 192.536 40.939C192.61 42.0625 192.837 42.8513 193.216 43.3054C193.595 43.7595 194.064 43.9563 194.623 43.8958C195.043 43.8505 195.48 43.6383 195.934 43.2592C196.411 42.8776 196.858 42.4286 197.273 41.9122C197.712 41.3933 198.103 40.8678 198.446 40.3356C198.813 39.801 199.107 39.3567 199.328 39.0027ZM227.217 35.2463C226.942 35.7475 226.585 36.3754 226.148 37.1298C225.709 37.861 225.247 38.6063 224.763 39.3658C224.301 40.0994 223.833 40.7865 223.36 41.427C222.908 42.0416 222.519 42.4843 222.195 42.7551C221.977 42.9201 221.722 43.0655 221.429 43.1915C221.136 43.3174 220.828 43.4097 220.504 43.4682C220.204 43.5243 219.91 43.5324 219.623 43.4928C219.338 43.4764 219.083 43.4096 218.859 43.2925C218.631 43.152 218.431 42.9379 218.259 42.6501C218.114 42.4063 217.961 42.0811 217.799 41.6742C217.661 41.2649 217.569 40.7444 217.524 40.1127C217.066 41.1052 216.527 41.8943 215.906 42.4799C215.284 43.0423 214.682 43.4727 214.101 43.7712C213.43 44.1031 212.747 44.3301 212.053 44.4522C211.727 44.4875 211.365 44.4087 210.967 44.216C210.571 44.0466 210.22 43.7427 209.913 43.3044C209.604 42.8427 209.374 42.2429 209.224 41.5048C209.071 40.7434 209.065 39.8246 209.208 38.7483C209.381 37.2916 209.753 35.943 210.326 34.7024C210.923 33.4592 211.596 32.3846 212.347 31.4784C213.095 30.5489 213.854 29.8303 214.624 29.3228C215.395 28.8152 216.05 28.5558 216.591 28.5445C217.233 28.593 217.766 28.724 218.19 28.9375C218.541 29.1353 218.788 29.4621 218.932 29.9181C219.097 30.3482 218.974 30.9625 218.566 31.7611C218.884 31.6559 219.147 31.5804 219.355 31.5344C219.585 31.4859 219.759 31.4554 219.875 31.4428C220.015 31.4277 220.109 31.4292 220.158 31.4475C220.187 31.4916 220.21 31.5952 220.227 31.7583C220.243 31.8981 220.237 32.1699 220.21 32.5735C220.182 32.9772 220.136 33.5245 220.069 34.2153C220.002 34.9062 219.91 35.8001 219.793 36.8972C219.769 37.1119 219.744 37.315 219.718 37.5065C219.712 37.6721 219.696 37.8507 219.67 38.0421C219.664 38.2077 219.65 38.4096 219.629 38.6476C219.608 38.8857 219.581 39.1832 219.549 39.5403C219.548 39.7526 219.562 39.9868 219.589 40.2431C219.638 40.4736 219.709 40.69 219.801 40.8921C219.894 41.0943 220.018 41.2577 220.172 41.3824C220.348 41.4813 220.576 41.5156 220.855 41.4854C221.088 41.4602 221.376 41.2877 221.719 40.9678C222.059 40.6246 222.415 40.2089 222.786 39.7209C223.155 39.2095 223.532 38.662 223.917 38.0782C224.322 37.4686 224.696 36.8861 225.036 36.3306C225.377 35.7752 225.677 35.283 225.937 34.8542C226.221 34.4228 226.422 34.1063 226.542 33.9048C226.706 33.675 226.879 33.5383 227.063 33.4949C227.245 33.4281 227.389 33.4596 227.498 33.5893C227.606 33.7191 227.64 33.9275 227.601 34.2147C227.584 34.4994 227.457 34.8432 227.217 35.2463ZM217.143 37.8909C217.209 37.4122 217.289 36.8495 217.384 36.2028C217.479 35.556 217.554 34.9351 217.607 34.3399C217.661 33.7448 217.69 33.2583 217.697 32.8805C217.724 32.4768 217.692 32.2916 217.601 32.325C217.487 32.3609 217.363 32.4097 217.228 32.4714C217.117 32.5306 216.969 32.5819 216.785 32.6254C216.601 32.6688 216.419 32.7239 216.237 32.7906C216.383 32.3977 216.455 32.0834 216.453 31.8479C216.472 31.5865 216.463 31.3872 216.424 31.2499C216.383 31.0893 216.323 30.9662 216.243 30.8806C215.964 30.6985 215.528 30.9224 214.936 31.5522C214.365 32.1561 213.739 33.2374 213.059 34.796C212.775 35.4396 212.566 36.1223 212.432 36.844C212.296 37.5424 212.214 38.1996 212.186 38.8155C212.182 39.4289 212.228 39.9661 212.325 40.4271C212.419 40.8648 212.544 41.1459 212.699 41.2706C212.983 41.4993 213.288 41.5959 213.615 41.5607C213.938 41.5021 214.254 41.3737 214.563 41.1753C214.892 40.9511 215.205 40.6816 215.501 40.3667C215.82 40.0493 216.092 39.7253 216.315 39.3947C216.562 39.0616 216.753 38.758 216.889 38.4841C217.047 38.2076 217.132 38.0099 217.143 37.8909ZM235.219 28.4056C235.496 28.1398 235.769 27.9336 236.036 27.7869C236.324 27.6143 236.581 27.4922 236.809 27.4204C237.058 27.3228 237.312 27.2718 237.571 27.2674C238.205 27.246 238.611 27.4025 238.788 27.7369C238.989 28.0688 239.073 28.6255 239.04 29.4071C239.013 29.8108 238.927 30.3269 238.783 30.9554C238.639 31.5839 238.475 32.356 238.291 33.2716C238.105 34.164 237.909 35.1871 237.704 36.3408C237.522 37.492 237.367 38.7817 237.238 40.2101C237.082 41.382 236.922 42.7313 236.757 44.2579C236.618 45.593 236.451 47.2023 236.254 49.086C236.08 50.9671 235.9 53.1199 235.715 55.5445C235.661 56.1397 235.442 56.5052 235.056 56.6412C234.693 56.7747 234.292 56.7709 233.852 56.6299C233.679 56.5543 233.516 56.4658 233.364 56.3644C233.234 56.2605 233.091 56.1345 232.934 55.9865C232.779 55.8618 232.641 55.6763 232.52 55.4301C232.844 53.4149 233.117 51.5819 233.339 49.9313C233.585 48.2782 233.807 46.8398 234.004 45.6162C234.205 44.2036 234.398 42.9334 234.582 41.8055C234.646 41.3035 234.699 40.8145 234.742 40.3384C234.805 39.8365 234.87 39.3462 234.936 38.8676C234.686 39.3897 234.41 39.891 234.109 40.3715C233.807 40.852 233.464 41.278 233.08 41.6495C232.696 42.0211 232.268 42.3149 231.796 42.5308C231.35 42.7676 230.867 42.8788 230.347 42.8642C229.071 42.8371 228.124 42.468 227.504 41.757C226.909 41.0434 226.579 40.0654 226.515 38.8229C226.486 38.331 226.497 37.7875 226.551 37.1924C226.604 36.5973 226.672 36.0242 226.754 35.4731C226.836 34.9221 226.912 34.4306 226.983 33.9985C227.075 33.5407 227.146 33.2148 227.196 33.0208C227.38 32.1052 227.496 31.3265 227.544 30.6847C227.616 30.0405 227.466 29.5263 227.094 29.1421C227.398 28.8971 227.686 28.7246 227.958 28.6245C228.251 28.4985 228.511 28.3997 228.739 28.3279C228.993 28.2769 229.249 28.2492 229.508 28.2448C230.147 28.27 230.534 28.464 230.667 28.8267C230.824 29.187 230.85 29.75 230.744 30.5158C230.693 30.922 230.597 31.451 230.456 32.1028C230.312 32.7313 230.158 33.3843 229.996 34.062C229.834 34.7396 229.689 35.3681 229.563 35.9475C229.435 36.5035 229.372 36.8994 229.374 37.1349C229.277 38.2061 229.354 39.0229 229.603 39.5853C229.85 40.1244 230.288 40.36 230.917 40.292C231.22 40.2592 231.544 40.0946 231.89 39.798C232.232 39.4781 232.566 39.0766 232.891 38.5936C233.239 38.108 233.569 37.5655 233.882 36.966C234.191 36.3432 234.466 35.7241 234.706 35.1088C234.969 34.491 235.187 33.8899 235.36 33.3055C235.556 32.7186 235.688 32.1974 235.756 31.7421C235.826 30.8623 235.858 30.1753 235.852 29.6809C235.845 29.1865 235.634 28.7614 235.219 28.4056ZM260.244 12.158C260.472 12.0863 260.714 12.0365 260.97 12.0088C261.18 11.9861 261.404 11.9855 261.642 12.0069C261.903 12.0259 262.146 12.0939 262.371 12.211L259.187 32.4633C259.145 32.7272 258.963 33.0061 258.641 33.3002C258.319 33.5943 257.969 33.8443 257.591 34.0502C257.233 34.2303 256.904 34.3484 256.604 34.4044C256.324 34.4347 256.195 34.3307 256.216 34.0927C256.269 33.7098 256.38 32.7784 256.55 31.2984C256.622 30.6542 256.714 29.8663 256.825 28.9349C256.934 27.9802 257.058 26.8353 257.196 25.5002C257.358 24.1626 257.544 22.6102 257.753 20.8431C257.96 19.0526 258.199 17.0113 258.47 14.7189C258.475 14.5533 258.481 14.3877 258.487 14.222C258.497 14.103 258.483 13.9748 258.445 13.8376C258.43 13.6977 258.395 13.5954 258.341 13.5305C258.505 13.3007 258.696 13.1033 258.913 12.9383C259.129 12.75 259.336 12.5979 259.536 12.482C259.782 12.3611 260.018 12.2531 260.244 12.158ZM257.413 36.3325C258.009 36.1738 258.505 36.1792 258.9 36.3486C259.293 36.4948 259.495 36.8383 259.507 37.3793C259.516 37.6847 259.42 37.9898 259.217 38.2946C259.012 38.5761 258.757 38.8394 258.454 39.0843C258.173 39.3268 257.865 39.5251 257.528 39.6794C257.214 39.8312 256.929 39.9209 256.673 39.9486C256.184 40.0015 255.753 39.942 255.381 39.77C255.008 39.5981 254.82 39.2766 254.817 38.8055C254.807 38.5001 254.883 38.2208 255.044 37.9676C255.18 37.6937 255.365 37.4496 255.601 37.2355C255.861 37.0189 256.147 36.8347 256.461 36.6829C256.775 36.5312 257.092 36.4144 257.413 36.3325ZM270.946 11.0015C271.174 10.9297 271.416 10.8799 271.673 10.8522C271.882 10.8296 272.106 10.829 272.344 10.8504C272.606 10.8693 272.849 10.9373 273.073 11.0545L269.89 31.3067C269.847 31.5706 269.665 31.8496 269.344 32.1437C269.022 32.4378 268.672 32.6878 268.293 32.8937C267.936 33.0738 267.606 33.1918 267.306 33.2479C267.026 33.2781 266.897 33.1742 266.919 32.9361C266.972 32.5532 267.083 31.6218 267.253 30.1419C267.325 29.4976 267.416 28.7098 267.528 27.7783C267.637 26.8236 267.76 25.6787 267.899 24.3436C268.06 23.006 268.246 21.4536 268.456 19.6865C268.663 17.8961 268.902 15.8547 269.172 13.5623C269.178 13.3967 269.183 13.2311 269.189 13.0655C269.2 12.9464 269.186 12.8183 269.148 12.681C269.132 12.5412 269.098 12.4388 269.044 12.374C269.207 12.1441 269.398 11.9467 269.616 11.7817C269.831 11.5934 270.039 11.4413 270.239 11.3255C270.485 11.2045 270.721 11.0966 270.946 11.0015ZM268.116 35.1759C268.712 35.0173 269.207 35.0226 269.603 35.1921C269.996 35.3382 270.198 35.6817 270.209 36.2227C270.219 36.5281 270.122 36.8333 269.919 37.1381C269.714 37.4196 269.46 37.6828 269.156 37.9278C268.876 38.1702 268.567 38.3686 268.23 38.5229C267.917 38.6746 267.632 38.7643 267.375 38.792C266.886 38.8449 266.455 38.7854 266.083 38.6135C265.711 38.4415 265.523 38.12 265.519 37.6489C265.51 37.3435 265.586 37.0642 265.747 36.811C265.882 36.5371 266.068 36.2931 266.304 36.079C266.563 35.8623 266.85 35.6781 267.164 35.5264C267.477 35.3746 267.795 35.2578 268.116 35.1759Z" fill="#159741"/>
</svg>
