<svg width="300" height="70" viewBox="0 0 300 70" fill="none" xmlns="http://www.w3.org/2000/svg">
<path d="M2.01138 69.75C1.38999 69.8172 1.00617 69.7801 0.859911 69.6387C0.69056 69.5261 0.635258 69.257 0.694004 68.8316C0.70589 68.6993 0.77232 68.1028 0.893295 67.042C1.01707 66.0071 1.16742 64.7336 1.34434 63.2214C1.54995 61.7324 1.75451 60.1125 1.958 58.3617C2.18738 56.6082 2.40208 54.961 2.60209 53.4202C2.06398 53.5307 1.65847 53.5353 1.38556 53.4338C1.10984 53.3064 0.959377 53.1262 0.934167 52.8932C0.932047 52.6315 1.04644 52.3572 1.27733 52.0703C1.53412 51.7806 1.91162 51.5172 2.40984 51.28C2.5078 51.217 2.65754 51.1485 2.85907 51.0743C2.9409 50.6202 3.00839 50.1545 3.06154 49.6773C3.12308 49.2777 3.18183 48.8523 3.23778 48.401C3.29372 47.9496 3.35107 47.5112 3.40981 47.0858L4.87208 35.1801C4.963 34.5678 5.1484 34.1025 5.42828 33.7841C5.73124 33.4371 6.31167 33.1124 7.16955 32.8102C7.87489 32.5506 8.37276 32.4313 8.66316 32.4523C8.95077 32.4474 9.08862 32.5111 9.07674 32.6433C9.02988 32.9365 8.90992 33.6436 8.71688 34.7646C8.52383 35.8856 8.29267 37.2595 8.02339 38.8864C7.7772 40.4846 7.51038 42.2553 7.22293 44.1985C6.93268 46.1157 6.65398 48.0187 6.38682 49.9073C7.91506 49.5064 9.78409 49.108 11.9939 48.712C12.8371 48.5161 13.6586 48.3618 14.4584 48.2492C15.2841 48.1338 16.0738 48.0485 16.8274 47.9932C17.0387 46.556 17.2369 45.1201 17.4223 43.6856C17.6335 42.2484 17.83 40.9175 18.0118 39.6929C18.1937 38.4684 18.3521 37.3904 18.4871 36.4591C18.6451 35.499 18.7651 34.792 18.8469 34.3378C18.9491 33.8291 19.048 33.4124 19.1439 33.0877C19.2656 32.7603 19.4073 32.4961 19.5689 32.2953C19.7564 32.0917 19.9755 31.9371 20.226 31.8314C20.4765 31.7258 20.7672 31.6288 21.0982 31.5407C21.2794 31.5211 21.4981 31.4844 21.7542 31.4305C21.9613 31.4081 22.2073 31.3815 22.4921 31.3508C22.7741 31.2941 23.0991 31.2721 23.4672 31.2847C22.7691 34.0318 22.1398 36.8108 21.5796 39.6217C21.0424 42.4038 20.5499 45.1157 20.1023 47.7572C20.5739 47.7586 20.9795 47.7541 21.3188 47.7436C21.6841 47.7303 21.9731 47.7384 22.1858 47.7678C22.8184 47.8042 23.225 47.9305 23.4056 48.1467C23.612 48.3602 23.5966 48.7023 23.3595 49.1732L22.9564 49.8061C22.8235 50.0301 22.6559 50.297 22.4537 50.607C22.2487 50.8911 21.9832 51.221 21.6571 51.5967C21.4416 51.5414 21.2131 51.4876 20.9717 51.4351C20.7562 51.3798 20.5406 51.3245 20.3251 51.2692C20.0578 51.2195 19.8034 51.1684 19.562 51.1159C19.448 51.7569 19.3455 52.3835 19.2546 52.9958C19.1609 53.5822 19.0815 54.1801 19.0165 54.7896C18.843 56.0918 18.6868 57.4314 18.5476 58.8085C18.4406 59.9988 18.3333 61.3069 18.2257 62.733C18.1467 64.1822 18.1167 65.5998 18.1357 66.986C17.9398 67.112 17.7397 67.1991 17.5354 67.2474C17.3338 67.3215 17.1568 67.3799 17.0043 67.4226C16.8258 67.4681 16.6474 67.5136 16.469 67.559L16.4301 67.5632L16.3525 67.5716L16.2748 67.58C16.1712 67.5912 16.0677 67.6024 15.9641 67.6136C15.8605 67.6248 15.7542 67.6101 15.645 67.5695C15.5127 67.5576 15.3791 67.5328 15.244 67.495C15.109 67.4572 14.9739 67.4194 14.8389 67.3816C14.7325 67.3669 14.6104 67.3277 14.4725 67.264C14.5872 66.3873 14.6557 65.5679 14.6781 64.8058C14.7263 64.041 14.7455 63.371 14.7356 62.7958C14.7405 62.1143 14.7278 61.5132 14.6977 60.9926C14.6508 60.3166 14.4933 59.5872 14.2252 58.8041C13.983 58.0183 13.6387 57.2566 13.1922 56.5191C12.7715 55.7787 12.2659 55.1 11.6753 54.4828C11.1105 53.8628 10.4793 53.3547 9.7816 52.9586C9.08671 52.5885 8.43451 52.3708 7.82501 52.3057C7.24141 52.2378 6.65466 52.2619 6.06477 52.3781C5.96757 53.1744 5.88051 53.9434 5.80359 54.6851C5.72668 55.4268 5.67285 56.1399 5.64212 56.8242C5.51978 58.3566 5.40619 59.8488 5.30134 61.3008C5.22586 62.54 5.14164 63.8195 5.04867 65.1392C4.9844 66.482 4.9509 67.625 4.94818 68.5683C4.55633 68.8202 4.18478 69.0175 3.83351 69.1602C3.48504 69.3289 3.17121 69.4545 2.89201 69.537C2.58972 69.6483 2.29618 69.7193 2.01138 69.75ZM15.5251 50.845C14.6077 50.8393 13.7347 50.8813 12.9062 50.9708C12.1008 51.0317 11.3874 51.0956 10.766 51.1628C11.3146 51.3916 11.8084 51.7181 12.2471 52.1421C12.7118 52.5634 13.1964 53.048 13.701 53.5959C14.1741 54.0949 14.5751 54.654 14.904 55.2733C15.233 55.8925 15.5203 56.4901 15.7659 57.066C15.8554 55.9562 15.9606 54.8709 16.0816 53.8101C16.2026 52.7493 16.3176 51.7547 16.4267 50.8261C16.2686 50.817 16.1118 50.8208 15.9565 50.8376C15.8242 50.8257 15.6804 50.8282 15.5251 50.845ZM47.2256 49.6195C46.9192 50.1765 46.5231 50.8741 46.0376 51.7124C45.5492 52.5247 45.0363 53.3529 44.499 54.1967C43.9847 55.0119 43.4649 55.7753 42.9394 56.4869C42.437 57.1698 42.0057 57.6617 41.6453 57.9626C41.4032 58.1459 41.1195 58.3076 40.7941 58.4475C40.4687 58.5874 40.1262 58.6899 39.7665 58.755C39.4327 58.8173 39.1063 58.8264 38.7872 58.7823C38.4709 58.764 38.1879 58.6899 37.938 58.5597C37.6854 58.4036 37.4632 58.1657 37.2715 57.8459C37.1112 57.5751 36.9411 57.2137 36.7612 56.7617C36.6073 56.3068 36.5054 55.7285 36.4557 55.0266C35.9463 56.1294 35.347 57.0062 34.6578 57.6569C33.9658 58.2817 33.2972 58.76 32.6521 59.0916C31.9062 59.4604 31.1476 59.7126 30.3765 59.8483C30.014 59.8875 29.6117 59.8 29.1694 59.5859C28.7299 59.3976 28.3398 59.06 27.999 58.5729C27.6554 58.06 27.3999 57.3935 27.2326 56.5734C27.0625 55.7274 27.0568 54.7065 27.2155 53.5106C27.4072 51.8921 27.8213 50.3936 28.458 49.0152C29.1205 47.6339 29.8688 46.4398 30.7029 45.4329C31.5341 44.4001 32.3776 43.6018 33.2334 43.0378C34.0891 42.4739 34.8176 42.1856 35.4187 42.173C36.1317 42.2269 36.7237 42.3725 37.1947 42.6097C37.5852 42.8295 37.8602 43.1927 38.0198 43.6993C38.2025 44.1772 38.0668 44.8598 37.6127 45.7471C37.9668 45.6302 38.2589 45.5463 38.4891 45.4952C38.7452 45.4413 38.938 45.4074 39.0675 45.3934C39.2228 45.3766 39.3278 45.3784 39.3824 45.3987C39.4138 45.4476 39.4394 45.5627 39.459 45.744C39.4758 45.8993 39.4692 46.2013 39.4391 46.6498C39.4091 47.0983 39.357 47.7064 39.2829 48.474C39.2088 49.2416 39.1067 50.2349 38.9766 51.4539C38.95 51.6925 38.9221 51.9181 38.8927 52.1309C38.8864 52.3149 38.8686 52.5133 38.8392 52.726C38.8329 52.91 38.8179 53.1343 38.7941 53.3988C38.7704 53.6633 38.7406 53.9939 38.705 54.3907C38.7043 54.6265 38.7194 54.8868 38.7502 55.1716C38.8041 55.4277 38.8825 55.6681 38.9854 55.8927C39.0882 56.1173 39.2258 56.2989 39.3979 56.4374C39.5932 56.5473 39.8461 56.5855 40.1568 56.5519C40.4157 56.5239 40.7355 56.3322 41.1161 55.9767C41.494 55.5954 41.8893 55.1336 42.3021 54.5913C42.7121 54.0231 43.1309 53.4147 43.5584 52.7661C44.009 52.0887 44.4236 51.4415 44.8021 50.8243C45.1806 50.2072 45.5143 49.6603 45.8033 49.1838C46.1182 48.7045 46.3421 48.3529 46.475 48.129C46.6569 47.8736 46.85 47.7218 47.0544 47.6735C47.2559 47.5993 47.4168 47.6343 47.5372 47.7785C47.6576 47.9226 47.6957 48.1542 47.6517 48.4733C47.6335 48.7896 47.4915 49.1716 47.2256 49.6195ZM36.0314 52.5579C36.1048 52.0261 36.1944 51.4009 36.3 50.6823C36.4056 49.9637 36.4881 49.2737 36.5475 48.6125C36.607 47.9512 36.6401 47.4107 36.6471 46.9908C36.6772 46.5423 36.6418 46.3365 36.541 46.3736C36.4144 46.4135 36.2762 46.4677 36.1265 46.5363C36.0026 46.6021 35.8385 46.6591 35.6342 46.7074C35.4299 46.7556 35.2269 46.8169 35.0254 46.891C35.1877 46.4544 35.2678 46.1052 35.2657 45.8435C35.2867 45.5531 35.2758 45.3317 35.2331 45.1791C35.1876 45.0007 35.1204 44.8639 35.0315 44.7687C34.7215 44.5665 34.2377 44.8152 33.5799 45.5149C32.9453 46.1859 32.2502 47.3874 31.4946 49.1192C31.1791 49.8343 30.9468 50.5928 30.7978 51.3947C30.646 52.1708 30.5548 52.9009 30.524 53.5853C30.5192 54.2668 30.5707 54.8637 30.6785 55.3759C30.7835 55.8622 30.922 56.1747 31.0942 56.3132C31.4098 56.5673 31.7488 56.6747 32.1113 56.6355C32.471 56.5705 32.8223 56.4277 33.1651 56.2073C33.5311 55.9582 33.8785 55.6588 34.2074 55.3089C34.5621 54.9562 34.8637 54.5962 35.1121 54.2289C35.3863 53.8587 35.5987 53.5215 35.7491 53.2171C35.9254 52.9099 36.0195 52.6902 36.0314 52.5579ZM58.0793 49.2717C57.5126 50.3282 56.9171 51.3617 56.293 52.3721C55.6948 53.3797 55.0997 54.2953 54.5078 55.1189C53.939 55.9138 53.3936 56.5621 52.8716 57.0638C52.3783 57.5886 51.9634 57.8691 51.6268 57.9055C50.8242 57.9922 50.1233 57.6882 49.5243 56.9933C48.9483 56.2698 48.4577 55.3667 48.0525 54.2842C47.6703 53.173 47.3718 51.9873 47.1568 50.727C46.965 49.4381 46.8533 48.2846 46.8217 47.2664C46.816 46.2455 46.8457 45.4303 46.9108 44.8208C46.973 44.1855 47.0765 43.6897 47.2213 43.3335C47.392 42.9746 47.5984 42.7034 47.8406 42.5201C48.1085 42.334 48.4441 42.1668 48.8471 42.0184C49.0228 41.9471 49.2257 41.8859 49.4559 41.8348C49.6861 41.7837 49.8946 41.7743 50.0815 41.8065C50.2914 41.81 50.4552 41.8709 50.5727 41.9891C50.6903 42.1074 50.7242 42.3002 50.6746 42.5675C50.648 42.8061 50.5952 43.1654 50.5162 43.6454C50.4602 44.0967 50.3983 44.6142 50.3305 45.1978C50.2627 45.7814 50.1977 46.3908 50.1354 47.0262C50.0991 47.6588 50.0858 48.2626 50.0957 48.8378C50.1244 49.8301 50.2183 50.6974 50.3772 51.4398C50.5333 52.1564 50.717 52.7652 50.9284 53.2662C51.137 53.7413 51.3459 54.0986 51.5551 54.3379C51.7644 54.5772 51.9208 54.6913 52.0243 54.6801C52.1538 54.6661 52.3686 54.4726 52.6688 54.0997C52.992 53.698 53.3429 53.1886 53.7214 52.5715C54.1258 51.9515 54.5334 51.2395 54.9441 50.4355C55.3807 49.6288 55.7756 48.8003 56.1289 47.9501C55.9288 47.5527 55.8108 47.0677 55.7751 46.4953C55.7575 45.6067 55.8663 44.796 56.1013 44.0634C56.3336 43.3049 56.6173 42.6587 56.9525 42.1248C57.3135 41.5881 57.6871 41.1679 58.0734 40.8643C58.4827 40.5319 58.8557 40.3475 59.1922 40.3111C59.8654 40.2384 60.2993 40.3749 60.4938 40.7206C60.7115 41.0375 60.814 41.3801 60.8015 41.7481C60.8085 42.2974 60.6438 43.0748 60.3073 44.0804C59.9938 45.0572 59.5608 46.1386 59.0081 47.3247C59.1431 47.3625 59.2911 47.3988 59.4521 47.4338C59.613 47.4688 59.7971 47.4751 60.0042 47.4528C60.8845 47.3576 61.6629 47.1687 62.3396 46.8861C63.0421 46.6006 63.6369 46.2875 64.1239 45.9467C64.6368 45.6032 65.0577 45.2565 65.3865 44.9066C65.7385 44.5281 66.0198 44.2226 66.2304 43.9903C66.3689 43.8182 66.5159 43.7237 66.6712 43.707C66.8266 43.6902 66.9602 43.715 67.0722 43.7815C67.1841 43.848 67.2485 43.9589 67.2653 44.1142C67.2821 44.2696 67.2227 44.4463 67.0869 44.6443C66.2781 45.8842 65.2384 46.9264 63.9677 47.771C62.7228 48.6127 61.2072 49.1301 59.4207 49.3231C59.2654 49.3399 59.0698 49.348 58.834 49.3473C58.5982 49.3465 58.3466 49.3213 58.0793 49.2717ZM83.1658 45.382C82.5123 46.6051 81.7525 47.8135 80.8863 49.0072C80.0173 50.1751 79.0723 51.2464 78.0515 52.2211C77.0537 53.1671 76.0002 53.9619 74.8912 54.6056C73.808 55.2466 72.7227 55.6258 71.6353 55.7433C71.0657 55.8048 70.4289 55.7296 69.7249 55.5175C69.0496 55.3286 68.4093 54.9787 67.804 54.4679C67.1987 53.957 66.6787 53.2667 66.2441 52.3969C65.8353 51.5243 65.6257 50.4337 65.6151 49.1252C65.6038 48.0525 65.807 46.9043 66.2246 45.6804C66.6654 44.4279 67.2339 43.2664 67.93 42.1958C68.6521 41.1224 69.483 40.2075 70.4227 39.4511C71.3883 38.692 72.3889 38.2564 73.4246 38.1445C74.4084 38.0382 75.147 38.2072 75.6404 38.6515C76.1338 39.0959 76.3938 39.6833 76.4204 40.4139C76.4296 41.2249 76.2764 41.9879 75.9609 42.7031C75.6712 43.4154 75.2969 44.0714 74.8379 44.671C74.3789 45.2707 73.8755 45.8228 73.3276 46.3273C72.8056 46.829 72.3053 47.289 71.8267 47.7075C71.2991 48.1574 70.7961 48.5915 70.3174 49.01C69.836 49.4025 69.4166 49.7622 69.059 50.0889C69.1549 50.7334 69.3303 51.2645 69.585 51.6823C69.8398 52.1 70.1379 52.4345 70.4794 52.6857C70.8181 52.911 71.1886 53.0675 71.591 53.1549C72.0164 53.2137 72.4363 53.2208 72.8506 53.176C73.7309 53.0809 74.6206 52.7097 75.5197 52.0625C76.4161 51.3893 77.2753 50.6155 78.0974 49.7408C78.9427 48.8375 79.7075 47.9167 80.3917 46.9783C81.1019 46.0372 81.6823 45.228 82.1329 44.5506C82.2917 44.3239 82.4604 44.1878 82.6388 44.1424C82.8403 44.0682 82.9985 44.0773 83.1132 44.1697C83.2511 44.2334 83.3326 44.3817 83.3578 44.6147C83.3803 44.8218 83.3162 45.0776 83.1658 45.382ZM72.5767 40.4756C72.266 40.5092 71.9074 40.7051 71.5008 41.0634C71.1202 41.4188 70.7549 41.9167 70.4051 42.5569C70.0525 43.1713 69.7411 43.9253 69.4711 44.8188C69.1983 45.6865 69.0301 46.6738 68.9665 47.7808C69.2519 47.5142 69.5633 47.2448 69.9006 46.9726C70.235 46.6746 70.5681 46.3635 70.8998 46.0396C71.9206 45.0649 72.6161 44.2301 72.9863 43.5353C73.3564 42.8405 73.5421 42.2572 73.5435 41.7856C73.542 41.2881 73.4524 40.9442 73.2747 40.7538C73.0941 40.5376 72.8615 40.4449 72.5767 40.4756ZM115.453 42.2464C115.147 42.8034 114.751 43.501 114.265 44.3393C113.777 45.1517 113.264 45.9798 112.727 46.8237C112.213 47.6389 111.693 48.4023 111.167 49.1139C110.665 49.7968 110.233 50.2887 109.873 50.5896C109.631 50.7729 109.347 50.9345 109.022 51.0745C108.696 51.2144 108.354 51.3169 107.994 51.382C107.661 51.4442 107.334 51.4533 107.015 51.4092C106.699 51.391 106.416 51.3168 106.166 51.1867C105.913 51.0306 105.691 50.7927 105.499 50.4729C105.339 50.2021 105.169 49.8407 104.989 49.3886C104.835 48.9338 104.733 48.3554 104.683 47.6536C104.174 48.7564 103.575 49.6331 102.886 50.2839C102.194 50.9087 101.525 51.3869 100.88 51.7186C100.134 52.0873 99.3754 52.3396 98.6043 52.4753C98.2418 52.5144 97.8394 52.427 97.3972 52.2128C96.9577 52.0246 96.5676 51.6869 96.2268 51.1999C95.8831 50.687 95.6277 50.0205 95.4604 49.2003C95.2902 48.3544 95.2846 47.3334 95.4433 46.1376C95.6349 44.5191 96.0491 43.0206 96.6857 41.6421C97.3483 40.2609 98.0966 39.0668 98.9306 38.0599C99.7619 37.0271 100.605 36.2287 101.461 35.6648C102.317 35.1008 103.045 34.8126 103.646 34.8C104.359 34.8539 104.951 34.9995 105.422 35.2367C105.813 35.4564 106.088 35.8196 106.248 36.3262C106.43 36.8042 106.295 37.4868 105.84 38.374C106.195 38.2572 106.487 38.1732 106.717 38.1221C106.973 38.0683 107.166 38.0343 107.295 38.0203C107.451 38.0036 107.556 38.0053 107.61 38.0256C107.642 38.0746 107.667 38.1897 107.687 38.3709C107.704 38.5263 107.697 38.8282 107.667 39.2768C107.637 39.7253 107.585 40.3334 107.511 41.101C107.437 41.8686 107.334 42.8619 107.204 44.0808C107.178 44.3194 107.15 44.5451 107.12 44.7578C107.114 44.9418 107.096 45.1402 107.067 45.3529C107.061 45.537 107.046 45.7612 107.022 46.0257C106.998 46.2902 106.968 46.6209 106.933 47.0176C106.932 47.2534 106.947 47.5137 106.978 47.7985C107.032 48.0546 107.11 48.295 107.213 48.5196C107.316 48.7443 107.454 48.9258 107.626 49.0644C107.821 49.1743 108.074 49.2124 108.385 49.1788C108.643 49.1509 108.963 48.9591 109.344 48.6037C109.722 48.2223 110.117 47.7605 110.53 47.2182C110.94 46.6501 111.359 46.0417 111.786 45.393C112.237 44.7157 112.651 44.0684 113.03 43.4513C113.408 42.8341 113.742 42.2873 114.031 41.8108C114.346 41.3315 114.57 40.9799 114.703 40.7559C114.885 40.5005 115.078 40.3487 115.282 40.3004C115.484 40.2263 115.645 40.2613 115.765 40.4054C115.885 40.5496 115.923 40.7812 115.879 41.1003C115.861 41.4165 115.719 41.7986 115.453 42.2464ZM104.259 45.1849C104.333 44.6531 104.422 44.0279 104.528 43.3092C104.633 42.5906 104.716 41.9007 104.775 41.2394C104.835 40.5782 104.868 40.0376 104.875 39.6178C104.905 39.1692 104.87 38.9635 104.769 39.0006C104.642 39.0405 104.504 39.0947 104.354 39.1633C104.23 39.229 104.066 39.286 103.862 39.3343C103.658 39.3826 103.455 39.4438 103.253 39.518C103.415 39.0813 103.496 38.7322 103.493 38.4705C103.514 38.1801 103.504 37.9586 103.461 37.8061C103.415 37.6276 103.348 37.4908 103.259 37.3957C102.949 37.1934 102.465 37.4422 101.808 38.1419C101.173 38.8129 100.478 40.0143 99.7224 41.7462C99.4068 42.4613 99.1746 43.2198 99.0256 44.0217C98.8738 44.7977 98.7825 45.5279 98.7518 46.2122C98.747 46.8938 98.7984 47.4907 98.9062 48.0029C99.0112 48.4892 99.1498 48.8016 99.322 48.9402C99.6376 49.1942 99.9766 49.3016 100.339 49.2625C100.699 49.1974 101.05 49.0547 101.393 48.8343C101.759 48.5852 102.106 48.2857 102.435 47.9358C102.79 47.5832 103.091 47.2232 103.34 46.8558C103.614 46.4857 103.826 46.1484 103.977 45.844C104.153 45.5369 104.247 45.3171 104.259 45.1849ZM140.45 48.3461C139.854 48.4105 139.324 48.3499 138.859 48.1645C138.422 48.0021 138.054 47.7537 137.756 47.4192C137.458 47.0847 137.245 46.6887 137.117 46.231C136.986 45.7475 136.956 45.2269 137.027 44.6692C137.065 44.2983 137.143 43.8054 137.26 43.1903C137.374 42.5493 137.483 41.8695 137.589 41.1509C137.718 40.4036 137.822 39.672 137.902 38.9562C138.004 38.2117 138.051 37.5518 138.041 36.9766C138.028 36.3755 137.951 35.8994 137.808 35.5481C137.662 35.1709 137.421 35.0005 137.085 35.0369C136.67 35.0817 136.259 35.2702 135.849 35.6026C135.437 35.9091 135.023 36.3205 134.608 36.8369C134.218 37.3505 133.824 37.9431 133.425 38.6149C133.049 39.2579 132.676 39.9269 132.306 40.6217C132.168 41.5271 132.058 42.3249 131.976 43.0148C131.89 43.6788 131.812 44.2897 131.742 44.8474C131.694 45.3764 131.641 45.8536 131.582 46.2791C131.521 46.6786 131.471 47.0638 131.432 47.4347C131.383 47.702 131.178 47.9861 130.817 48.287C130.454 48.5619 130.061 48.8009 129.637 49.0038C129.214 49.2067 128.847 49.3249 128.536 49.3585C128.2 49.3949 128.045 49.2938 128.071 49.0552C128.081 48.897 128.133 48.5377 128.23 47.9772C128.3 47.4195 128.4 46.767 128.529 46.0197C128.629 45.2493 128.738 44.4386 128.855 43.5878C128.973 42.7369 129.081 41.9262 129.181 41.1558C129.246 40.5463 129.317 39.8707 129.394 39.129C129.456 38.4937 129.533 37.7519 129.625 36.9038C129.742 36.053 129.877 35.1216 130.03 34.1098C130.194 33.9349 130.363 33.7988 130.536 33.7015C130.732 33.5756 130.93 33.4755 131.132 33.4013C131.331 33.3013 131.545 33.2257 131.775 33.1747C131.983 33.1523 132.191 33.1428 132.401 33.1463C132.585 33.1526 132.772 33.1848 132.962 33.2429C133.174 33.2723 133.365 33.3434 133.535 33.456C133.477 33.6457 133.414 33.9144 133.347 34.2621C133.277 34.584 133.21 34.9318 133.145 35.3054C133.087 35.7309 133.003 36.1721 132.896 36.629C133.182 36.1266 133.507 35.62 133.871 35.1092C134.258 34.5697 134.676 34.0792 135.126 33.6377C135.602 33.1934 136.112 32.8239 136.656 32.5293C137.198 32.2089 137.766 32.0165 138.362 31.9521C138.854 31.899 139.309 31.9938 139.728 32.2366C140.148 32.4795 140.489 32.8486 140.752 33.344C141.038 33.8108 141.232 34.3922 141.334 35.0885C141.461 35.7819 141.453 36.5555 141.31 37.4092L141.067 39.1641C140.997 39.7218 140.898 40.3873 140.773 41.1605C140.67 41.905 140.524 42.7328 140.334 43.6439C140.24 44.2302 140.229 44.7292 140.299 45.1406C140.396 45.5493 140.677 45.7284 141.143 45.678C141.609 45.6277 142.161 45.2799 142.799 44.6348C143.462 43.9869 144.113 43.2224 144.751 42.3415C145.389 41.4605 145.987 40.5708 146.544 39.6724C147.099 38.748 147.517 38.0088 147.797 37.4546C147.994 37.0928 148.19 36.849 148.386 36.723C148.582 36.5971 148.736 36.5674 148.848 36.6338C148.986 36.6975 149.07 36.8718 149.101 37.1566C149.129 37.4155 149.062 37.7632 148.9 38.1999C148.758 38.5819 148.525 39.0917 148.201 39.7291C147.903 40.3638 147.531 41.0457 147.086 41.7748C146.641 42.5039 146.159 43.2501 145.639 44.0135C145.116 44.751 144.562 45.4396 143.976 46.0791C143.388 46.6928 142.788 47.2028 142.177 47.6094C141.595 48.039 141.019 48.2846 140.45 48.3461ZM155.238 22.6241C155.191 22.9173 155.066 23.2188 154.864 23.5288C154.685 23.8101 154.463 24.0568 154.198 24.2688C153.955 24.4521 153.695 24.585 153.416 24.6676C153.136 24.7501 152.898 24.7235 152.7 24.5878C152.111 24.2323 151.779 23.8229 151.703 23.3597C151.623 22.8706 151.691 22.4049 151.905 21.9627C152.116 21.4946 152.401 21.0971 152.758 20.7703C153.113 20.4177 153.43 20.2001 153.709 20.1175C153.988 20.035 154.228 20.0745 154.429 20.2362C154.653 20.3691 154.832 20.5724 154.967 20.846C155.098 21.0937 155.182 21.3859 155.219 21.7224C155.281 22.0562 155.287 22.3568 155.238 22.6241ZM150.773 31.4753C150.886 31.3059 151.118 31.1499 151.469 31.0072C151.82 30.8644 152.187 30.7462 152.57 30.6524C152.95 30.5328 153.295 30.4562 153.606 30.4226C153.94 30.3604 154.134 30.3394 154.189 30.3597C154.217 30.3828 154.182 30.6616 154.083 31.1962C153.983 31.7308 153.855 32.3602 153.698 33.0844C153.54 33.8087 153.373 34.5602 153.195 35.339C153.015 36.0919 152.885 36.7084 152.806 37.1884C152.727 37.6684 152.629 38.216 152.512 38.831C152.392 39.4202 152.286 40.008 152.192 40.5944C152.121 41.1521 152.087 41.6797 152.088 42.1772C152.09 42.6747 152.169 43.0459 152.327 43.2908C152.49 43.5875 152.656 43.7922 152.825 43.9049C152.992 43.9917 153.166 44.0253 153.347 44.0057C153.865 43.9497 154.481 43.595 155.196 42.9414C155.937 42.2851 156.667 41.5252 157.386 40.6618C158.127 39.7696 158.804 38.8845 159.416 38.0063C160.026 37.1023 160.472 36.3861 160.756 35.8578C160.935 35.5765 161.124 35.3859 161.322 35.2858C161.547 35.1829 161.73 35.1763 161.87 35.2659C162.037 35.3527 162.133 35.5126 162.158 35.7456C162.209 35.9758 162.161 36.256 162.013 36.5863C161.677 37.356 161.163 38.2891 160.469 39.3856C159.773 40.4561 159.022 41.5064 158.217 42.5364C157.409 43.5405 156.6 44.4137 155.789 45.1561C155.005 45.8957 154.342 46.3079 153.801 46.3925C153.364 46.466 152.916 46.4359 152.456 46.3022C152.025 46.1916 151.613 46.0135 151.219 45.7679C150.849 45.4936 150.527 45.1748 150.251 44.8116C149.974 44.4226 149.798 44.0094 149.724 43.572C149.577 42.9332 149.482 42.0529 149.439 40.9312C149.393 39.7836 149.411 38.6161 149.492 37.4286C149.57 36.2153 149.707 35.0611 149.903 33.966C150.125 32.8681 150.415 32.0379 150.773 31.4753ZM168.529 42.9936C169.332 42.9069 170.178 42.5011 171.069 41.7762C171.983 41.0226 172.847 40.1696 173.661 39.2173C174.5 38.2622 175.248 37.3039 175.903 36.3425C176.582 35.3524 177.086 34.5645 177.416 33.9789C177.612 33.6171 177.811 33.3991 178.013 33.325C178.212 33.2249 178.37 33.234 178.487 33.3523C178.605 33.4705 178.666 33.6735 178.671 33.9611C178.673 34.2228 178.589 34.5331 178.418 34.8921C178.271 35.2223 178.009 35.709 177.633 36.352C177.281 36.9664 176.844 37.6553 176.324 38.4187C175.828 39.1534 175.243 39.9238 174.571 40.7299C173.921 41.5072 173.228 42.237 172.489 42.9193C171.748 43.5756 170.97 44.1312 170.155 44.586C169.343 45.0666 168.522 45.3518 167.694 45.4413C166.555 45.5644 165.573 45.4478 164.749 45.0916C163.953 44.7585 163.286 44.2806 162.747 43.6578C162.234 43.0322 161.843 42.3279 161.575 41.5449C161.304 40.736 161.125 39.9302 161.039 39.1276C160.952 38.325 161.025 37.3086 161.259 36.0785C161.492 34.8483 161.9 33.6518 162.481 32.4888C163.086 31.2972 163.89 30.2543 164.893 29.36C165.894 28.4399 167.132 27.9001 168.608 27.7406C169.436 27.6511 170.166 27.8604 170.797 28.3684C171.454 28.8736 171.823 29.6196 171.904 30.6062C171.954 31.0722 171.927 31.5467 171.822 32.0295C171.714 32.4864 171.551 32.9101 171.331 33.3006C171.108 33.6651 170.827 33.9705 170.487 34.2168C170.173 34.4603 169.809 34.6045 169.394 34.6492C169.058 34.6856 168.786 34.5971 168.58 34.3836C168.397 34.1415 168.262 33.8679 168.177 33.5628C168.114 33.229 168.079 32.9054 168.072 32.5919C168.09 32.2756 168.119 32.0629 168.16 31.9538C168.27 31.7585 168.398 31.6137 168.545 31.5192C168.692 31.4248 168.863 31.3146 169.059 31.1886C169.206 31.0942 169.31 30.9651 169.371 30.8013C169.458 30.6348 169.491 30.4609 169.472 30.2797C169.452 30.0985 169.384 29.9487 169.266 29.8304C169.148 29.7122 168.973 29.6656 168.74 29.6908C168.507 29.716 168.101 29.9564 167.522 30.4119C166.965 30.8387 166.404 31.4625 165.838 32.2833C165.295 33.0753 164.838 34.0546 164.466 35.2211C164.095 36.3875 163.976 37.71 164.11 39.1886C164.176 40.0458 164.369 40.7322 164.686 41.248C165.004 41.7637 165.374 42.1559 165.796 42.4246C166.218 42.6933 166.669 42.8672 167.149 42.9463C167.629 43.0254 168.089 43.0412 168.529 42.9936ZM195.224 33.2724C194.571 34.4955 193.811 35.7039 192.945 36.8976C192.076 38.0655 191.131 39.1367 190.11 40.1114C189.112 41.0574 188.059 41.8523 186.95 42.496C185.867 43.1369 184.781 43.5162 183.694 43.6337C183.124 43.6952 182.487 43.62 181.783 43.4079C181.108 43.219 180.468 42.8691 179.863 42.3582C179.257 41.8474 178.737 41.1571 178.303 40.2873C177.894 39.4147 177.684 38.3241 177.674 37.0156C177.662 35.9429 177.865 34.7946 178.283 33.5708C178.724 32.3183 179.292 31.1567 179.989 30.0862C180.711 29.0128 181.542 28.0979 182.481 27.3415C183.447 26.5823 184.447 26.1468 185.483 26.0349C186.467 25.9285 187.206 26.0976 187.699 26.5419C188.192 26.9863 188.452 27.5737 188.479 28.3043C188.488 29.1153 188.335 29.8783 188.019 30.5934C187.73 31.3058 187.355 31.9618 186.896 32.5614C186.437 33.1611 185.934 33.7132 185.386 34.2177C184.864 34.7193 184.364 35.1794 183.885 35.5978C183.358 36.0477 182.855 36.4819 182.376 36.9003C181.895 37.2929 181.475 37.6525 181.118 37.9793C181.213 38.6238 181.389 39.1549 181.644 39.5726C181.898 39.9904 182.196 40.3249 182.538 40.5761C182.877 40.8014 183.247 40.9578 183.65 41.0453C184.075 41.1041 184.495 41.1111 184.909 41.0664C185.789 40.9712 186.679 40.6001 187.578 39.9528C188.475 39.2797 189.334 38.5058 190.156 37.6312C191.001 36.7279 191.766 35.807 192.45 34.8687C193.16 33.9276 193.741 33.1184 194.191 32.441C194.35 32.2143 194.519 32.0782 194.697 32.0327C194.899 31.9586 195.057 31.9677 195.172 32.06C195.31 32.1237 195.391 32.2721 195.416 32.5051C195.439 32.7122 195.375 32.968 195.224 33.2724ZM184.635 28.366C184.324 28.3996 183.966 28.5955 183.559 28.9538C183.179 29.3092 182.813 29.8071 182.464 30.4473C182.111 31.0617 181.8 31.8156 181.53 32.7092C181.257 33.5769 181.089 34.5642 181.025 35.6712C181.31 35.4046 181.622 35.1352 181.959 34.863C182.294 34.5649 182.627 34.2539 182.958 33.93C183.979 32.9553 184.675 32.1205 185.045 31.4257C185.415 30.7308 185.601 30.1476 185.602 29.676C185.601 29.1785 185.511 28.8345 185.333 28.6442C185.153 28.428 184.92 28.3352 184.635 28.366ZM219.972 31.2659C219.93 32.0825 219.883 32.8602 219.832 33.5992C219.807 34.3353 219.805 34.9248 219.827 35.3678C219.871 36.0178 220.038 36.4713 220.328 36.7281C220.617 36.9849 220.918 37.0965 221.228 37.0629C221.591 37.0238 222.011 36.795 222.49 36.3766C222.994 35.9553 223.515 35.4407 224.052 34.8326C224.588 34.2246 225.119 33.5647 225.645 32.8531C226.17 32.1415 226.648 31.4743 227.078 30.8516C227.532 30.2001 227.903 29.6362 228.192 29.1596C228.507 28.6803 228.722 28.369 228.837 28.2255C228.976 28.0534 229.122 27.946 229.274 27.9033C229.453 27.8578 229.598 27.8683 229.71 27.9348C229.822 28.0013 229.889 28.1381 229.911 28.3452C229.934 28.5523 229.858 28.8224 229.685 29.1555C229.427 29.681 229.089 30.3069 228.67 31.0332C228.248 31.7336 227.777 32.4656 227.257 33.229C226.737 33.9924 226.177 34.747 225.577 35.4929C225.002 36.236 224.407 36.9028 223.789 37.4934C223.198 38.0812 222.609 38.564 222.021 38.9418C221.462 39.3427 220.936 39.5698 220.444 39.6229C220.082 39.6621 219.721 39.5963 219.362 39.4256C219.029 39.252 218.715 39.0109 218.42 38.7023C218.124 38.3937 217.876 38.0407 217.676 37.6432C217.502 37.243 217.405 36.8343 217.387 36.4173C217.393 36.2332 217.398 35.9184 217.402 35.4726C216.446 36.807 215.451 37.8968 214.416 38.7421C213.404 39.5586 212.394 40.0214 211.384 40.1306C211.021 40.1697 210.623 40.1211 210.189 39.9846C209.756 39.8482 209.348 39.591 208.967 39.2131C208.611 38.8324 208.293 38.3167 208.013 37.6659C207.733 37.0152 207.567 36.208 207.516 35.2445C207.431 33.7344 207.574 32.2782 207.947 30.876C208.319 29.4737 208.84 28.2387 209.51 27.1709C210.204 26.0744 211.011 25.1882 211.934 24.5123C212.879 23.8077 213.857 23.4009 214.866 23.2918C215.306 23.2442 215.72 23.3173 216.108 23.5112C216.493 23.6791 216.834 23.9304 217.133 24.2648C217.428 24.5734 217.676 24.9265 217.876 25.3239C218.102 25.7186 218.273 26.093 218.39 26.447C218.49 25.6766 218.579 24.9206 218.656 24.1788C218.733 23.4371 218.814 22.7342 218.899 22.0702C219.054 21.0842 219.214 20.0192 219.378 18.8752C219.534 17.8892 219.712 16.7567 219.914 15.4776C220.117 14.1985 220.351 12.8504 220.616 11.4335C220.853 11.1984 221.082 11.0164 221.304 10.8877C221.526 10.7589 221.737 10.6575 221.939 10.5833C222.163 10.4805 222.379 10.4179 222.586 10.3955C222.845 10.3675 223.083 10.3811 223.298 10.4364C223.511 10.4658 223.697 10.6159 223.858 10.8867C224.041 11.1289 224.188 11.519 224.299 12.0571C224.409 12.5952 224.489 13.3331 224.538 14.2707C224.61 15.4155 224.537 16.6806 224.32 18.0661C224.129 19.4488 223.827 20.8959 223.415 22.4073C222.999 23.8928 222.494 25.4011 221.9 26.9321C221.329 28.4344 220.687 29.879 219.972 31.2659ZM217.736 32.0184C217.786 31.5152 217.823 31.0135 217.848 30.5132C217.898 30.0101 217.96 29.4927 218.034 28.9608C217.985 28.9923 217.936 29.0238 217.887 29.0553C217.864 29.084 217.827 29.1141 217.778 29.1456C217.508 29.3058 217.314 29.3268 217.196 29.2085C217.076 29.0644 216.999 28.837 216.965 28.5263C216.948 28.3709 216.906 28.1005 216.838 27.7149C216.767 27.3035 216.645 26.8976 216.47 26.4973C216.319 26.0684 216.11 25.7112 215.844 25.4257C215.574 25.1143 215.232 24.9809 214.818 25.0257C214.223 25.0901 213.648 25.4665 213.094 26.155C212.537 26.8177 212.034 27.6185 211.586 28.5575C211.134 29.4707 210.781 30.4388 210.525 31.4618C210.269 32.4848 210.157 33.3874 210.189 34.1698C210.272 35.4181 210.524 36.2945 210.945 36.7991C211.366 37.3036 211.888 37.5223 212.509 37.4551C212.975 37.4048 213.46 37.169 213.965 36.7478C214.495 36.3237 214.991 35.8248 215.453 35.2511C215.941 34.6745 216.375 34.0906 216.756 33.4993C217.164 32.9053 217.49 32.4116 217.736 32.0184ZM248.724 27.8445C248.418 28.4015 248.022 29.0991 247.536 29.9374C247.048 30.7497 246.535 31.5779 245.998 32.4217C245.483 33.2369 244.964 34.0003 244.438 34.7119C243.936 35.3949 243.504 35.8868 243.144 36.1876C242.902 36.371 242.618 36.5326 242.293 36.6725C241.967 36.8125 241.625 36.9149 241.265 36.98C240.931 37.0423 240.605 37.0514 240.286 37.0073C239.97 36.9891 239.687 36.9149 239.437 36.7847C239.184 36.6287 238.962 36.3907 238.77 36.0709C238.61 35.8001 238.44 35.4387 238.26 34.9867C238.106 34.5318 238.004 33.9535 237.954 33.2516C237.445 34.3544 236.846 35.2312 236.157 35.8819C235.465 36.5067 234.796 36.985 234.151 37.3166C233.405 37.6854 232.646 37.9376 231.875 38.0733C231.513 38.1125 231.11 38.025 230.668 37.8109C230.229 37.6226 229.839 37.285 229.498 36.7979C229.154 36.285 228.899 35.6185 228.731 34.7984C228.561 33.9524 228.556 32.9315 228.714 31.7356C228.906 30.1171 229.32 28.6186 229.957 27.2402C230.619 25.8589 231.368 24.6648 232.202 23.6579C233.033 22.6252 233.876 21.8268 234.732 21.2628C235.588 20.6989 236.316 20.4106 236.917 20.398C237.63 20.4519 238.222 20.5975 238.693 20.8347C239.084 21.0545 239.359 21.4177 239.519 21.9243C239.701 22.4022 239.565 23.0848 239.111 23.9721C239.465 23.8552 239.758 23.7713 239.988 23.7202C240.244 23.6663 240.437 23.6324 240.566 23.6184C240.722 23.6016 240.827 23.6034 240.881 23.6237C240.913 23.6726 240.938 23.7878 240.958 23.969C240.975 24.1243 240.968 24.4263 240.938 24.8748C240.908 25.3233 240.856 25.9314 240.782 26.699C240.707 27.4666 240.605 28.4599 240.475 29.6789C240.449 29.9175 240.421 30.1431 240.391 30.3559C240.385 30.5399 240.367 30.7383 240.338 30.951C240.332 31.135 240.317 31.3593 240.293 31.6238C240.269 31.8883 240.239 32.2189 240.204 32.6157C240.203 32.8515 240.218 33.1118 240.249 33.3966C240.303 33.6527 240.381 33.8931 240.484 34.1177C240.587 34.3423 240.724 34.5239 240.897 34.6624C241.092 34.7723 241.345 34.8105 241.656 34.7769C241.914 34.7489 242.234 34.5572 242.615 34.2017C242.993 33.8204 243.388 33.3586 243.801 32.8163C244.211 32.2481 244.63 31.6397 245.057 30.9911C245.508 30.3137 245.922 29.6665 246.301 29.0493C246.679 28.4322 247.013 27.8853 247.302 27.4088C247.617 26.9295 247.841 26.5779 247.974 26.354C248.156 26.0986 248.349 25.9468 248.553 25.8985C248.755 25.8243 248.916 25.8593 249.036 26.0035C249.156 26.1476 249.194 26.3792 249.15 26.6983C249.132 27.0146 248.99 27.3967 248.724 27.8445ZM237.53 30.7829C237.604 30.2511 237.693 29.6259 237.799 28.9073C237.904 28.1887 237.987 27.4987 238.046 26.8375C238.106 26.1762 238.139 25.6357 238.146 25.2158C238.176 24.7673 238.141 24.5616 238.04 24.5986C237.913 24.6385 237.775 24.6927 237.625 24.7613C237.501 24.8271 237.337 24.8841 237.133 24.9324C236.929 24.9806 236.726 25.0419 236.524 25.116C236.686 24.6794 236.767 24.3302 236.764 24.0685C236.785 23.7781 236.775 23.5567 236.732 23.4041C236.686 23.2257 236.619 23.0889 236.53 22.9937C236.22 22.7915 235.736 23.0402 235.079 23.7399C234.444 24.411 233.749 25.6124 232.993 27.3442C232.678 28.0593 232.446 28.8179 232.297 29.6198C232.145 30.3958 232.053 31.1259 232.023 31.8103C232.018 32.4918 232.069 33.0887 232.177 33.6009C232.282 34.0873 232.421 34.3997 232.593 34.5383C232.909 34.7923 233.248 34.8997 233.61 34.8605C233.97 34.7955 234.321 34.6527 234.664 34.4323C235.03 34.1832 235.377 33.8838 235.706 33.5339C236.061 33.1812 236.362 32.8212 236.611 32.4539C236.885 32.0837 237.097 31.7465 237.248 31.4421C237.424 31.1349 237.518 30.9152 237.53 30.7829ZM257.615 20.2438C257.923 19.9485 258.226 19.7193 258.523 19.5563C258.842 19.3646 259.129 19.2288 259.382 19.1491C259.659 19.0406 259.941 18.984 260.228 18.9791C260.933 18.9553 261.384 19.1292 261.581 19.5008C261.804 19.8696 261.898 20.4881 261.861 21.3565C261.83 21.8051 261.735 22.3785 261.575 23.0768C261.415 23.7752 261.233 24.633 261.028 25.6505C260.821 26.642 260.604 27.7787 260.376 29.0606C260.174 30.3397 260.001 31.7728 259.859 33.3598C259.685 34.662 259.507 36.1612 259.324 37.8574C259.17 39.3408 258.984 41.129 258.765 43.2219C258.572 45.3121 258.372 47.7041 258.166 50.3981C258.107 51.0594 257.862 51.4656 257.433 51.6167C257.03 51.765 256.585 51.7608 256.096 51.604C255.904 51.5201 255.723 51.4217 255.553 51.3091C255.41 51.1936 255.251 51.0537 255.076 50.8892C254.904 50.7507 254.75 50.5446 254.616 50.271C254.976 48.0318 255.28 45.9952 255.527 44.1612C255.799 42.3244 256.046 40.7262 256.265 39.3666C256.488 37.7971 256.702 36.3857 256.907 35.1325C256.978 34.5748 257.037 34.0315 257.085 33.5025C257.155 32.9448 257.227 32.4 257.301 31.8682C257.023 32.4483 256.716 33.0053 256.381 33.5392C256.046 34.073 255.665 34.5464 255.238 34.9592C254.812 35.3721 254.336 35.6985 253.812 35.9385C253.317 36.2016 252.78 36.325 252.202 36.3089C250.784 36.2788 249.731 35.8687 249.043 35.0786C248.381 34.2858 248.015 33.1991 247.944 31.8185C247.911 31.272 247.924 30.6681 247.984 30.0069C248.043 29.3456 248.118 28.7088 248.209 28.0966C248.3 27.4843 248.385 26.9382 248.464 26.4581C248.566 25.9494 248.645 25.5873 248.7 25.3718C248.905 24.3544 249.034 23.4892 249.088 22.7761C249.167 22.0603 249.001 21.4889 248.588 21.0621C248.925 20.7899 249.245 20.5982 249.547 20.4869C249.872 20.347 250.162 20.2371 250.415 20.1574C250.697 20.1007 250.982 20.0699 251.27 20.0651C251.98 20.0931 252.409 20.3086 252.557 20.7117C252.732 21.1119 252.76 21.7375 252.643 22.5884C252.587 23.0397 252.48 23.6275 252.323 24.3517C252.162 25.0501 251.992 25.7757 251.812 26.5286C251.631 27.2815 251.471 27.9799 251.331 28.6236C251.188 29.2415 251.118 29.6813 251.12 29.943C251.013 31.1332 251.098 32.0408 251.375 32.6657C251.65 33.2647 252.137 33.5264 252.836 33.4508C253.172 33.4145 253.532 33.2315 253.916 32.9019C254.296 32.5465 254.667 32.1004 255.028 31.5637C255.415 31.0242 255.782 30.4214 256.129 29.7553C256.473 29.0633 256.779 28.3754 257.045 27.6918C257.338 27.0054 257.58 26.3375 257.771 25.6881C257.989 25.036 258.136 24.4569 258.212 23.951C258.29 22.9735 258.325 22.2101 258.318 21.6608C258.311 21.1115 258.076 20.6391 257.615 20.2438ZM285.42 2.19091C285.673 2.11115 285.942 2.05588 286.227 2.0251C286.46 1.99992 286.709 1.99923 286.974 2.02303C287.264 2.04404 287.534 2.11962 287.784 2.24978L284.246 24.7523C284.199 25.0455 283.997 25.3555 283.64 25.6822C283.282 26.009 282.893 26.2868 282.473 26.5156C282.075 26.7157 281.709 26.8469 281.376 26.9091C281.065 26.9427 280.922 26.8273 280.945 26.5628C281.004 26.1373 281.128 25.1024 281.317 23.458C281.396 22.7422 281.498 21.8668 281.622 20.8319C281.743 19.7711 281.88 18.499 282.034 17.0155C282.214 15.5293 282.42 13.8044 282.653 11.8409C282.883 9.85158 283.148 7.58338 283.449 5.03633C283.455 4.8523 283.462 4.66827 283.468 4.48423C283.48 4.35198 283.464 4.20959 283.422 4.05704C283.405 3.9017 283.366 3.78799 283.306 3.71591C283.488 3.46051 283.7 3.24115 283.942 3.05783C284.182 2.84862 284.412 2.67964 284.634 2.55089C284.908 2.41655 285.17 2.29656 285.42 2.19091ZM282.275 29.0514C282.937 28.8751 283.488 28.8811 283.928 29.0694C284.364 29.2317 284.589 29.6134 284.601 30.2145C284.612 30.5539 284.505 30.8929 284.279 31.2316C284.051 31.5443 283.769 31.8368 283.431 32.109C283.12 32.3784 282.777 32.5988 282.403 32.7702C282.054 32.9389 281.738 33.0386 281.453 33.0693C280.909 33.1281 280.43 33.0619 280.017 32.8709C279.603 32.6798 279.394 32.3226 279.39 31.7992C279.38 31.4598 279.464 31.1495 279.643 30.8682C279.793 30.5638 280 30.2927 280.262 30.0548C280.551 29.8141 280.869 29.6094 281.217 29.4408C281.566 29.2722 281.918 29.1424 282.275 29.0514ZM297.312 0.90583C297.565 0.826069 297.834 0.770801 298.119 0.740024C298.352 0.714843 298.601 0.714153 298.865 0.737955C299.156 0.758959 299.426 0.834543 299.676 0.964705L296.138 23.4672C296.091 23.7604 295.889 24.0704 295.531 24.3972C295.174 24.7239 294.785 25.0017 294.364 25.2305C293.967 25.4306 293.601 25.5618 293.267 25.6241C292.957 25.6576 292.813 25.5422 292.837 25.2777C292.896 24.8522 293.02 23.8173 293.208 22.1729C293.288 21.4571 293.39 20.5817 293.514 19.5468C293.635 18.486 293.772 17.2139 293.926 15.7304C294.105 14.2442 294.312 12.5193 294.545 10.5559C294.775 8.56651 295.04 6.2983 295.341 3.75125C295.347 3.56722 295.353 3.38319 295.36 3.19916C295.372 3.0669 295.356 2.92451 295.313 2.77196C295.297 2.61662 295.258 2.50291 295.198 2.43083C295.38 2.17543 295.592 1.95607 295.834 1.77275C296.073 1.56354 296.304 1.39456 296.526 1.26581C296.799 1.13148 297.061 1.01148 297.312 0.90583ZM294.167 27.7664C294.829 27.5901 295.38 27.596 295.819 27.7843C296.256 27.9466 296.481 28.3284 296.493 28.9294C296.504 29.2688 296.396 29.6078 296.171 29.9465C295.943 30.2593 295.66 30.5518 295.323 30.8239C295.012 31.0933 294.669 31.3137 294.294 31.4852C293.946 31.6538 293.629 31.7535 293.344 31.7843C292.801 31.843 292.322 31.7769 291.909 31.5858C291.495 31.3948 291.286 31.0375 291.282 30.5141C291.271 30.1748 291.356 29.8644 291.535 29.5831C291.685 29.2788 291.892 29.0076 292.154 28.7697C292.442 28.529 292.761 28.3244 293.109 28.1557C293.458 27.9871 293.81 27.8573 294.167 27.7664Z" fill="#159741"/>
</svg>
