<svg width="68" height="68" viewBox="0 0 68 68" fill="none" xmlns="http://www.w3.org/2000/svg">
<circle cx="33.9" cy="33.9" r="33.9" fill="#2F2F2F"/>
<path d="M56.1464 21.0992C54.5545 21.7859 52.8221 22.2801 51.0377 22.4726C52.8903 21.372 54.2777 19.6332 54.9395 17.5825C53.201 18.6166 51.2966 19.3418 49.3106 19.7258C48.4805 18.8384 47.4766 18.1315 46.3614 17.6491C45.2462 17.1667 44.0436 16.9191 42.8285 16.9218C37.9124 16.9218 33.9586 20.9067 33.9586 25.7969C33.9586 26.4836 34.0419 27.1703 34.1771 27.831C26.8159 27.446 20.2506 23.9293 15.8859 18.5449C15.0906 19.9033 14.6738 21.45 14.679 23.0241C14.679 26.1038 16.2448 28.8194 18.6327 30.4165C17.2255 30.3611 15.8513 29.9743 14.6217 29.2876V29.3969C14.6217 33.7096 17.6703 37.2835 21.7333 38.1055C20.9704 38.3036 20.1856 38.405 19.3974 38.4072C18.82 38.4072 18.2737 38.35 17.7223 38.272C18.846 41.7887 22.1182 44.343 26.0147 44.4263C22.9662 46.8141 19.1477 48.2187 15.0015 48.2187C14.2576 48.2187 13.5709 48.1927 12.8582 48.1095C16.7911 50.6326 21.4575 52.0892 26.4829 52.0892C42.7973 52.0892 51.7244 38.5737 51.7244 26.8425C51.7244 26.4576 51.7244 26.0726 51.6984 25.6876C53.4256 24.4235 54.9395 22.8576 56.1464 21.0992Z" fill="white"/>
</svg>
